<?xml version="1.0" standalone="no"?>
<!DOCTYPE svg PUBLIC "-//W3C//DTD SVG 1.1//EN" "http://www.w3.org/Graphics/SVG/1.1/DTD/svg11.dtd" >
<svg xmlns="http://www.w3.org/2000/svg" xmlns:xlink="http://www.w3.org/1999/xlink" version="1.1">
<metadata>
Created by FontForge 20200511 at Sun Dec 21 20:56:43 2014
 By convertio
(c) Oles Mizernyi
</metadata>
<defs>
<font id="AprioriRegular" horiz-adv-x="690" >
  <font-face 
    font-family="Apriori "
    font-weight="400"
    font-stretch="normal"
    units-per-em="1000"
    panose-1="2 0 0 0 0 0 0 0 0 0"
    ascent="750"
    descent="-250"
    x-height="499"
    cap-height="700"
    bbox="6 -60 1121 858"
    underline-thickness="50"
    underline-position="-100"
    unicode-range="U+0020-2122"
  />
<missing-glyph horiz-adv-x="402" 
 />
    <glyph glyph-name=".notdef" horiz-adv-x="402" 
 />
    <glyph glyph-name=".null" horiz-adv-x="0" 
 />
    <glyph glyph-name="nonmarkingreturn" horiz-adv-x="402" 
 />
    <glyph glyph-name="space" unicode=" " horiz-adv-x="298" 
 />
    <glyph glyph-name="space" unicode="&#xa0;" horiz-adv-x="298" 
 />
    <glyph glyph-name="afii10021" unicode="&#x414;" horiz-adv-x="754" 
d="M693 698q2 -1 8 -2.5t6 -4.5v-5v-93v-170v-192v-156v-65q0 -3 -6 -4.5t-8 -2.5q-17 -3 -35 -3h-51h-168h-182h-85v1l-1 -1h-97q-18 0 -34 3q-2 1 -8.5 2.5t-6.5 4.5q0 4 6.5 5.5t8.5 1.5q16 3 34 3h50v35v152q0 63 15.5 124t47.5 115q32 57 77.5 103t101.5 78
q29 17 60 30t63 22q42 11 84 16t85 5q16 1 35 -2zM610 20v88v170v192v156v51h-2q-7 -2 -13 -3t-13 -3q-2 0 -3 -0.5t-3 -0.5q-1 0 -1 -0.5t-1 -0.5q-3 -1 -5.5 -1.5t-5.5 -1.5q-7 -2 -13 -4l-12 -4q-23 -8 -45 -18l-2 -1q-57 -28 -105.5 -69.5t-83.5 -95.5q-44 -64 -64 -140
q-17 -63 -17 -126v-54v-134h2h169h181h37z" />
    <glyph glyph-name="afii10022" unicode="&#x415;" 
d="M159 593v-87h2h168h182h86q17 0 34 -3q2 0 8 -1.5t6 -5.5q0 -3 -6 -4.5t-8 -2.5q-8 -2 -17 -2h-17h-51h-168h-182h-37v-64v-192v-156v-55h2h168h182h86q17 0 34 -3q2 0 8 -1.5t6 -5.5q0 -3 -6 -4.5t-8 -2.5q-17 -3 -34 -3h-51h-168h-182h-86q-18 0 -34 3q-2 1 -8 2.5
t-6 4.5v5v93v170v192v156v65q0 3 6 4.5t8 2.5q8 2 17 2h17h51h168h182h86h17t17 -2q2 -1 8 -2.5t6 -4.5q0 -4 -6 -5.5t-8 -1.5q-17 -3 -34 -3h-51h-168h-182h-37v-88z" />
    <glyph glyph-name="afii10053" unicode="&#x404;" horiz-adv-x="712" 
d="M161 530v-27h2h168h182h85q18 0 35 -3q2 -1 8 -2t6 -5t-6 -5t-8 -2q-17 -3 -35 -3h-50h-168h-182h-37v-6.5t1 -6.5q3 -66 23.5 -128t56.5 -116q1 -1 1 -1.5t1 -1.5q36 -52 84.5 -93.5t105.5 -68.5q11 -5 22.5 -10t22.5 -9q6 -2 12.5 -4t12.5 -4q2 -1 5 -1.5t5 -1.5h3
q2 -1 3 -1t3 -1q7 -2 13.5 -2.5t12.5 -2.5q3 0 4 -1h1q3 0 6.5 -0.5t6.5 -0.5q2 -1 5.5 -1h5.5q2 -1 6 -1h10h4q18 0 35 -3q2 -1 8 -2t6 -5t-6 -5t-8 -2q-17 -3 -35 -3q-39 0 -78 4t-77 14q-66 17 -125 48.5t-107 79.5q-47 46 -80 101.5t-50 118.5q-9 32 -13 63.5t-4 63.5
v54v144q0 3 6 4.5t8 1.5q8 2 17 2.5t17 0.5h51h168h182h85q9 0 18 -0.5t17 -2.5q2 0 8 -1.5t6 -4.5q0 -4 -6 -5.5t-8 -1.5q-8 -2 -17 -2.5t-18 -0.5h-50h-168h-182h-37v-59v-92z" />
    <glyph glyph-name="afii10024" unicode="&#x416;" horiz-adv-x="1175" 
d="M1106 698q2 -1 8.5 -2.5t6.5 -4.5v-51v-144q0 -3 -6.5 -4.5t-8.5 -2.5q-8 -2 -17 -2h-17h-10h-85h-149h-79q32 -9 61.5 -20.5t58.5 -27.5q57 -32 103 -77t79 -101q35 -57 52 -120.5t18 -130.5q0 -3 -6.5 -4.5t-8.5 -2.5q-17 -3 -34 -3q-18 0 -34 3q-2 1 -8.5 2.5
t-6.5 4.5v26q-8 134 -82 245q0 1 -0.5 1.5t-0.5 1.5q-36 52 -84.5 93.5t-105.5 69.5q-11 5 -22.5 9.5t-22.5 8.5q-6 2 -12.5 4t-12.5 4q-2 0 -6 2h-3q-6 2 -9 2q-6 2 -12.5 3t-13.5 3v-60v-192v-156v-65q0 -3 -6 -4.5t-8 -2.5q-18 -3 -35 -3q-18 0 -34 3q-2 1 -8 2.5t-6 4.5
v5v93v170v192v13q-6 -2 -12 -2.5t-12 -2.5l-12 -3h-2q-4 -2 -6 -2q-7 -2 -13 -4l-12 -4q-12 -5 -23.5 -9.5t-22.5 -9.5l-2 -1q-57 -28 -105.5 -69.5t-83.5 -94.5l-6 -10l-6 -10q-35 -57 -52.5 -120.5t-17.5 -130.5q0 -3 -6 -4.5t-8 -2.5q-17 -3 -34 -3t-35 3q-2 1 -8 2.5
t-6 4.5q0 130 64 243q32 56 77.5 102t101.5 79q31 17 63 30.5t67 22.5h-149h-123h-48h-17t-17 2q-2 1 -8.5 2.5t-6.5 4.5v51v144q0 3 6.5 4.5t8.5 2.5q8 2 17 2h17h17t17 -2q2 -1 8.5 -2.5t6.5 -4.5v-51v-134h46h149h185h3v120v65q0 3 6 4.5t8 2.5q8 2 17 2h17h17.5t17.5 -2
q2 -1 8 -2.5t6 -4.5v-5v-93v-87h92h172h123v41v144q0 3 6.5 4.5t8.5 2.5q8 2 16.5 2h17.5h17t17 -2z" />
    <glyph glyph-name="afii10025" unicode="&#x417;" 
d="M560 601q-26 -17 -54.5 -30.5t-57.5 -24.5q-35 -14 -70 -23.5t-72 -17.5h16h182h85q9 0 17.5 -0.5t16.5 -2.5q2 0 8.5 -1.5t6.5 -5.5q0 -63 -16.5 -124.5t-48.5 -116.5q-32 -57 -77 -103t-101 -78q-57 -34 -123 -52q-42 -11 -84 -16t-85 -5h-17t-17 2q-2 1 -8.5 2.5
t-6.5 4.5q0 4 6.5 5.5t8.5 1.5q16 3 34 3h10h6q2 1 6 1q3 0 5.5 0.5t4.5 0.5q5 0 13 2h5q6 2 12.5 3t12.5 2q2 1 3 1t3 1q1 0 1.5 0.5t1.5 0.5q8 2 10 2q14 5 25 8q11 5 22.5 9.5t22.5 9.5q1 0 1 0.5t1 0.5q58 28 106 70t84 95q3 5 6 9.5t6 9.5q67 112 69 241h-1h-169h-182
h-85q-8 0 -17 0.5t-17 2.5q-2 0 -8.5 1.5t-6.5 4.5q0 4 6.5 5.5t8.5 1.5q8 2 17 2.5t17 0.5h14h3q7 1 13.5 1t13.5 1h10l2 1q5 0 10 0.5t10 1.5t10.5 1t10.5 1q2 1 7 1q1 1 4 1q11 2 20.5 4t19.5 4q5 1 9.5 2t9.5 2q6 2 9 2q1 1 3 1q33 9 65 20.5t63 25.5q20 10 39 20.5
t36 23.5q13 10 25 20.5t21 23.5q5 9 8 17h-169h-182h-85q-18 0 -34 3q-2 0 -8.5 1.5t-6.5 5.5q0 3 6.5 4.5t8.5 2.5q16 3 34 3h51h168h182h85q17 0 34 -3q2 -1 8.5 -2.5t6.5 -4.5q0 -10 -4.5 -18t-9.5 -16q-13 -17 -29.5 -30.5t-34.5 -24.5zM280 529q-1 -1 -1.5 -1t1.5 1z
" />
    <glyph glyph-name="afii10026" unicode="&#x418;" horiz-adv-x="707" 
d="M634 698q2 -1 8.5 -2.5t6.5 -4.5v-5v-40v-53v-99v-71v-192v-156v-65q0 -3 -6.5 -4.5t-8.5 -2.5q-17 -3 -34 -3q-18 0 -34 3q-2 1 -8.5 2.5t-6.5 4.5v5v93v95q-59 -79 -144 -129q-57 -34 -123 -52q-42 -11 -84.5 -16t-85.5 -6q-18 0 -34 3q-2 1 -8.5 2.5t-6.5 4.5v5v93
v170v192v156v65q0 3 6.5 4.5t8.5 2.5q8 2 17 2h17h17t17 -2q2 -1 8.5 -2.5t6.5 -4.5v-5v-93v-170v-192v-156v-51h2q6 2 12.5 3t13.5 3q2 0 3 0.5t3 0.5l1 1l12 3l12 4t13 4q24 8 44 18q1 0 1 0.5t1 0.5q57 28 105.5 69.5t84.5 94.5q43 66 64 140q8 32 12 63.5t4 63.5v54v79
v65q0 3 6.5 4.5t8.5 2.5q8 2 17 2h17h17t17 -2z" />
    <glyph glyph-name="afii10027" unicode="&#x419;" horiz-adv-x="726" 
d="M645 698q2 -1 8 -2.5t6 -4.5v-5v-40v-53v-99v-71v-192v-156v-65q0 -3 -6 -4.5t-8 -2.5q-17 -3 -35 -3t-34 3q-2 1 -8 2.5t-6 4.5v5v93v95q-59 -78 -145 -129q-57 -34 -123 -52q-42 -11 -84 -16t-86 -6q-18 0 -34 3q-2 1 -8 2.5t-6 4.5v5v93v170v192v156v65q0 3 6 4.5
t8 2.5q8 2 17 2h17h17.5t17.5 -2q2 -1 8 -2.5t6 -4.5v-5v-93v-170v-192v-156v-51h2q7 2 13 3t13 3q2 0 3 0.5t3 0.5q1 0 2 1q3 1 5.5 1.5t5.5 1.5q11 3 25 8q24 8 44 18q1 0 2 1q58 28 106 69.5t84 94.5q22 32 37.5 67.5t26.5 72.5q17 65 17 127v54v79v65q0 3 6 4.5t8 2.5
q8 2 17 2h17h18t17 -2zM282 684q-2 0 -8 1.5t-6 5.5q0 3 6 4.5t8 2.5q8 2 17 2h18h97h17t17 -2q2 -1 8 -2.5t6 -4.5q0 -4 -6 -5.5t-8 -1.5q-17 -3 -34 -3h-97q-19 0 -35 3z" />
    <glyph glyph-name="afii10028" unicode="&#x41a;" 
d="M631 698q2 -1 8.5 -2.5t6.5 -4.5v-51v-144q0 -3 -6.5 -4.5t-8.5 -2.5q-8 -2 -17 -2h-17h-51h-168h-104q32 -9 61.5 -20.5t58.5 -27.5q57 -32 103 -77t79 -101q35 -57 52.5 -121t17.5 -130q0 -3 -6.5 -4.5t-8.5 -2.5q-17 -3 -34 -3q-18 0 -34 3q-2 1 -8.5 2t-6.5 5v26
q-8 133 -81 245q-2 2 -2 3q-36 52 -84.5 93.5t-105.5 69.5l-45 18q-6 2 -12.5 4t-12.5 4q-2 0 -3 0.5t-3 0.5q-1 1 -3 1q-6 2 -9 2q-6 2 -12.5 3t-13.5 2v1v-37v-23v-146v-46v-136v-20v-65q0 -3 -6 -4.5t-8 -2.5q-17 -3 -35 -3t-34 3q-2 1 -8 2.5t-6 4.5v5v46v47v121v49v133
v215v65q0 3 6 4.5t8 2.5q8 2 17 2h17h18t17 -2q2 -1 8 -2.5t6 -4.5v-5v-93v-87h1h168h182h36v41v144q0 3 6.5 4.5t8.5 2.5q8 2 17 2h17h17t17 -2z" />
    <glyph glyph-name="afii10055" unicode="&#x406;" horiz-adv-x="231" 
d="M148 528q2 0 8 -1.5t6 -4.5v-74v-177v-179v-82q0 -4 -6 -5t-8 -2q-18 -3 -35 -3q-18 0 -34 3q-2 1 -8 2t-6 5v74v176v180v82q0 3 6 4.5t8 1.5q8 2 17 2.5t17 0.5q9 0 17.5 -0.5t17.5 -2.5zM113 593q-22 0 -37.5 15.5t-15.5 37.5q0 23 15.5 38.5t37.5 15.5
q23 0 38.5 -15.5t15.5 -38.5q0 -22 -15.5 -37.5t-38.5 -15.5z" />
    <glyph glyph-name="afii10056" unicode="&#x407;" horiz-adv-x="506" 
d="M102 700q23 0 38.5 -15.5t15.5 -38.5q0 -22 -15.5 -37.5t-38.5 -15.5q-22 0 -37.5 15.5t-15.5 37.5q0 23 15.5 38.5t37.5 15.5zM394 700q23 0 38.5 -15.5t15.5 -38.5q0 -22 -15.5 -37.5t-38.5 -15.5q-22 0 -37.5 15.5t-15.5 37.5q0 23 15.5 38.5t37.5 15.5zM283 697
q2 0 8 -1.5t6 -4.5v-5v-93v-170v-192v-156v-65q0 -4 -6 -5t-8 -2q-17 -3 -35 -3t-34 3q-2 1 -8 2t-6 5v5v92v171v192v156v65q0 3 6 4.5t8 1.5q8 2 17 2.5t17 0.5q9 0 18 -0.5t17 -2.5z" />
    <glyph glyph-name="afii10029" unicode="&#x41b;" horiz-adv-x="693" 
d="M621 697q2 -1 8 -2.5t6 -4.5v-5v-93v-171v-191v-156v-65q0 -3 -6 -4.5t-8 -2.5q-9 -2 -17.5 -2h-17.5h-17t-17 2q-2 1 -8 2.5t-6 4.5v5v93v171v191v156v51h-2q-7 -2 -13.5 -3t-12.5 -3q-2 0 -3.5 -0.5t-3.5 -0.5l-1 -1q-8 -2 -11 -3q-7 -2 -13 -4l-12 -4q-23 -8 -45 -18
l-2 -1q-57 -28 -105.5 -69.5t-83.5 -94.5q-44 -66 -64 -140q-9 -32 -13 -63.5t-4 -63.5v-54v-144q0 -3 -6 -4.5t-8 -2.5q-9 -2 -17.5 -2h-17.5h-17t-17 2q-2 1 -8 2.5t-6 4.5v45v152q0 63 15.5 124t47.5 115q32 57 77 103t102 78q29 17 60 30t63 22q42 11 84 16t85 6
q17 0 35 -3z" />
    <glyph glyph-name="afii10030" unicode="&#x41c;" horiz-adv-x="1097" 
d="M1014 697q2 -1 8 -2.5t6 -4.5v-5v-93v-171v-191v-156v-65q0 -3 -6 -4.5t-8 -2.5q-9 -2 -17.5 -2h-17.5h-17t-17 2q-2 1 -8 2.5t-6 4.5v5v93v171v191v156v51h-2q-7 -2 -13.5 -3t-12.5 -3q-2 0 -3.5 -0.5t-3.5 -0.5l-1 -1l-12 -3l-12 -4l-12 -4q-12 -4 -23 -8.5t-22 -9.5
q-1 0 -1 -0.5t-1 -0.5q-52 -26 -96.5 -62.5t-79.5 -83.5q0 -2 -2 -2q-3 -5 -6 -8.5t-6 -7.5q-21 -32 -37 -67.5t-26 -72.5q-9 -32 -13 -63.5t-4 -63.5v-54v-144q0 -3 -6.5 -4.5t-8.5 -2.5q-8 -2 -16.5 -2h-17.5h-17t-17 2q-2 1 -8.5 2.5t-6.5 4.5v45v152q0 63 16 124t48 115
q7 13 15 25t16 23v54v129h-2q-7 -2 -13.5 -3t-12.5 -3q-2 0 -3.5 -0.5t-3.5 -0.5l-1 -1q-8 -2 -11 -3q-7 -2 -13 -4l-12 -4q-23 -8 -45 -18l-2 -1q-57 -28 -105.5 -69.5t-83.5 -95.5q-44 -64 -64 -139q-17 -65 -17 -127v-54v-144q0 -3 -6 -4.5t-8 -2.5q-9 -2 -17.5 -2h-17.5
h-17t-17 2q-2 1 -8 2.5t-6 4.5v45v152q0 63 15.5 124t47.5 115q32 57 77 103t102 78q29 17 60 30t63 22q42 11 84 16t85 6q17 0 35 -3q2 -1 8 -2.5t6 -4.5v-54v-44q22 18 51 34q29 17 60 30t63 22q42 11 84 16t85 6q17 0 35 -3z" />
    <glyph glyph-name="afii10034" unicode="&#x420;" horiz-adv-x="682" 
d="M643 691q4 -2 4 -4q-1 -63 -16.5 -124t-47.5 -116q-32 -56 -76.5 -102.5t-101.5 -78.5q-56 -32 -117 -49.5t-126 -21.5v-42v-144q0 -3 -6 -4.5t-8 -2.5q-8 -2 -17 -2h-17h-17.5t-17.5 2q-2 1 -8 2.5t-6 4.5v50v144v49v167v183v85q0 4 6 5.5t8 1.5q18 3 35 3h49h167h182
h86q17 0 34 -3h1h1q2 -1 4.5 -1t4.5 -2zM480 436q33 55 50 116.5t19 125.5h-167h-183h-37v-40v-167v-182v-72h2q6 1 12.5 2t12.5 3q2 1 5 1t5 1q1 0 2 1q3 0 7 2l12 4t13 4q24 8 44 18q1 0 2 1q57 28 105.5 69.5t83.5 94.5z" />
    <glyph glyph-name="afii10031" unicode="&#x41d;" horiz-adv-x="699" 
d="M628 697q2 -1 8 -2.5t6 -4.5v-5v-93v-170v-192v-156v-65q0 -3 -6 -4.5t-8 -2.5q-9 -2 -17.5 -2h-17.5h-17t-17 2q-2 1 -8 2.5t-6 4.5v5v93v170v192v12h-2l-12 -2t-12 -3q-2 0 -3.5 -0.5t-3.5 -0.5q0 -1 -1 -1q-8 -2 -11 -3l-12 -4l-12 -4q-24 -8 -44 -18q-2 0 -2 -1
q-116 -57 -190 -164q-3 -5 -6 -9.5t-6 -9.5q-34 -57 -51.5 -121t-17.5 -131q0 -2 -4 -4q-3 -2 -6 -2t-4 -1q-9 -2 -17.5 -2h-17.5h-17t-17 2q-1 0 -1 0.5t-2 0.5q-3 0 -7 2t-4 4v5v93v170v192v156v65q0 3 6 4.5t8 2.5q16 3 34 3q17 0 35 -3q2 -1 8 -2.5t6 -4.5v-5v-93v-170
v-120q60 80 143 129q59 36 123 52q61 17 120 20v122v65q0 3 6 4.5t8 2.5q16 3 34 3q17 0 35 -3z" />
    <glyph glyph-name="afii10032" unicode="&#x41e;" horiz-adv-x="676" 
d="M629 694q2 0 8.5 -1.5t6.5 -5.5v-42v-154q0 -62 -16 -122.5t-47 -114.5q-32 -56 -77 -102.5t-101 -78.5q-59 -34 -123 -52q-42 -11 -84 -16t-85 -5h-17.5t-17.5 2q-2 1 -8 2.5t-6 4.5v4v91v170v192v156v65q0 4 6 5.5t8 1.5q18 3 35 3h49h167h182h86q17 0 34 -3zM546 543
v135h-167h-183h-37v-86v-169v-192v-157v-51q2 0 2 1q7 1 13 2t12 3q2 0 3 0.5t3 0.5q1 0 1.5 0.5t1.5 0.5q4 1 10 3q11 3 25 8q22 7 45 18l2 1q57 28 105 69.5t84 94.5q41 62 63 136q17 65 17 130v52z" />
    <glyph glyph-name="afii10033" unicode="&#x41f;" horiz-adv-x="724" 
d="M641 694q2 0 8 -1.5t6 -5.5v-4v-91v-169v-192v-157v-65q0 -3 -6 -4.5t-8 -2.5q-9 -2 -17.5 -2h-17.5h-17t-17 2q-2 1 -8.5 2.5t-6.5 4.5v4v91v170v192v156v56h-167h-183h-36v-86v-169v-192v-157v-65q0 -3 -6.5 -4.5t-8.5 -2.5q-8 -2 -17 -2h-17h-17.5t-16.5 2
q-2 1 -8.5 2.5t-6.5 4.5v4v91v170v192v156v65q0 4 6.5 5.5t8.5 1.5q16 3 34 3h49h167h183h85q17 0 35 -3z" />
    <glyph glyph-name="afii10035" unicode="&#x421;" horiz-adv-x="679" 
d="M149 153v-134h168h182h85q17 0 35 -3q2 0 8 -1.5t6 -5.5q0 -3 -6 -4.5t-8 -2.5q-9 -2 -17.5 -2h-17.5h-49h-167h-182h-86h-17t-17 2q-2 1 -8 2.5t-6 4.5v42v154q0 63 15.5 123t46.5 114q32 57 77 103t101 78q59 36 123 52q81 22 169 22q17 0 35 -3q2 0 8 -1.5t6 -5.5
q0 -3 -6 -4.5t-8 -2.5q-9 -2 -17.5 -2h-17.5q-2 0 -4.5 -0.5t-4.5 -0.5h-6h-7q-3 -1 -10 -1q-8 -2 -13 -2q-2 0 -2.5 -0.5t-2.5 -0.5q-6 -1 -12.5 -2t-12.5 -3q-2 -1 -3 -1t-3 -1h-3q-4 -1 -10 -3q-11 -3 -25 -8q-23 -8 -45 -18q0 -1 -1 -1q-58 -28 -106 -69.5t-84 -94.5
q-42 -63 -63 -137q-17 -65 -17 -129v-53z" />
    <glyph glyph-name="afii10036" unicode="&#x422;" horiz-adv-x="860" 
d="M332 580v-89t5 -88q6 -59 22.5 -115.5t49.5 -106.5q26 -38 60.5 -68t76.5 -50q13 -5 25.5 -10t25.5 -10q6 -2 12 -3.5t12 -3.5h1q2 0 3 -0.5t2 -0.5l12 -3q7 -2 13 -2.5t13 -2.5q2 0 3 -0.5t3 -0.5t5 -0.5t6 -0.5q12 -3 26 -3h2q0 -1 2 -1q8 0 13 -1h11t12 -1h7h13
q8 0 17 -0.5t17 -2.5q2 0 8.5 -1.5t6.5 -5.5q0 -3 -6.5 -4.5t-8.5 -1.5q-8 -2 -17 -2.5t-17 -0.5h-23q-62 2 -123.5 9.5t-120.5 28.5q-47 17 -88.5 43t-73.5 64q-37 43 -59 94.5t-33 106.5q-12 70 -12 143v52v135h-85h-65q-18 0 -34 3q-2 1 -8 2.5t-6 4.5q0 4 6 5.5t8 1.5
q16 3 34 3h5h95h171h192h156h64q17 0 34 -3q2 0 8.5 -1.5t6.5 -5.5q0 -3 -6.5 -4.5t-8.5 -2.5q-17 -3 -34 -3h-5h-95h-171h-165v-96z" />
    <glyph glyph-name="afii10037" unicode="&#x423;" horiz-adv-x="687" 
d="M624 694q2 0 8 -1.5t6 -5.5v-42v-154q0 -62 -15.5 -122.5t-46.5 -114.5q-7 -11 -14 -22.5t-15 -22.5q-2 -3 -3 -3q-58 -81 -146 -133q-29 -17 -60 -30t-63 -22q-42 -11 -84 -16t-86 -5h-17t-17 2q-2 1 -8 2.5t-6 4.5q0 4 6 5.5t8 1.5q16 3 34 3h10q4 0 6 1h7q2 0 4.5 0.5
t5.5 0.5q3 1 6 1t7 1q3 0 5 1l12 2t12 3q2 0 3.5 0.5t3.5 0.5q1 0 1.5 0.5t1.5 0.5q6 2 10 3l12 4l12 4q24 7 45 18q1 0 2 1q52 25 96.5 61.5t79.5 82.5q-66 15 -124 45q-60 31 -109 76.5t-84 102.5q-35 58 -54 123.5t-19 133.5q0 4 6 5.5t8 1.5q8 2 17 2.5t17 0.5
q9 0 17.5 -0.5t17.5 -2.5q2 0 8 -1.5t6 -5.5v-18q3 -68 23.5 -131.5t58.5 -120.5q36 -54 85 -96t108 -70q9 -5 18.5 -8.5t18.5 -7.5q19 29 33.5 61t23.5 66q18 63 18 130v52v144q0 4 6 5.5t8 1.5q16 3 34 3t35 -3z" />
    <glyph glyph-name="afii10038" unicode="&#x424;" horiz-adv-x="1140" 
d="M849 631q57 -32 103.5 -76.5t79.5 -100.5q34 -57 51.5 -121t17.5 -130q0 -4 -6 -5t-8 -2q-17 -3 -34 -3h-11h-87h-150h-185h-3v-119v-65q0 -3 -6 -4.5t-8 -2.5q-8 -2 -17 -2h-17h-18t-17 2q-2 1 -8 2.5t-6 4.5v4v90v90h-92h-173h-123h-48q-18 0 -34 3q-2 1 -8 2t-6 5
q0 63 15.5 124t47.5 116q32 57 77 103t101 78q66 39 140.5 56.5t151.5 16.5q73 1 144.5 -15t135.5 -51zM520 213v59v192v157v53q-1 0 -2 -1l-12 -2t-12 -3q-3 0 -5.5 -0.5t-5.5 -1.5q-2 0 -2 -1q-2 0 -3 -0.5t-3 -0.5q-7 -2 -13 -4l-12 -4q-22 -8 -45 -19h-2
q-57 -28 -105 -70t-84 -95q-3 -5 -6 -9t-5 -9q-67 -111 -70 -241h49h150h185h3zM1004 213v15q-8 133 -81 245l-2 2q-73 107 -189 163q-24 11 -46 18l-12 4t-13 4q-2 1 -3 1t-3 1h-1q-8 2 -10 2q-7 2 -13.5 3t-12.5 3h-1v-82v-169v-192v-18h93h172h122z" />
    <glyph glyph-name="afii10039" unicode="&#x425;" horiz-adv-x="682" 
d="M416 637q-1 -1 -2 -1q-6 -3 -12.5 -6.5t-12.5 -6.5q48 -28 91 -69q46 -45 80 -100.5t51 -118.5q18 -63 18 -129v-53v-144q0 -3 -6.5 -4.5t-8.5 -2.5q-8 -2 -17 -2h-17h-17t-17 2q-2 1 -8.5 2.5t-6.5 4.5v67v92q0 15 0.5 30t-0.5 30q-3 66 -23.5 127.5t-56.5 116.5l-2 2
q-45 67 -111 115q-33 -24 -61.5 -53.5t-51.5 -63.5q-21 -32 -37 -66t-26 -71q-18 -63 -18 -129v-53v-144q0 -3 -6 -4.5t-8 -2.5q-8 -2 -17 -2h-17h-17.5t-17.5 2q-2 1 -8 2.5t-6 4.5v42v154q0 63 15.5 123t46.5 114q32 56 77 102t100 79q-7 4 -13.5 7.5t-13.5 6.5
q-23 10 -45 18q-7 2 -13 4l-12 4q-4 2 -7 2h-1q-1 0 -2 1q-2 1 -4 1t-4 1q-7 2 -13 3t-13 2q-1 0 -2 0.5t-2 0.5h-1q-3 1 -6.5 1t-6.5 1h-7q-2 1 -5 1h-5h-10q-1 0 -2 0.5t-2 0.5h-17.5t-17.5 2q-2 1 -8 2.5t-6 4.5q0 4 6 5.5t8 1.5q18 3 35 3q38 0 75.5 -4t74.5 -13
q23 -5 46 -13t45 -18q38 17 74 26q81 22 169 22q17 0 34 -3q2 0 8.5 -1.5t6.5 -5.5q0 -3 -6.5 -4.5t-8.5 -2.5q-8 -2 -17 -2h-17q-2 0 -5 -0.5t-5 -0.5h-6h-6q-4 -1 -11 -1q-8 -2 -12 -2q-2 0 -3 -0.5t-3 -0.5l-12 -2t-12 -3q-2 -1 -3.5 -1t-3.5 -1h-3l-9 -3q-7 -2 -13 -4
l-12 -4q-24 -8 -45 -18z" />
    <glyph glyph-name="afii10040" unicode="&#x426;" horiz-adv-x="749" 
d="M706 16q2 0 8.5 -1.5t6.5 -5.5q0 -3 -6.5 -4.5t-8.5 -2.5q-8 -2 -17 -2h-17h-97h-4q-37 0 -74 4t-72 12q-66 17 -125.5 48t-108.5 78q-47 45 -80.5 100.5t-50.5 118.5q-18 63 -18 130v52v144q0 4 6 5.5t8 1.5q18 3 35 3t34 -3q2 0 8 -1.5t6 -5.5v-66v-93v-30t1 -29
q3 -66 23.5 -128t56.5 -116q1 -1 1 -1.5t1 -1.5q36 -52 84.5 -93.5t105.5 -68.5q11 -5 22.5 -10t22.5 -9q6 -2 12.5 -4t12.5 -4q2 0 6 -2h3q6 -2 9 -2q7 -2 13 -3t13 -3v81v170v192v156v65q0 4 6.5 5.5t8.5 1.5q16 3 34 3q17 0 34 -3q2 0 8.5 -1.5t6.5 -5.5v-4v-91v-169
v-192v-157v-55h48q17 0 34 -3z" />
    <glyph glyph-name="afii10041" unicode="&#x427;" horiz-adv-x="671" 
d="M597 694q2 0 8.5 -1.5t6.5 -5.5v-4v-91v-169v-192v-157v-65q0 -3 -6.5 -4.5t-8.5 -2.5q-8 -2 -17 -2h-17h-17t-17 2q-2 1 -8.5 2.5t-6.5 4.5v4v91v91q-60 5 -117.5 20.5t-111.5 44.5q-57 31 -103 76t-79 100q-35 57 -52.5 121t-17.5 130q0 4 6 5.5t8 1.5q18 3 35 3t34 -3
q2 0 8 -1.5t6 -5.5q0 -6 0.5 -12t0.5 -12q8 -134 81 -246l2 -2q35 -52 83.5 -93.5t105.5 -69.5q11 -5 22 -9l22 -8q14 -5 25 -8q4 -2 6 -2q1 0 1.5 -0.5t2.5 -0.5q2 -1 4 -1t4 -1q6 -2 12 -3l12 -2v57v192v156v65q0 4 6.5 5.5t8.5 1.5q16 3 34 3q17 0 34 -3z" />
    <glyph glyph-name="afii10042" unicode="&#x428;" horiz-adv-x="1074" 
d="M1002 694q2 0 8 -1.5t6 -5.5v-3v-91v-170v-192v-157v-65q0 -3 -6 -4.5t-8 -1.5q-9 -2 -17.5 -2.5t-17.5 -0.5h-2h-122h-186q-26 0 -53 -0.5t-54 0.5q-61 2 -122.5 10t-119.5 29q-47 17 -88.5 43.5t-73.5 64.5q-37 44 -58.5 95.5t-31.5 107.5q-12 69 -12 141v52v144
q0 4 6 5.5t8 1.5q9 2 17.5 2.5t17.5 0.5q8 0 17 -0.5t17 -2.5q2 0 8 -1.5t6 -5.5v-107v-89t5 -88q6 -59 22.5 -115.5t49.5 -106.5q53 -77 138 -118q24 -11 53 -21q6 -2 11.5 -3t10.5 -3q2 0 3 -1q4 0 6 -1l12 -3l12 -2t13 -2q1 -1 4 -1h1q3 -1 6 -1t6 -1h1v81v169v191v157
v65q0 4 6 5.5t8 1.5q9 2 17.5 2.5t17.5 0.5q8 0 17 -0.5t17 -2.5q2 0 8 -1.5t6 -5.5v-3v-89v-169v-192v-157v-58h88h187h52v85v170v192v157v64q0 4 6 5.5t8 1.5q8 2 17 2.5t17 0.5q9 0 17.5 -0.5t17.5 -2.5zM478 26q-4 1 -3 1t3 -1z" />
    <glyph glyph-name="afii10043" unicode="&#x429;" horiz-adv-x="1152" 
d="M1107 16q2 0 8 -1.5t6 -5.5q0 -3 -6 -4.5t-8 -1.5q-8 -2 -17 -2.5t-17 -0.5h-97h-3h-122h-185q-27 0 -54 -0.5t-53 0.5q-62 2 -123 10t-120 29q-47 17 -88.5 43.5t-73.5 64.5q-36 44 -57.5 95.5t-32.5 107.5q-6 35 -8.5 70.5t-2.5 70.5v52v144q0 4 6 5.5t8 1.5
q8 2 17 2.5t17 0.5q9 0 17.5 -0.5t17.5 -2.5q2 0 8 -1.5t6 -5.5v-107q0 -45 -0.5 -89t4.5 -88q6 -59 23 -115.5t49 -106.5q26 -38 61 -68t77 -50q25 -12 54 -21l21 -6q2 0 3 -1q4 0 6 -1l12 -3q6 -1 12.5 -2t12.5 -2q2 -1 4 -1h1q3 -1 6 -1t6 -1h2v81v169v191v157v65
q0 4 6 5.5t8 1.5q8 2 17 2.5t17 0.5q9 0 17.5 -0.5t17.5 -2.5q2 0 8 -1.5t6 -5.5v-3v-89v-169v-192v-157v-58h87h187h52v85v170v192v157v64q0 4 6 5.5t8 1.5q9 2 17.5 2.5t17.5 0.5q8 0 17 -0.5t17 -2.5q2 0 8 -1.5t6 -5.5v-3v-91v-170v-192v-157v-55h49q8 0 17 -0.5
t17 -2.5zM486 26q-2 1 -3 1t3 -1z" />
    <glyph glyph-name="afii10046" unicode="&#x42c;" horiz-adv-x="682" 
d="M388 438q115 -64 182 -177q35 -57 52.5 -121t17.5 -130q0 -2 -4 -4q-6 -2 -8 -2q-1 -1 -2 -1q-17 -3 -35 -3h-48h-168h-182h-86q-18 0 -34 3q-2 1 -8 2t-6 5v49v167v183v85v50v144q0 4 6 5t8 2q16 3 34 3q17 0 35 -3q2 -1 8 -2t6 -5v-50v-135q61 -5 119.5 -20.5
t112.5 -44.5zM543 20q0 10 -1 15q-3 66 -23.5 128t-57.5 117q0 1 -0.5 1t-0.5 1q-36 53 -84.5 94t-105.5 69q-23 10 -45 18q-14 5 -25 8q-2 1 -3 1t-3 1h-1q-3 1 -5.5 1.5t-5.5 1.5q-6 1 -12.5 2t-13.5 3v-36v-167v-182v-76h168h182h37z" />
    <glyph glyph-name="afii10048" unicode="&#x42e;" horiz-adv-x="893" 
d="M834 695q2 -1 8 -2t6 -5v-42v-154q0 -63 -15.5 -123t-46.5 -114q-32 -57 -77 -103t-101 -78q-57 -34 -123 -52q-79 -20 -165 -22h-5q-18 0 -34 3q-2 1 -8.5 2t-6.5 5v4v91v170v191v19h-9h-94v-62v-191v-157v-65q0 -4 -6 -5t-8 -2q-17 -3 -34 -3q-19 0 -35 3q-2 1 -8 2
t-6 5v4v91v170v191v28v1v128v65q0 4 6 5t8 2q16 3 35 3q17 0 34 -3q2 -1 8 -2t6 -5v-4v-91v-89h9h94v119v65q0 4 6.5 5t8.5 2q16 3 34 3h49h168h182h85q17 0 35 -3zM751 544v134h-1h-167h-182h-37v-85v-170v-191v-157v-51h2q6 2 12 2.5t12 2.5q2 1 3.5 1t3.5 1h1q1 0 2 1
q3 0 9 2q7 2 13 4l12 4q12 5 23 9.5t22 9.5h2q57 29 105.5 70.5t83.5 94.5q21 32 37 66t26 70q18 63 18 129v53z" />
    <glyph glyph-name="afii10049" unicode="&#x42f;" horiz-adv-x="710" 
d="M633 493v-48v-167v-182v-86q0 -4 -6.5 -5t-8.5 -2q-17 -3 -34 -3q-18 0 -34 3q-2 1 -8.5 2t-6.5 5v48v167v183v71h-1q-7 -2 -13.5 -2.5t-12.5 -2.5q-2 -1 -3.5 -1t-3.5 -1h-1l-12 -3l-12 -4t-13 -4q-11 -5 -22 -9.5t-22 -9.5q-1 0 -2 -1q-57 -28 -105.5 -69.5
t-84.5 -95.5q-3 -4 -5.5 -8t-5.5 -8q-34 -57 -51.5 -120.5t-17.5 -129.5q0 -4 -6.5 -5t-8.5 -2q-17 -3 -34 -3q-18 0 -34 3q-2 1 -8.5 2t-6.5 5q0 63 16 123.5t48 115.5q16 27 34.5 52t40.5 48q-11 12 -22 24.5t-21 26.5q-47 63 -71.5 137.5t-24.5 153.5q0 3 6.5 4.5
t8.5 1.5q8 2 16.5 2.5t17.5 0.5h50h169h182h85q8 0 17 -0.5t17 -2.5q2 0 8.5 -1.5t6.5 -4.5v-53v-144v-1zM147 681q2 -70 22.5 -136.5t58.5 -124.5l15 -21q8 6 12 8q32 23 66.5 40.5t71.5 28.5q35 11 70.5 17.5t71.5 9.5v44v134h-2h-168h-182h-36z" />
    <glyph glyph-name="afii10020" unicode="&#x413;" horiz-adv-x="693" 
d="M632 698q2 -1 8 -2.5t6 -4.5q0 -4 -6 -5.5t-8 -1.5q-18 -3 -35 -3h-50h-169h-182h-36v-88v-170v-192v-156v-65q0 -3 -6.5 -4.5t-8.5 -2.5q-17 -3 -34 -3q-18 0 -34 3q-2 1 -8 2.5t-6 4.5v5v93v170v192v156v65q0 3 6 4.5t8 2.5q8 2 17 2h17h51h168h182h85h17.5t17.5 -2z
" />
    <glyph glyph-name="afii10023" unicode="&#x401;" horiz-adv-x="744" 
d="M288 751q-23 0 -38.5 15.5t-15.5 38.5q0 22 15.5 37.5t38.5 15.5q22 0 37.5 -15.5t15.5 -37.5q0 -23 -15.5 -38.5t-37.5 -15.5zM455 751q-23 0 -38.5 15.5t-15.5 38.5q0 22 15.5 37.5t38.5 15.5t38.5 -15.5t15.5 -37.5q0 -23 -15.5 -38.5t-38.5 -15.5zM213 486h-37v-14
q8 -133 81 -245l2 -2q36 -54 85 -95t106 -69q11 -5 22.5 -9.5t23.5 -9.5l12 -4t13 -4q2 -1 4.5 -1t5.5 -1q1 -1 2 -1q2 -1 3.5 -1t3.5 -1q7 -2 13 -2.5t13 -2.5q3 0 4 -1h1q3 0 6.5 -0.5t6.5 -0.5q2 -1 5.5 -1h5.5q2 -1 6 -1h10h5q17 0 34 -3q2 0 8 -1.5t6 -5.5t-6 -5t-8 -2
q-17 -3 -34 -3q-40 0 -79.5 4t-77.5 14q-66 17 -125.5 49t-107.5 80q-47 46 -80.5 102t-50.5 119q-17 65 -17 127v1v54v144q0 4 6 5.5t8 1.5q18 3 35 3h51h169h183h86q17 0 34 -3q2 0 8 -1.5t6 -5.5t-6 -5t-8 -2q-17 -3 -34 -3h-51h-169h-183h-37v-59v-93v-27h2h169h183h86
q8 0 17 -0.5t17 -2.5q2 0 8 -1.5t6 -4.5q0 -4 -6 -5.5t-8 -1.5q-8 -2 -17 -2.5t-17 -0.5h-51h-169h-183z" />
    <glyph glyph-name="afii10044" unicode="&#x42a;" horiz-adv-x="768" 
d="M462 438q57 -31 103 -76t80 -101q34 -57 51.5 -121t17.5 -130q0 -2 -4 -4q-6 -2 -8 -2q-1 -1 -2 -1q-17 -3 -35 -3h-50h-168h-182h-86q-18 0 -34 3q-2 1 -8 2t-6 5v51v168v182v85v51v134h-44q-8 0 -17 0.5t-17 2.5q-2 0 -8.5 1.5t-6.5 5.5q0 3 6.5 4.5t8.5 1.5
q8 2 17 2.5t17 0.5h92q9 0 17.5 -0.5t17.5 -2.5q2 0 8 -1.5t6 -4.5v-51v-136q62 -4 121 -19.5t113 -46.5zM617 20q0 4 -0.5 8t-0.5 8q-8 133 -81 245l-2 2q-36 53 -84.5 94.5t-105.5 68.5q-11 5 -22 9.5t-23 9.5l-12 4t-13 4q-2 0 -3 0.5t-3 0.5l-2 1q-3 1 -5.5 1.5
t-5.5 0.5q-6 2 -12.5 3t-13.5 3v-37v-169v-182v-75h2h168h182h37z" />
    <glyph glyph-name="afii10045" unicode="&#x42b;" horiz-adv-x="899" 
d="M816 697q2 0 8 -1.5t6 -5.5v-4v-93v-170v-192v-156v-65q0 -4 -6 -5t-8 -2q-17 -3 -34 -3t-35 3q-2 1 -8 2t-6 5v5v92v171v191v157v64q0 4 6 5.5t8 1.5q9 2 17.5 2.5t17.5 0.5q8 0 17 -0.5t17 -2.5zM407 438q57 -31 103.5 -76t79.5 -101q34 -57 51.5 -121t17.5 -130
q0 -2 -4 -4q-6 -2 -8 -2q-1 -1 -2 -1q-17 -3 -34 -3h-51h-168h-182h-85q-19 0 -35 3q-2 1 -8 2t-6 5v51v168v182v85v50v144q0 4 6 5.5t8 1.5q8 2 17 2.5t17 0.5q9 0 18 -0.5t17 -2.5q2 0 8 -1.5t6 -5.5v-50v-136q62 -4 121 -20t113 -46zM562 20v8t-1 8q-3 66 -24 128
t-57 117l-2 2q-36 53 -84 94.5t-106 68.5q-11 5 -22 9.5t-23 9.5q-6 2 -12 3.5t-12 3.5q-4 2 -7 2l-2 1q-8 2 -10 2q-7 2 -13.5 3t-12.5 2q-1 0 -1 1v-38v-168v-182v-75h2h168h182h37z" />
    <glyph glyph-name="afii10047" unicode="&#x42d;" horiz-adv-x="679" 
d="M613 697q2 0 8 -1.5t6 -4.5v-45v-152v-1q0 -63 -15.5 -123.5t-47.5 -115.5q-32 -56 -77 -102t-102 -78q-59 -36 -123 -52q-81 -22 -169 -22q-17 0 -35 3q-2 1 -8 2t-6 5t6 5t8 2q18 3 35 3h9h7q2 0 5 0.5t5 0.5q4 0 6 1q4 0 7 0.5t6 0.5q2 1 5 1q7 2 13.5 3t12.5 3
q2 0 3.5 0.5t3.5 0.5h1q8 2 11 4q7 2 13 4l12 4q22 7 45 18q1 0 2 1q57 28 105.5 69.5t83.5 94.5q44 66 64 140q8 29 12 58.5t5 58.5h-2h-168h-182h-85q-17 0 -35 3q-2 1 -8 2t-6 5t6 5t8 2q18 3 35 3h50h169h182h36v44v134h-2h-168h-182h-85q-9 0 -17.5 0.5t-17.5 2.5
q-2 0 -8 1.5t-6 5.5q0 3 6 4.5t8 1.5q9 2 17.5 2.5t17.5 0.5h50h169h182h85q8 0 17 -0.5t17 -2.5z" />
    <glyph glyph-name="zero" unicode="0" horiz-adv-x="667" 
d="M615 695q2 -1 8 -2t6 -5v-42v-154q0 -63 -15.5 -123t-46.5 -114q-32 -57 -77 -103t-101 -78q-57 -34 -123 -52q-82 -22 -170 -22q-18 0 -34 3q-2 1 -8 2t-6 5v4v91v170v191v157v65q0 4 6 5t8 2q16 3 34 3h49h168h182h85q18 0 35 -3zM532 544v134h-168h-182h-37v-85v-170
v-191v-157v-51h2q6 2 12 2.5t12 2.5q2 1 3.5 1t3.5 1h1q1 0 2 1q3 0 9 2q7 2 13 4l12 4q12 5 23 9.5t22 9.5h2q57 29 105.5 70.5t83.5 94.5q21 32 37 66t26 70q18 63 18 129v53z" />
    <glyph glyph-name="one" unicode="1" horiz-adv-x="426" 
d="M363 697q2 -1 8 -2t6 -5v-5v-93v-170v-192v-156v-65q0 -3 -6 -4.5t-8 -2.5q-9 -2 -17.5 -2h-17.5h-17t-17 2q-2 1 -8 2.5t-6 4.5v5v93v170v192v61q-45 -28 -99 -37t-106 -9q-8 0 -17 0.5t-17 2.5q-2 0 -8 1.5t-6 4.5q0 4 6 5.5t8 1.5q8 2 17 2.5t17 0.5h5h4q2 0 3.5 0.5
t3.5 0.5h1q3 0 5.5 0.5t4.5 0.5h3q3 1 6.5 1.5t6.5 1.5q2 1 4.5 1t4.5 1h1q4 2 7.5 2.5t6.5 2.5q15 5 25 10q51 25 82 69q14 22 22.5 46t8.5 50q0 4 6 5t8 2q16 3 34 3q17 0 35 -3zM127 510q2 1 3.5 1.5t-3.5 -1.5z" />
    <glyph glyph-name="two" unicode="2" horiz-adv-x="650" 
d="M133 153v-134h167h182h85q18 0 35 -3q2 0 8 -1.5t6 -5.5q0 -3 -6 -4.5t-8 -2.5q-8 -2 -17 -2h-18h-48h-167h-182h-86h-17t-17 2q-2 1 -8.5 2.5t-6.5 4.5v51v143q0 4 6.5 5.5t8.5 1.5q16 3 34 3h9q5 0 7 1h6q2 0 5 0.5t5 0.5q4 0 12 2q4 0 6 1l12 2t12 3q2 0 3.5 0.5
t3.5 0.5h1q8 2 11 4q6 2 12 3.5t12 3.5q11 4 22.5 8.5t22.5 9.5q0 1 1 1q58 28 106 70t84 95q3 5 6.5 10t6.5 10q32 55 49.5 116t19.5 125h-167h-182h-86q-18 0 -34 3q-2 0 -8.5 1.5t-6.5 5.5t6.5 5t8.5 2q16 3 34 3h48h168h182h85q18 0 35 -3q2 -1 8 -2t6 -5
q0 -63 -16 -124.5t-47 -116.5q-32 -57 -77 -103t-101 -79q-58 -34 -122 -52q-30 -8 -60 -13t-60 -7v-42z" />
    <glyph glyph-name="three" unicode="3" horiz-adv-x="662" 
d="M596 633q-14 -17 -30.5 -32t-35.5 -28q-35 -25 -73.5 -42t-79.5 -28h87h108q17 0 34 -3q2 0 8.5 -1.5t6.5 -5.5q-1 -63 -17 -124t-48 -116q-32 -57 -77 -102.5t-102 -77.5q-29 -17 -60 -30t-63 -22q-42 -11 -84 -16t-85 -5h-17t-17 2q-2 1 -8.5 2.5t-6.5 4.5q0 4 6.5 5.5
t8.5 1.5q16 3 34 3h10q4 0 6 1h10q2 1 6 1q4 1 7 1t7 1h4q7 2 13.5 3t12.5 3q2 0 3.5 0.5t3.5 0.5l2 1q4 1 10 3q7 2 13 4l12 4q12 4 23 8.5t22 9.5q1 0 1.5 0.5t1.5 0.5q57 29 105.5 70.5t84.5 94.5q2 5 5 9t6 9q33 54 50 115t19 125h-10h-183h-109h-17t-17 2q-2 1 -8 2.5
t-6 4.5q0 4 6 5.5t8 1.5q16 3 34 3h6q7 0 10 1h4q3 0 6.5 0.5t6.5 0.5q2 1 7 1q2 1 5 1t5 1q6 2 12 2.5t12 2.5q1 0 2 0.5t2 0.5t1.5 0.5t1.5 0.5q3 1 11 3q5 2 11 3.5t11 3.5q19 7 40 17q21 11 41.5 23t38.5 27q15 12 28 25t24 29q12 17 15 34h-2h-168h-182h-85
q-18 0 -34 3q-2 0 -8.5 1.5t-6.5 5.5t6.5 5t8.5 2q16 3 34 3h52h168h182h85q17 0 34 -3q2 -1 8.5 -2t6.5 -5q-1 -16 -8.5 -30.5t-16.5 -26.5z" />
    <glyph glyph-name="five" unicode="5" horiz-adv-x="657" 
d="M130 640v-134h167h182h86q17 0 34 -3q2 -1 8.5 -2t6.5 -5q0 -63 -16 -124.5t-48 -116.5q-32 -57 -76.5 -103t-101.5 -79q-29 -17 -59.5 -30t-62.5 -22q-42 -11 -83.5 -16t-84.5 -5h-18t-17 2q-2 1 -8 2.5t-6 4.5q0 4 6 5.5t8 1.5q16 3 35 3h9q4 0 6 1h6q3 0 5.5 0.5
t5.5 0.5q3 1 6 1t6 1q4 0 5 1q7 1 13 2t12 3q2 0 3 0.5t3 0.5h2q6 1 11 4q6 2 12 3.5t12 3.5q11 4 22 8.5t22 9.5q1 1 2 1q57 28 105.5 70t84.5 95l6 10l6 10q33 55 50 116t19 125h-167h-182h-85q-19 0 -35 3q-2 0 -8 1.5t-6 5.5v50v144q0 4 6 5t8 2q16 3 35 3h48h167h182
h86q17 0 34 -3q2 -1 8.5 -2t6.5 -5t-6.5 -5.5t-8.5 -1.5q-17 -3 -34 -3h-48h-168h-182h-37v-40z" />
    <glyph glyph-name="six" unicode="6" horiz-adv-x="662" 
d="M362 444q59 -31 107.5 -76t83.5 -102q35 -58 53.5 -123t18.5 -133q0 -4 -6.5 -5t-8.5 -2q-17 -3 -34 -3h-51h-168h-182h-67h-18h-17.5t-16.5 2q-2 1 -8.5 2.5t-6.5 4.5v1v41v3v151v1q0 63 16 124t48 115q5 10 10.5 19t11.5 17q4 6 5 7q0 1 2 3q60 83 149 135
q57 34 124 52q81 22 169 22q17 0 34 -3q2 -1 8.5 -2t6.5 -5t-6.5 -5.5t-8.5 -1.5q-17 -3 -34 -3h-10h-6q-2 0 -5 -0.5t-5 -0.5t-3 -0.5t-3 -0.5q-5 0 -13 -2h-5q-7 -2 -13.5 -3t-12.5 -3q-2 0 -3.5 -0.5t-3.5 -0.5l-1 -1l-12 -3l-12 -4t-13 -4q-11 -4 -22 -8.5t-22 -9.5
q-1 0 -1 -0.5t-1 -0.5q-106 -52 -177 -147q68 -15 130 -47zM527 20v10q-2 67 -22.5 130.5t-57.5 119.5q-75 108 -193 166q-10 5 -20.5 9t-21.5 8q0 -1 -0.5 -1.5t-0.5 -1.5q-2 -2 -3 -4l-2 -4q-1 -1 -1 -1.5t-1 -1.5q-1 -2 -2 -3.5t-2 -3.5v-1q-2 -2 -2.5 -4t-2.5 -4v-1
q-2 -2 -2.5 -3.5t-1.5 -3.5l-1 -1q-4 -9 -8 -17.5t-8 -17.5q-2 -6 -3 -8q0 -1 -1 -2q0 -2 -2 -6q-1 -4 -3 -10q-17 -48 -23 -96v-1q0 -2 -0.5 -4.5t-0.5 -4.5v-1q-1 -5 -1 -9.5v-9.5q-1 0 -1 -2v-7v-3v-6v-3v-9v-54v-133h1h169h182h36z" />
    <glyph glyph-name="seven" unicode="7" horiz-adv-x="650" 
d="M600 695q2 -1 8.5 -2t6.5 -5v-51v-143q0 -3 -6.5 -4.5t-8.5 -2.5q-19 -3 -34 -2h-10q-2 -1 -6 -1h-7q-2 0 -5 -0.5t-5 -0.5q-3 -1 -6 -1t-7 -1h-1q-2 0 -3 -1q-7 -1 -13 -2l-12 -2q-2 -1 -5 -1.5t-5 -1.5q-2 0 -3 -1q-2 0 -3 -0.5t-3 -0.5q-6 -2 -12.5 -4t-12.5 -4
q-11 -5 -22.5 -9.5t-22.5 -9.5h-1q-57 -28 -105.5 -70t-84.5 -95q-3 -5 -5.5 -9t-5.5 -9q-35 -57 -52.5 -121t-17.5 -130q0 -4 -6 -5t-8 -2q-17 -3 -34 -3t-35 3q-2 1 -8 2t-6 5q0 63 16 124t47 116q32 57 77 103t101 78q56 33 117.5 50t125.5 22v41v134h-167h-183h-85
q-17 0 -35 3q-2 1 -8 2t-6 5t6 5t8 2q18 3 35 3h49h167h182h86q17 0 34 -3z" />
    <glyph glyph-name="eight" unicode="8" horiz-adv-x="662" 
d="M604 695q2 -1 8 -2t6 -5v-50v-144q0 -3 -6 -4.5t-8 -2.5q-8 -2 -17 -2h-18q-2 0 -4.5 -0.5t-4.5 -0.5h-6h-6q-3 -1 -9 -1q-4 -1 -7 -1t-6 -1q-4 0 -5 -1q-6 -1 -12.5 -2t-12.5 -3q-2 0 -3 -0.5t-3 -0.5q-1 0 -1.5 -0.5t-1.5 -0.5q-6 -2 -10 -3q-6 -2 -12 -3.5t-11 -3.5
q-12 -5 -23 -9.5t-22 -9.5h-2q-7 -4 -14 -7.5t-14 -7.5q103 -64 166 -168q35 -57 52.5 -121t17.5 -130q0 -4 -6 -5t-8 -2q-17 -3 -35 -3h-44h-165h-182h-87q-18 0 -34 3q-1 0 -3 1q-3 0 -7 2t-4 4q0 63 15.5 123t46.5 115q31 56 75 102t99 79q-8 4 -15.5 8t-15.5 8
q-20 10 -44 18l-12 4t-13 4q-2 0 -3 0.5t-3 0.5q-1 1 -3 1q-6 2 -9 2q-6 2 -12.5 3t-12.5 2q-2 1 -4 1h-1q-3 1 -6 1t-6 1h-7q-2 1 -4.5 1h-4.5q-7 0 -10 1h-5h-17t-17 2q-2 1 -8 2.5t-6 4.5v50v144q0 4 6 5t8 2q16 3 34 3h49h168h182h85q18 0 35 -3zM435 282
q-46 66 -108 113q-64 -51 -109 -116q-3 -5 -6 -9t-5 -9q-67 -111 -70 -241h160h183h38q0 4 -0.5 7.5t-0.5 7.5q-3 66 -23.5 128t-57.5 117q0 1 -0.5 1t-0.5 1zM401 482q29 8 59 13t61 7v42v134h-168h-182h-37v-40v-136q51 -3 99 -14.5t94 -32.5q35 16 74 27z" />
    <glyph glyph-name="nine" unicode="9" horiz-adv-x="657" 
d="M600 695q2 -1 8 -2t6 -5v-1v-40v-1v-153v-1v-9q-1 -60 -16.5 -118t-45.5 -110q-5 -10 -11 -19l-12 -18l-3 -3v-1q0 -1 -2 -3q0 -1 -2 -3q-30 -41 -67 -74.5t-81 -59.5q-29 -17 -60 -30t-63 -22q-81 -22 -169 -22q-19 0 -35 3q-2 1 -8 2t-6 5t6 5.5t8 1.5q16 3 35 3h9h6
q2 0 3.5 0.5t3.5 0.5q7 0 10 1q3 0 6.5 0.5t6.5 0.5q2 1 5 1q6 2 12.5 2.5t12.5 2.5q2 1 3 1t3 1q2 0 3 1q4 0 10 2t12.5 4t12.5 4q11 5 22.5 9.5t22.5 9.5h1q53 26 97.5 63t79.5 84q-33 8 -65 19t-63 27q-59 31 -107.5 76t-83.5 102t-54 122t-18 133q0 4 6 5.5t8 1.5
q18 3 35 3h48h168h182h68q5 1 9 1h9q17 0 34 -3zM211 419q36 -54 84.5 -95.5t106.5 -69.5q21 -11 42 -18q0 1 0.5 1.5t0.5 1.5q2 2 2 3q1 2 1.5 2.5t1.5 2.5q1 1 1 1.5t1 1.5q2 4 4 7q3 4 4 8q1 0 1 1q1 2 2 3.5t2 3.5v1q2 2 2.5 4t1.5 4q3 7 6 13t6 13v1q1 2 1.5 3.5
t1.5 3.5q0 1 0.5 1t0.5 1q1 2 1 3t1 3q0 1 0.5 1.5t0.5 1.5l1 2t1 2.5t1 2.5q15 43 21 87v1q1 3 1 9v1q1 5 1.5 9.5t1.5 9.5v9v3q0 2 0.5 3.5t0.5 3.5v3v6v3v9v53v134h-168h-182h-37v-9q2 -67 22.5 -130.5t58.5 -119.5z" />
    <glyph glyph-name="four" unicode="4" horiz-adv-x="743" 
d="M701 210q2 0 8.5 -1.5t6.5 -5.5q0 -3 -6.5 -4.5t-8.5 -2.5q-8 -2 -17 -2h-17h-50v-41v-144q0 -3 -6.5 -4.5t-8.5 -2.5q-8 -2 -17 -2h-17h-17t-17 2q-2 1 -8.5 2.5t-6.5 4.5v51v134h-2h-169h-181h-86h-17t-17 2q0 1 -2 1q-4 0 -8 2t-4 4q0 64 16.5 126t48.5 118t77 102
t101 78q67 39 141 56t151 17q8 -1 17 -1t17 -2q2 -1 8.5 -2.5t6.5 -4.5v-51v-169v-182v-75h50q17 0 34 -3zM519 213v41v169v182v71h-1q-7 -1 -13.5 -2t-12.5 -3q-2 -1 -3.5 -1t-3.5 -1h-3l-9 -3q-7 -2 -13 -4l-12 -4q-23 -8 -45 -18l-1 -1q-58 -28 -106 -69.5t-84 -95.5
q-3 -5 -6.5 -10t-6.5 -10q-32 -55 -49.5 -116t-19.5 -125h2h169h182h36z" />
    <glyph glyph-name="afii10050" unicode="&#x490;" horiz-adv-x="712" 
d="M651 748q2 -1 8 -2.5t6 -4.5v-49q0 -4 -6 -5.5t-8 -1.5q-17 -3 -35 -3h-51h-168h-182h-37v-88v-170v-192v-157v-65q0 -4 -6 -5t-8 -2q-17 -3 -35 -3t-34 3q-2 1 -8 2t-6 5v5v93v170v192v157v65q0 4 6 5t8 2q16 3 34 3h52h168h182h37v39q0 3 6 4.5t8 2.5q8 2 17 2h17h18
t17 -2z" />
    <glyph glyph-name="exclam" unicode="!" horiz-adv-x="275" 
d="M103 171q-2 1 -8.5 2t-6.5 5v69v177v182v84q0 4 6.5 5t8.5 2q16 3 35 3q17 0 35 -3q2 -1 8 -2t6 -5v-69v-177v-182v-84q0 -4 -6 -5t-8 -2q-18 -3 -35 -3q-19 0 -35 3zM138 107q22 0 37.5 -15.5t15.5 -38.5q0 -22 -15.5 -37.5t-37.5 -15.5q-23 0 -38.5 15.5t-15.5 37.5
q0 23 15.5 38.5t38.5 15.5z" />
    <glyph glyph-name="question" unicode="?" horiz-adv-x="546" 
d="M226 107q23 0 38.5 -15.5t15.5 -38.5q0 -22 -15.5 -37.5t-38.5 -15.5q-22 0 -37.5 15.5t-15.5 37.5q0 23 15.5 38.5t37.5 15.5zM504 697q2 0 8 -1.5t6 -4.5q0 -117 -53 -220q-34 -64 -84 -116q-13 -13 -26 -24.5t-27 -22.5q-8 -6 -14.5 -11t-14.5 -10q-5 -2 -8.5 -5
t-7.5 -5l-6 -3v-88q0 -4 -6 -5.5t-8 -1.5q-18 -3 -35 -3q-19 0 -35 3q-2 0 -8 1.5t-6 5.5v89q0 3 5 5q47 28 86 64.5t69 81.5q38 57 58 121.5t22 133.5h-43h-189h-104q-8 0 -17 0.5t-18 2.5q-2 0 -8 1.5t-6 5.5q0 3 6 4.5t8 1.5q9 2 18 2.5t17 0.5h93h189h104q8 0 17 -0.5
t18 -2.5z" />
    <glyph glyph-name="period" unicode="." horiz-adv-x="140" 
d="M105 86q15 -17 15 -36q0 -20 -15 -35t-35 -15q-19 0 -36 15q-14 14 -14 35q0 20 14 36q16 14 36 14q21 0 35 -14z" />
    <glyph glyph-name="comma" unicode="," horiz-adv-x="123" 
d="M112 45q0 -15 -5.5 -33.5t-17 -34t-28.5 -26.5t-40 -11q-11 0 -13 1t-2 3t7 5t15 9t15 16t7 26q-12 3 -22 13q-14 14 -14 34q0 21 14 35t35 14q20 0 34 -14q15 -15 15 -35v-2z" />
    <glyph glyph-name="hyphen" unicode="-" horiz-adv-x="339" 
d="M298 351q9 0 15.5 -7.5t6.5 -18.5t-6.5 -18t-15.5 -7h-257q-9 0 -15 7t-6 18t6 18.5t15 7.5h257v0z" />
    <glyph glyph-name="ellipsis" unicode="&#x2026;" horiz-adv-x="465" 
d="M422 85q14 -14 14 -35t-14 -35q-15 -15 -36 -15q-22 0 -35 15q-15 15 -15 35t15 35q13 15 35 15q21 0 36 -15zM267 85q14 -14 14 -35t-14 -35q-15 -15 -36 -15q-22 0 -35 15q-15 15 -15 35t15 35q13 15 35 15q21 0 36 -15zM112 85q14 -14 14 -35t-14 -35q-15 -15 -36 -15
q-22 0 -35 15q-15 15 -15 35t15 35q13 15 35 15q21 0 36 -15z" />
    <glyph glyph-name="colon" unicode=":" horiz-adv-x="161" 
d="M115 86q15 -15 15 -36q0 -22 -15 -35q-15 -15 -35 -15t-35 15q-15 13 -15 35q0 21 15 36q14 14 35 14t35 -14zM80 300q-20 0 -35 15q-15 13 -15 35q0 21 15 36q14 14 35 14t35 -14q15 -15 15 -36q0 -22 -15 -35q-15 -15 -35 -15z" />
    <glyph glyph-name="semicolon" unicode=";" horiz-adv-x="133" 
d="M65 300q-20 0 -35 15q-15 13 -15 35q0 21 15 36q14 14 35 14t35 -14q15 -15 15 -36q0 -22 -15 -35q-15 -15 -35 -15zM66 96q21 0 35 -14t14 -35v-2q0 -15 -5.5 -33.5t-17 -34t-28.5 -26.5t-40 -11q-10 0 -12.5 1t-2.5 3t7 5t15 9t15.5 16t7.5 26q-11 2 -23 13
q-14 14 -14 34q0 21 14 35q16 14 35 14z" />
    <glyph glyph-name="parenleft" unicode="(" horiz-adv-x="314" 
d="M181 693q8 4 13 4q2 1 4.5 1t4.5 1q10 1 19 1.5t19 -0.5q8 -1 15 -1.5t14 -3.5q3 -1 5.5 -2.5t-0.5 -4.5q-17 -17 -32 -35t-28 -38q0 1 0.5 1t0.5 1q-8 -12 -14 -23q-35 -59 -52 -124.5t-15 -133.5q2 -69 22 -133t58 -121q0 1 -0.5 1t-0.5 1q25 -38 59 -71q3 -3 0 -5
t-5 -3q-7 -2 -14.5 -3t-14.5 -1q-21 -2 -38 1q-8 0 -17 3q-4 2 -5 2q-38 38 -67.5 84.5t-46.5 97.5q-23 63 -27 130.5t11 133.5q15 69 49 129.5t83 110.5z" />
    <glyph glyph-name="parenright" unicode=")" horiz-adv-x="305" 
d="M126 7q-5 -2 -13 -4q-2 0 -4.5 -0.5t-5.5 -0.5q-9 -2 -18.5 -2t-18.5 1q-17 0 -29 4q-3 1 -5.5 3t0.5 5q17 17 32 35t28 38q0 -1 -0.5 -1.5t-0.5 -1.5q4 6 7.5 12t6.5 12q35 58 52 124t15 134t-22.5 132.5t-58.5 121.5q2 -2 2 -3q-25 38 -59 72q-3 3 0 4.5l5 2.5
q7 3 14.5 3.5t14.5 1.5q10 1 19 0.5t19 -1.5q10 -2 17 -4q1 0 5 -2q38 -38 67.5 -84t46.5 -97q23 -64 27 -131t-11 -133q-15 -69 -49 -130t-83 -111z" />
    <glyph glyph-name="asterisk" unicode="*" horiz-adv-x="284" 
d="M41 570q-6 0 -10.5 4t-4.5 11q0 6 4.5 10.5t10.5 4.5h64l-45 45q-5 5 -5 10.5t5 10.5q10 10 21 0l45 -45v64q0 6 4.5 10.5t10.5 4.5q7 0 11 -4.5t4 -10.5v-64l45 45q11 11 22 0q10 -11 0 -21l-45 -45h63q7 0 11 -4.5t4 -10.5q0 -15 -15 -15h-63l45 -46q5 -4 5 -10t-5 -11
q-4 -4 -11 -4t-11 4l-45 45v-63q0 -15 -15 -15q-6 0 -10.5 4t-4.5 11v63l-45 -45q-4 -4 -10 -4q-7 0 -11 4q-5 5 -5 11t5 10l45 46h-64v0z" />
    <glyph glyph-name="plus" unicode="+" horiz-adv-x="393" 
d="M346 350q11 0 18 -7t7 -18t-7 -18t-18 -7h-125v-125q0 -11 -7 -18t-18 -7q-10 0 -17.5 7t-7.5 18v125h-125q-10 0 -17.5 7t-7.5 18t7.5 18t17.5 7h125v125q0 11 7.5 18t17.5 7q11 0 18 -7t7 -18v-125h125v0z" />
    <glyph glyph-name="bracketleft" unicode="[" horiz-adv-x="296" 
d="M250 14q2 -1 6.5 -2t4.5 -4t-4.5 -4t-6.5 -1q-14 -3 -28 -3h-1h-136q-14 0 -27 3q-2 0 -7 1t-5 4v5v93v171v193v157v65q0 3 5 4.5t7 1.5q7 2 13.5 2h13.5h1h136h14t14 -2q2 0 6.5 -1.5t4.5 -4.5q0 -2 -4.5 -3.5t-6.5 -1.5q-7 -2 -14 -2h-14h-1h-97v-91v-171v-193v-157
v-57h98q7 0 14 -0.5t14 -1.5z" />
    <glyph glyph-name="bracketright" unicode="]" horiz-adv-x="293" 
d="M242 698q2 0 6.5 -1.5t4.5 -4.5v-4v-94v-171v-193v-157v-65q0 -3 -4.5 -4t-6.5 -1q-14 -3 -28 -3h-1h-136q-14 0 -27 3q-2 0 -7 1t-5 4t5 4t7 2q7 1 13.5 1.5t13.5 0.5h1h97v90v171v193v157v58h-98h-13.5t-13.5 2q-2 0 -7 1.5t-5 3.5q0 3 5 4.5t7 1.5q7 2 13.5 2h13.5h1
h136h14t14 -2z" />
    <glyph glyph-name="slash" unicode="/" horiz-adv-x="476" 
d="M36 10l2 4q8 17 15 34.5t14 34.5l57 130q17 40 34 79.5t34 79.5l67 155l50 117q5 12 10 23.5t10 23.5q2 3 5.5 4t7.5 2q8 2 16.5 2.5t17.5 0.5q8 0 17 -0.5t18 -2.5l2.5 -0.5t5.5 -1t5.5 -2t1.5 -2.5q0 -2 -0.5 -2.5t-0.5 -1.5l-30 -69l-56 -130l-69 -160l-66 -154
l-51 -118l-20 -46q-2 -5 -12 -7q-17 -3 -34 -3t-35 3l-8 2l-6 2t-2 3z" />
    <glyph glyph-name="backslash" unicode="\" horiz-adv-x="466" 
d="M50 697q18 3 35 3t34 -3q10 -2 12 -7q5 -12 10 -23.5t10 -22.5q13 -30 25.5 -59.5t25.5 -58.5q17 -38 33 -77t33 -77q17 -40 34.5 -80t34.5 -80q14 -32 28 -65t28 -65l30 -69q0 -1 0.5 -1.5t0.5 -2.5q1 -1 -1.5 -2.5t-5.5 -2t-5.5 -1l-2.5 -0.5q-9 -2 -18 -2.5t-17 -0.5
q-9 0 -17.5 0.5t-16.5 2.5q-4 1 -7.5 2t-5.5 4q-5 12 -10 23.5t-10 23.5q-13 29 -25 58.5t-25 58.5q-17 39 -33.5 77.5t-33.5 77.5q-17 40 -34 79.5t-34 79.5q-14 32 -28.5 65t-28.5 65q-7 17 -14 34.5t-15 34.5q-1 1 -1 2t-1 2t2 2.5t6 2.5z" />
    <glyph glyph-name="equal" unicode="=" horiz-adv-x="392" 
d="M342 264q11 0 18 -7t7 -18t-7 -18t-18 -7h-300q-11 0 -18 7t-7 18t7 18t18 7h300zM42 333q-11 0 -18 7.5t-7 17.5q0 11 7 18t18 7h300q11 0 18 -7t7 -18q0 -10 -7 -17.5t-18 -7.5h-300z" />
    <glyph glyph-name="quotedbl" unicode="&#x22;" horiz-adv-x="210" 
d="M63 500q-8 0 -14 6t-6 14v160q0 8 6 14t14 6q9 0 14.5 -6t5.5 -14v-160q0 -8 -5.5 -14t-14.5 -6zM151 500q-8 0 -14 6t-6 14v160q0 8 6 14t14 6t14 -6t6 -14v-160q0 -8 -6 -14t-14 -6z" />
    <glyph glyph-name="numbersign" unicode="#" horiz-adv-x="835" 
d="M756 453q2 0 6.5 -1.5t4.5 -3.5q0 -3 -4.5 -4.5t-6.5 -1.5q-7 -2 -13.5 -2h-14.5h-34h-106q-4 -11 -7.5 -23t-7.5 -23q-14 -44 -28.5 -87.5t-28.5 -88.5h72h71h14.5t13.5 -2q2 0 7 -1.5t5 -3.5q0 -3 -5 -4.5t-7 -1.5q-7 -2 -13.5 -2h-14.5h-34h-114l-22 -68l-22 -68
q-5 -15 -10 -29.5t-10 -29.5q-1 -3 -5 -4t-6 -1q-14 -3 -28 -3q-1 0 -7.5 0.5t-13.5 1t-13 2t-5 4.5q2 5 3 9t3 8l36 111q5 17 10.5 33.5t11.5 33.5h-124h-19l-22 -68l-22 -68q-5 -15 -10 -29.5t-10 -29.5q-1 -3 -5 -4t-6 -1q-14 -3 -28 -3q-1 0 -7.5 0.5t-13.5 1t-13 2
t-5 4.5q2 5 3 9t3 8l36 111q5 17 10.5 33.5t11.5 33.5h-71h-52h-13.5t-13.5 2q-2 0 -7 1.5t-5 4.5q0 2 5 3.5t7 1.5q7 2 13.5 2h13.5h35h93q7 23 14 44.5t14 43.5q11 34 22 67t22 67h-79h-52h-13.5t-13.5 2q-2 0 -7 1.5t-5 4.5q0 2 5 3.5t7 1.5q7 2 13.5 2h13.5h35h101
q3 8 5.5 16.5t5.5 16.5q12 37 23.5 73t23.5 72q5 15 9.5 30t9.5 29q2 3 6 4t6 2q7 2 13.5 2h13.5q1 0 7.5 -0.5t14 -1t13.5 -2t5 -4.5q-2 -4 -3 -8t-3 -9q-9 -28 -18 -55t-18 -55t-18 -55t-18 -55h137h6q3 8 5.5 16.5t5.5 16.5q12 37 23.5 73t23.5 72q5 15 9.5 30t9.5 29
q2 3 6 4t6 2q7 2 13.5 2h14.5q1 0 7.5 -0.5t13.5 -1t13 -2t5 -4.5q-2 -4 -3 -8t-3 -9q-9 -28 -18 -55t-18 -55t-18 -55t-18 -55h64h71h14.5t13.5 -2zM438 218q7 23 14 44.5t14 43.5q11 34 22 67t22 67h-132h-11q-4 -11 -7.5 -23t-7.5 -23q-14 -44 -28.5 -87.5t-28.5 -88.5
h143z" />
    <glyph glyph-name="dollar" unicode="$" horiz-adv-x="708" 
d="M619 357q1 -1 8.5 -2.5t6.5 -4.5q-13 -40 -30 -73q-30 -61 -75 -111.5t-102 -85.5q-4 -2 -7 -4t-7 -4v-63q0 -3 -6 -4.5t-8 -1.5q-8 -2 -17 -2.5t-17 -0.5q-9 0 -18 0.5t-17 2.5q-2 0 -8 1.5t-6 4.5v19q-4 -2 -8 -2.5t-8 -2.5q-42 -12 -85.5 -17.5t-88.5 -5.5
q-8 0 -17 0.5t-17 2.5q-2 0 -8.5 1.5t-6.5 4.5q0 4 6.5 5.5t8.5 1.5q8 2 17 2.5t17 0.5h6q7 0 10 1h6q2 0 5 0.5t5 0.5q3 1 6 1t6 1q4 0 6 1l12 2t12 3q2 0 3.5 0.5t3.5 0.5l1 1q3 1 5.5 1.5t5.5 1.5q13 3 23 7q24 8 44 18l15 7.5t15 8.5q2 2 6 4q47 27 85.5 63.5t68.5 81.5
q37 54 57 116h-136h-184h-89q-17 0 -35 3q-2 0 -8 1.5t-6 5.5q0 2 1 4.5t2 4.5l3 9q2 5 3.5 9.5t3.5 9.5l8 18l8 18q30 60 75.5 110.5t102.5 86.5q8 5 17 9.5t17 9.5v51q0 4 6 5t8 2q16 3 35 3q17 0 34 -3q2 -1 8 -2t6 -5v-12q42 11 84.5 16.5t85.5 5.5q17 0 34 -3
q2 -1 8 -2t6 -5t-6 -5t-8 -2q-17 -3 -34 -3h-7h-9q-4 0 -6 -1q-7 0 -10 -1q-3 0 -6 -0.5t-7 -0.5q-1 -1 -5 -1q-6 -2 -12 -2.5t-12 -2.5q-2 -1 -3.5 -1t-3.5 -1h-1q-3 -1 -5.5 -1.5t-5.5 -1.5l-12 -4t-11 -4l-22 -8t-22 -9q-58 -28 -106.5 -70t-84.5 -95q-9 -14 -17.5 -29.5
t-16.5 -31.5q-4 -8 -7.5 -16.5t-6.5 -16.5q-5 -10 -6 -17q-2 -4 -2 -6h136h184h89h17.5t16.5 -2z" />
    <glyph glyph-name="quotesingle" unicode="'" horiz-adv-x="132" 
d="M117 538q0 -15 -5.5 -33t-17 -34t-28.5 -27t-40 -11q-11 0 -13 1.5t-2 3.5t7 5t15 9t15 16t7 26q-13 3 -22 12q-14 14 -14 35q0 19 14 35q14 14 35 14q20 0 34 -14q15 -17 15 -35v-3z" />
    <glyph glyph-name="endash" unicode="&#x2013;" horiz-adv-x="362" 
d="M309 351q9 0 15.5 -7.5t6.5 -18.5t-6.5 -18t-15.5 -7h-257q-9 0 -15 7t-6 18t6 18.5t15 7.5h257v0z" />
    <glyph glyph-name="emdash" unicode="&#x2014;" horiz-adv-x="503" 
d="M473 325q0 -11 -7 -18t-18 -7h-400q-10 0 -17.5 7t-7.5 18t7.5 18t17.5 7h400q11 0 18 -7t7 -18z" />
    <glyph glyph-name="underscore" unicode="_" horiz-adv-x="395" 
d="M347 50q11 0 18 -7t7 -18t-7 -18t-18 -7h-300q-10 0 -17.5 7t-7.5 18t7.5 18t17.5 7h300v0z" />
    <glyph glyph-name="percent" unicode="%" horiz-adv-x="726" 
d="M265 432q-35 -23 -74 -32t-81 -9h-13.5t-13.5 2q-2 0 -7 1.5t-5 3.5v10v160v122q0 3 5 4t7 1q13 3 27 3h67h141q14 0 28 -3q2 0 6.5 -1t4.5 -4v-69q0 -8 0.5 -15.5t-0.5 -15.5q-2 -15 -5 -29.5t-8 -28.5q-12 -30 -32 -56t-47 -44zM149 682v-2v-160v-105q2 1 4 1.5t4 1.5
l6 3l2 1h1q2 2 5 3t5 3q21 11 38.5 27.5t31.5 36.5q4 6 7 12l6 12q14 28 19 62q1 10 1.5 19.5t0.5 19.5v65h-29h-102zM646 305q2 -1 6.5 -2t4.5 -4v-10v-160v-122q0 -2 -4.5 -3.5t-6.5 -1.5q-7 -2 -13.5 -2h-14.5h-67h-141h-13.5t-13.5 2q-2 0 -7 1.5t-5 3.5v69v15.5t1 15.5
q1 15 4.5 30t8.5 29q23 62 79 99q34 23 73.5 32.5t80.5 9.5q8 0 14.5 -0.5t13.5 -1.5zM580 15v2v160v105q-6 -2 -8 -3t-3 -1t-3 -1q-1 -1 -2 -1h-1v-1q-4 -1 -10 -5q-43 -25 -70 -65q-9 -12 -14 -24q-7 -14 -11.5 -29.5t-6.5 -32.5q-2 -10 -2 -19.5v-19.5v-65h28h103z
M492 484q-26 -40 -52 -79.5t-52 -79.5q-26 -38 -50.5 -77t-50.5 -77q-19 -29 -38 -58.5t-38 -58.5q-8 -12 -15 -23.5t-15 -23.5q-3 -3 -12 -5q-7 -2 -13.5 -2h-13.5h-14.5t-13.5 2q1 0 -6 1.5t-5 3.5q1 2 1.5 2.5t1.5 2.5q11 17 22.5 34.5t22.5 35.5q22 33 43 65.5t43 65.5
q26 40 52 79.5t52 79.5q26 39 50.5 77.5t50.5 77.5q19 29 38 58.5t38 58.5q8 11 15 23t15 23q4 5 12 5q13 3 27 3t28 -3q-1 1 6 -1t5 -4q-1 -1 -1.5 -2t-1.5 -2q-11 -18 -22.5 -35.5t-22.5 -34.5q-22 -33 -43.5 -66t-42.5 -66z" />
    <glyph glyph-name="ampersand" unicode="&#x26;" horiz-adv-x="801" 
d="M743 210q2 0 8 -1.5t6 -5.5q0 -3 -6 -4.5t-8 -2.5q-17 -3 -34 -3h-74v-73v-111q0 -3 -6.5 -4.5t-8.5 -1.5q-8 -2 -17 -2.5t-17 -0.5q-74 0 -145 15.5t-136 51.5q-57 31 -103.5 75.5t-80.5 100.5q-34 57 -51.5 120t-18.5 129q0 4 6.5 5.5t8.5 1.5q16 3 34 3h58h136
q-64 17 -121 49q-24 14 -46.5 31.5t-41.5 38.5q-12 14 -22.5 31t-11.5 37q0 3 6.5 4.5t8.5 1.5q8 2 17 2.5t17 0.5h51h168h182h85q8 0 17 -0.5t17 -2.5q2 0 8.5 -1.5t6.5 -4.5q0 -4 -6.5 -5.5t-8.5 -1.5q-8 -2 -17 -2.5t-17 -0.5h-51h-168h-182h-35q3 -17 15 -34
q20 -30 52 -54q18 -15 38 -27t42 -23q10 -5 20 -9t21 -8q5 -2 11 -4l12 -4q8 -2 11 -3h1q2 0 2.5 -0.5t2.5 -0.5q6 -2 12.5 -3t12.5 -2q2 -1 5 -1.5t5 -0.5t3 -0.5t3 -0.5q3 0 6 -0.5t6 -0.5h5q3 -1 9 -1h5q17 0 34 -3q2 0 8.5 -1.5t6.5 -5.5q0 -3 -6.5 -4.5t-8.5 -2.5
q-8 -2 -17 -2h-17h-58h-184h-59v-14q3 -66 23.5 -127.5t57.5 -116.5l1 -2q36 -53 84.5 -94t106.5 -69q21 -11 45 -18l12 -4t13 -4q6 -2 10 -3q1 0 2 -1q2 0 3.5 -0.5t3.5 -0.5q6 -2 12.5 -3t13.5 -3v34v136h-74q-18 0 -34 3q-2 1 -8 2.5t-6 4.5q0 4 6 5.5t8 1.5q16 3 34 3
h74v25v111q0 4 6.5 5t8.5 2q16 3 34 3q17 0 34 -3q2 -1 8.5 -2t6.5 -5v-48v-88h74q17 0 34 -3z" />
    <glyph glyph-name="copyright" unicode="&#xa9;" horiz-adv-x="437" 
d="M211 331q-6 -17 -6 -34.5v-35.5h75h5t8.5 -0.5t8 -1.5t3.5 -3t-3.5 -3t-8 -1.5t-8.5 -0.5h-5h-100h-5t-8.5 0.5t-8 1.5t-3.5 3v42t9 40q15 29 39 45q18 11 37.5 14.5t39.5 3.5h5t8.5 -0.5t8 -1.5t3.5 -3q0 -4 -10 -4.5t-14 -0.5h-2q-3 0 -4 -1h-1h-1q-2 -1 -3 -1t-3 -1
q-14 -5 -23 -13q-24 -17 -33 -44zM372 573h5t8.5 -0.5t8 -1.5t3.5 -3v-7v-135v-193v-98q0 -2 -3.5 -3t-8 -1.5t-8.5 -0.5h-5h-3h-13h-170h-123h-5t-8.5 0.5t-8 1.5t-3.5 3v115q0 26 3 51t11 50q20 64 64 114q23 26 50 45t57 33q35 16 73 23t76 7zM249 140h98v2v135v193v91
h-3q-1 0 -1.5 -0.5t-1.5 -0.5h-2q-2 0 -3 -1q-4 0 -12 -2q-2 0 -3.5 -0.5t-3.5 -0.5q-1 -1 -2 -1h-2q-5 -2 -11 -3.5t-11 -3.5q-42 -15 -81 -44q-54 -41 -86 -100t-35 -126q-2 -19 -1.5 -37.5t0.5 -36.5v-64h161z" />
    <glyph glyph-name="registered" unicode="&#xae;" horiz-adv-x="482" 
d="M284 605h5t8.5 -0.5t8 -1.5t3.5 -3q0 -20 -7.5 -38t-21.5 -32q14 -14 21.5 -32t7.5 -38q0 -2 -3.5 -3t-8 -1.5t-8.5 -0.5h-5h-5t-8.5 0.5t-8 1.5t-3.5 3q0 39 -27 68q-10 10 -23 18v-86q0 -2 -3.5 -3t-8 -1.5t-8.5 -0.5h-5h-5t-8.5 0.5t-8 1.5t-3.5 3v100v40q0 2 3.5 3
t8 1.5t8.5 0.5h5h100zM247 553q10 19 12 42h-50v-32q10 -1 19.5 -3.5t18.5 -6.5zM397 700h5t8.5 -0.5t8 -1.5t3.5 -3v-115q0 -26 -3 -51t-11 -50q-20 -64 -64 -114q-45 -49 -107 -78q-35 -16 -73 -22.5t-76 -6.5h-5t-8.5 0.5t-8 1.5t-3.5 3v7v135v192v98q0 2 3.5 3t8 1.5
t8.5 0.5h5h4h12h170h123zM372 553q1 18 0.5 36.5t-0.5 37.5v63h-161h-98v-2v-135v-192v-92q2 0 3 1h5q1 1 4 1q3 1 6 1t6 1q2 1 3 1t3 1h2q1 0 2 1q5 2 11 3t11 3q22 8 42 19t39 25q54 41 86 100t36 127z" />
    <glyph glyph-name="degree" unicode="&#xb0;" horiz-adv-x="260" 
d="M203 700h5t8.5 -0.5t8 -1.5t3.5 -3v-44q0 -12 -0.5 -23t-3.5 -22q-7 -33 -29 -59q-11 -14 -24 -23.5t-28 -17.5q-20 -9 -41 -12.5t-42 -3.5h-5t-8.5 0.5t-8 1.5t-3.5 3v52v148q0 2 3.5 3t8 1.5t8.5 0.5h5h4h139zM177 619q2 11 1.5 20.5t-0.5 20.5v30h-93v-47v-138
q5 2 10 4.5t10 4.5q29 17 48 44.5t24 60.5z" />
    <glyph glyph-name="plusminus" unicode="&#xb1;" horiz-adv-x="428" 
d="M363 131q11 0 18 -7t7 -18t-7 -18t-18 -7h-300q-10 0 -17.5 7t-7.5 18t7.5 18t17.5 7h300zM363 350q11 0 18 -7t7 -18t-7 -18t-18 -7h-125v-125q0 -11 -7 -18t-18 -7q-10 0 -17.5 7t-7.5 18v125h-125q-10 0 -17.5 7t-7.5 18t7.5 18t17.5 7h125v125q0 11 7.5 18t17.5 7
q11 0 18 -7t7 -18v-125h125z" />
    <glyph glyph-name="trademark" unicode="&#x2122;" horiz-adv-x="672" 
d="M609 700h4.5h8t8 -1t3.5 -3v-50v-141q0 -2 -3.5 -3t-8 -1.5t-8 -0.5h-4.5q-2 0 -13 0.5t-11 4.5v49v132q-13 -4 -21 -9q-29 -14 -50 -40.5t-26 -58.5q-2 -10 -1.5 -19.5t0.5 -19.5v-34q0 -4 -11 -4.5t-13 -0.5h-4.5t-8 0.5t-8 1.5t-3.5 3v43q0 11 0.5 21t3.5 21
q7 26 25 50v49q-2 -1 -3 -1t-3 -1q-1 0 -3.5 -0.5t-0.5 -0.5q-2 0 -3 -0.5t-3 -0.5q-23 -8 -41 -20q-23 -16 -36.5 -39.5t-15.5 -50.5q-1 -9 -1 -18v-18v-34q0 -4 -11 -4.5t-13 -0.5h-4.5t-7.5 0.5t-7.5 1.5t-3.5 3q0 15 -0.5 30.5t0.5 30.5q1 27 12.5 52t32.5 42
q28 24 64 32t72 8h5h8t7.5 -1t3.5 -3v-17q8 4 13 6q19 8 39 11.5t41 3.5zM135 664q0 -10 -0.5 -19.5t0.5 -18.5q5 -34 22 -60q16 -24 45 -42q7 -4 13.5 -6.5t14.5 -4.5l1 -1h1q3 0 4 -1h4v-1h4h2h1h4.5t8 -0.5t8 -1.5t3.5 -3t-3.5 -3t-8 -1.5t-8 -0.5h-4.5q-24 0 -47 5
t-44 17q-28 16 -46 42.5t-22 58.5q-1 10 -1 19.5v19.5v29h-39h-13t-11 5q0 2 3.5 3t7.5 1h8h5h59h4h3h133h4.5h8t8 -1t3.5 -3t-3.5 -3t-8 -1.5t-8 -0.5h-4.5h-60h-52v-27z" />
    <glyph glyph-name="less" unicode="&#x3c;" horiz-adv-x="325" 
d="M205 380q-27 -20 -54 -39.5t-53 -39.5q23 -17 45.5 -33.5t45.5 -33.5q27 -20 54.5 -40.5t54.5 -40.5q3 -2 0.5 -4t-4.5 -2q-5 -2 -11.5 -3t-12.5 -1q-8 -1 -15 -0.5t-15 1.5q-5 1 -10 1.5t-9 3.5q-23 17 -46.5 34.5t-47.5 34.5q-27 20 -54.5 40.5t-54.5 40.5q-3 1 0 4
l93 69q28 20 55.5 40.5t54.5 40.5q4 2 9 3l10 2q15 1 30 0q13 0 24 -3q2 -1 4.5 -2.5t-0.5 -3.5z" />
    <glyph glyph-name="greater" unicode="&#x3e;" horiz-adv-x="335" 
d="M310 301q3 -3 0 -4q-24 -17 -47.5 -34.5t-46.5 -34.5q-28 -20 -55 -40.5t-55 -40.5q-4 -3 -9 -3.5t-9 -1.5q-8 -1 -15.5 -1.5t-15.5 0.5q-13 0 -24 4q-2 0 -4.5 2t0.5 4q23 17 46.5 34.5t47.5 34.5q26 20 53 39.5t54 39.5q-23 17 -45.5 33.5t-45.5 33.5q-28 20 -55 40.5
t-55 40.5q-3 2 -0.5 3.5t4.5 2.5q12 3 24 3q15 2 31 0q4 -1 9 -2t9 -3q23 -17 47 -34.5t47 -34.5q27 -20 54.5 -40.5t55.5 -40.5z" />
    <glyph glyph-name="asciicircum" unicode="^" horiz-adv-x="411" 
d="M394 491q2 -3 0 -4t-4 -3q-12 -3 -24 -3q-17 -2 -31 1q-6 0 -14 2l-4 2q-17 24 -34.5 47.5t-34.5 46.5q-21 27 -43 58l-30 -42q-20 -27 -40.5 -54.5t-40.5 -55.5q-5 -3 -10 -3q-3 -1 -9 -1q-13 -3 -30 -1q-14 0 -24 3q-7 3 -4 7l69 93q20 28 40.5 55.5t40.5 54.5
q4 2 10 4q2 0 4 0.5t4 0.5q5 1 10 1h10h14.5t14.5 -2q2 -1 5 -1.5t5 -2.5q17 -23 34.5 -46.5t34.5 -47.5q20 -27 40.5 -54.5t40.5 -54.5z" />
    <glyph glyph-name="quotedblright" unicode="&#x201d;" horiz-adv-x="262" 
d="M242 648q0 -15 -5.5 -33t-17 -34t-28.5 -27t-40 -11q-11 0 -13 1t-2 3t7 5t15 9t15 16t7 26q-12 3 -22 13q-14 14 -14 35q0 20 14 34q15 15 35 15q19 0 34 -15t15 -34v-3zM122 648q0 -15 -5.5 -33t-17 -34t-28.5 -27t-40 -11q-11 0 -13 1t-2 3t7 5t15 9t15 16t7 26
q-12 3 -22 13q-14 14 -14 35q0 20 14 34q15 15 35 15q19 0 34 -15t15 -34v-3z" />
    <glyph glyph-name="quotedblleft" unicode="&#x201c;" horiz-adv-x="279" 
d="M27 595q0 15 5.5 33t16.5 34t28.5 27t40.5 11q10 0 12.5 -1t2.5 -3t-7 -5.5t-15 -9.5t-15.5 -15.5t-7.5 -25.5q13 -5 22 -13q15 -15 15 -35q0 -19 -15 -34q-14 -15 -34 -15q-22 0 -35 15q-14 14 -14 34v3zM147 595q0 15 5.5 33t16.5 34t28.5 27t40.5 11q10 0 12.5 -1
t2.5 -3t-7 -5.5t-15 -9.5t-15.5 -15.5t-7.5 -25.5q13 -5 22 -13q15 -15 15 -35q0 -19 -15 -34q-14 -15 -34 -15q-22 0 -35 15q-14 14 -14 34v3z" />
    <glyph glyph-name="quoteright" unicode="&#x2019;" horiz-adv-x="143" 
d="M121 648q0 -15 -5.5 -33t-17 -34t-28.5 -27t-40 -11q-11 0 -13 1.5t-2 3.5t7 5t15 9t15 16t7 26q-13 3 -22 12q-14 14 -14 35q0 19 14 35q14 14 35 14q20 0 34 -14q15 -17 15 -35v-3z" />
    <glyph glyph-name="quoteleft" unicode="&#x2018;" horiz-adv-x="152" 
d="M20 595q0 15 5.5 33t16.5 34t28.5 27t40.5 11q10 0 12.5 -1t2.5 -3t-7 -5.5t-15 -9.5t-15.5 -15.5t-7.5 -25.5q13 -5 22 -13q15 -15 15 -35q0 -19 -15 -34q-14 -15 -34 -15q-22 0 -35 15q-14 14 -14 34v3z" />
    <glyph glyph-name="bullet" unicode="&#x2022;" horiz-adv-x="250" 
d="M202 300q0 -31 -21.5 -53t-53.5 -22q-31 0 -53 22t-22 53q0 32 22 53.5t53 21.5q32 0 53.5 -21.5t21.5 -53.5z" />
    <glyph glyph-name="afii61352" unicode="&#x2116;" horiz-adv-x="1185" 
d="M643 697q2 -1 8 -2t6 -5v-5v-92v-171v-192v-23v-54v-79v-65q0 -3 -6 -4.5t-8 -1.5q-8 -2 -17 -2.5t-17 -0.5q-9 0 -18 0.5t-17 2.5q-2 0 -8 1.5t-6 4.5v5v64v29v63v41v9.5t-1 9.5q-3 66 -23.5 128t-56.5 116q-1 1 -1 1.5t-1 1.5q-36 52 -84.5 93.5t-105.5 68.5
q-11 5 -22.5 10t-22.5 9q-6 2 -12.5 4t-12.5 4q-2 1 -5 1.5t-5 1.5h-3q-2 1 -3 1t-3 1q-7 2 -13.5 2.5t-12.5 2.5h-1v-83v-171v-192v-156v-65q0 -3 -6 -4.5t-8 -1.5q-8 -2 -17 -2.5t-18 -0.5q-8 0 -17 0.5t-17 2.5q-2 0 -8 1.5t-6 4.5v5v93v170v192v156v65q0 4 6 5t8 2
q16 3 34 3q40 0 79 -4t77 -14q66 -17 125 -48.5t107 -79.5q29 -29 50 -57v128v65q0 4 6 5t8 2q16 3 35 3q17 0 34 -3zM1094 16q2 0 8.5 -1.5t6.5 -5.5q0 -3 -6.5 -4.5t-8.5 -1.5q-8 -2 -17 -2.5t-17 -0.5h-2h-144h-126q-9 0 -17.5 0.5t-17.5 2.5q-2 0 -8 1.5t-6 4.5
q0 4 6 5.5t8 1.5q9 2 17.5 2.5t17.5 0.5h2h144h126q8 0 17 -0.5t17 -2.5zM1120 106q0 -3 -5 -4t-7 -2q-7 -2 -13.5 -2h-13.5h-119h-166h-16h-13.5t-13.5 2q-2 1 -6.5 2t-4.5 4v95v187v131v7q0 3 4.5 4t6.5 2q7 1 13.5 1.5t13.5 0.5q41 0 81 -6.5t77 -23.5q62 -28 105 -77
q44 -49 64 -111q13 -46 13 -98v-112zM1042 172q0 18 0.5 36t-0.5 36q-2 40 -15 77.5t-35 70.5q-35 53 -90 87q-7 4 -13.5 8t-14.5 7l-1 1q-1 0 -1.5 0.5t-2.5 0.5q-4 2 -7 3q-8 4 -15 6q-10 4 -15 5q-2 1 -2.5 1t-2.5 1q1 -1 -2.5 0t-4.5 1h-1v-82v-187v-131h81h142v59z" />
    <glyph glyph-name="bar" unicode="|" horiz-adv-x="185" 
d="M136 8q0 -3 -5 -4.5t-7 -1.5q-7 -2 -14 -2h-14h-14.5t-14.5 2q-1 0 -6 1.5t-5 4.5v4v93v172v193v157v65q0 3 5 4t6 1q15 3 29 3t28 -3q2 0 7 -1t5 -4v-5v-93v-171v-193v-157v-65v0z" />
    <glyph glyph-name="afii10017" unicode="&#x410;" horiz-adv-x="696" 
d="M620 698q2 -1 8.5 -2.5t6.5 -4.5v-51v-169v-181v-85v-51v-144q0 -3 -6.5 -4.5t-8.5 -2.5q-17 -3 -34 -3q-18 0 -34 3q-2 1 -8.5 2.5t-6.5 4.5v51v134h-2h-168h-182h-36v-41v-144q0 -3 -6.5 -4.5t-8.5 -2.5q-17 -3 -34 -3q-18 0 -34 3q-2 1 -8.5 2.5t-6.5 4.5v51v144
q0 63 16 124.5t48 116.5q32 57 77 103t101 78q57 34 124 52q79 21 164 21h5q15 1 34 -2zM537 214v42v168v182v71h-1q-7 -2 -13.5 -3t-12.5 -3q-2 0 -3.5 -0.5t-3.5 -0.5l-1 -1l-12 -3l-12 -4t-13 -4q-11 -4 -22 -8.5t-22 -9.5q-1 0 -1 -0.5t-1 -0.5q-57 -28 -105.5 -70
t-84.5 -95q-3 -5 -6 -9.5t-6 -9.5q-32 -54 -49.5 -115.5t-18.5 -125.5h2h168h182h36z" />
    <glyph glyph-name="afii10018" unicode="&#x411;" horiz-adv-x="687" 
d="M155 641v-135q62 -5 121.5 -20.5t113.5 -45.5q57 -32 103 -77t79 -101q34 -57 51.5 -120.5t17.5 -130.5q0 -3 -4 -4q-4 -2 -8 -2q-1 0 -2 -1q-17 -3 -34 -3h-51h-168h-182h-85q-19 0 -35 3q-2 1 -8 2.5t-6 4.5v51v168v182v85v51v144q0 3 6 4.5t8 2.5q8 2 17 2h18h50h168
h182h86h17t17 -2q2 -1 8 -2.5t6 -4.5q0 -4 -6 -5.5t-8 -1.5q-17 -3 -34 -3h-51h-168h-182h-37v-41zM192 476q-4 1 -10 3q-7 2 -13.5 2.5t-12.5 2.5h-1v-37v-168v-183v-75h2h168h182h37v8t-1 8q-3 66 -23.5 128t-57.5 117q0 1 -2 3q-36 52 -84 93.5t-106 69.5q-11 5 -22 9.5
t-23 8.5l-12 4l-12 4q-3 0 -7 2h-2z" />
    <glyph glyph-name="afii10019" unicode="&#x412;" 
d="M508 351q40 -42 68 -90q35 -57 52.5 -120.5t17.5 -130.5q0 -2 -4 -4q-6 -2 -8 -2h-1l-1 -1q-18 -3 -35 -3h-50h-169h-182h-85q-18 0 -34 3q-2 1 -8 2.5t-6 4.5v51v168v182v85v51v144q0 3 6 4.5t8 2.5q8 2 17 2h17h50h168h182h85h17.5t17.5 -2q2 -1 8 -2.5t6 -4.5
q0 -18 -1.5 -35.5t-3.5 -35.5q-11 -76 -44.5 -144.5t-87.5 -124.5zM160 681v-41v-135l24 -2t24 -3l12 -2l12 -2q49 -9 98 -27q31 -13 64 -30q15 -9 29.5 -18t28.5 -20q7 8 14 19q39 58 59.5 124.5t22.5 136.5h-2h-168h-182h-36zM549 20q-1 4 -1 8v8q-8 133 -81 245
q-1 1 -1 1.5t-1 1.5q-25 36 -56 66.5t-66 56.5q-1 0 -1 0.5t-1 0.5q-2 1 -5 4q-1 0 -1.5 0.5t-1.5 0.5q-2 2 -6 4q-2 2 -6 4q-1 1 -1.5 1t-1.5 1q-2 1 -2.5 1.5t-2.5 1.5q-1 1 -1.5 1t-1.5 1l-4 2l-4 2v1q-2 1 -4.5 2t-4.5 2q-1 1 -2 1q-2 2 -3.5 2.5t-3.5 1.5q-1 0 -1 0.5
t-1 0.5q-2 1 -3.5 2t-3.5 2q-5 2 -10 4.5t-10 4.5q-3 0 -5 2h-2l-4 2h-2l-4 2l-2 1q-1 0 -5 2h-1q-2 1 -5 1.5t-6 2.5h-1q-1 0 -2 0.5t-2 0.5t-2 1q-2 0 -3 0.5t-3 0.5q0 1 -1 1l-2 1h-4q-1 1 -3 1q-1 0 -1.5 0.5t-1.5 0.5q-2 0 -3 1h-3q-1 1 -4 1q-1 0 -2 1q-3 0 -4 1h-3
q-1 0 -1.5 0.5t-1.5 0.5h-3q-2 1 -4 1t-3 1h-1v-37v-168v-183v-75h2h168h182h37z" />
    <glyph glyph-name="afii10065" unicode="&#x430;" horiz-adv-x="532" 
d="M470 497q2 0 8 -1.5t6 -4.5v-55v-181v-108v-2v-135q0 -4 -6 -5t-8 -2q-17 -3 -34 -3q-18 0 -34 3q-2 1 -8 2t-6 5v2v126h-7h-181h-59v-128q0 -4 -6 -5t-8 -2q-17 -3 -34 -3q-18 0 -34 3q-2 1 -8 2t-6 5v2v135v17.5t1 16.5q6 65 36 123t78 101t111 68q40 15 81.5 21
t83.5 6q8 0 17 -0.5t17 -2.5zM388 157v45v181v91q-1 0 -1.5 -0.5t-1.5 -0.5t-2 -0.5t-2 -0.5q-5 -2 -9 -2.5t-8 -2.5q-17 -6 -32 -13q-41 -20 -75 -49.5t-60 -67.5q-26 -40 -40.5 -86t-15.5 -94h7h180h60z" />
    <glyph glyph-name="afii10066" unicode="&#x431;" horiz-adv-x="537" 
d="M154 481v-120q5 0 7 -1q69 -6 132 -34.5t111 -79.5q45 -48 69 -109t24 -127q0 -3 -3 -4q-2 -1 -5 -1.5t-5 -1.5h-1q-17 -3 -34 -3h-55h-181h-108q-16 0 -34 3q-2 1 -8 2t-6 5v55v181v107v2v136q0 3 6 4.5t8 1.5q9 2 17.5 2.5t16.5 0.5h56h180h108q8 0 17 -0.5t17 -2.5
q2 0 8 -1.5t6 -4.5q0 -4 -6 -5.5t-8 -1.5q-17 -3 -34 -3h-55h-181h-59zM177 330q-5 2 -9 3l-8 2q-4 2 -6 2v-39v-180v-99h7h180h60q-3 100 -58 182q-52 77 -134 116q-15 7 -32 13z" />
    <glyph glyph-name="afii10067" unicode="&#x432;" horiz-adv-x="532" 
d="M401 251q1 -2 4 -5q45 -48 68.5 -109t24.5 -127q0 -2 -4 -4q-2 -1 -4.5 -1.5t-4.5 -1.5h-1q-18 -3 -34 -3h-56h-180h-108q-18 0 -34 3q-2 1 -8 2t-6 5v55v181v107v2v136q0 3 6 4.5t8 1.5q8 2 17 2.5t17 0.5h55h180h108q8 0 17 -0.5t17 -2.5q2 0 8 -1.5t6 -4.5
q0 -68 -25 -130t-71 -110zM154 481v-120q6 -1 12 -1t11 -1q1 0 1.5 -0.5t1.5 -0.5q5 0 7 -1h1q25 -4 48 -10t46 -16q13 -5 25.5 -11t23.5 -14q1 0 2 -1q2 -1 2.5 -1.5t2.5 -1.5q1 -1 5 -3q55 82 58 182h-7h-180h-60zM401 19q-2 49 -16 95t-41 87q-37 53 -87 88l-1 1
q-1 1 -2 1.5t-2 1.5q-2 1 -2.5 1.5t-2.5 1.5q-1 0 -1 0.5t-1 0.5q-1 1 -2 1.5t-2 1.5q-1 0 -2 1q-2 1 -2.5 1.5t-2.5 1.5h-1q-2 2 -6 4l-6 3l-1 1l-6 3h-1q-2 2 -4 2q-5 3 -11 5.5t-11 4.5h-1q-2 0 -3 1h-1q-1 1 -2 1t-2 1q-6 2 -8 3h-1q-2 0 -3 1h-1q-2 0 -2.5 0.5
t-1.5 0.5q-4 2 -7 2v-39v-180v-99h7h181h59z" />
    <glyph glyph-name="afii10068" unicode="&#x433;" horiz-adv-x="524" 
d="M480 497q2 0 8 -1.5t6 -4.5q0 -4 -6 -5.5t-8 -1.5q-17 -3 -34 -3h-55h-180h-60v-40v-167v-180v-84q0 -4 -6 -5t-8 -2q-17 -3 -34 -3q-18 0 -34 3q-2 1 -8 2t-6 5v50v166v180v85q0 3 6 4.5t8 1.5q8 2 17 2.5t17 0.5h55h181h107q9 0 17.5 -0.5t16.5 -2.5z" />
    <glyph glyph-name="afii10069" unicode="&#x434;" horiz-adv-x="588" 
d="M519 497q2 0 8 -1.5t6 -4.5v-50v-167v-180v-84q0 -4 -6 -5t-8 -2q-17 -3 -34 -3h-55h-181h-108h-69q-18 0 -34 3q-2 1 -8 2t-6 5q0 3 6 4.5t8 2.5q8 2 17 2h17h21v4v87v36t2 35q6 65 35.5 123t77.5 101q50 44 112 68q39 15 81 21t84 6q8 0 17 -0.5t17 -2.5zM437 19v41
v166v180v68q-1 0 -2 -1h-1q-2 0 -2.5 -0.5t-1.5 -0.5q-5 -2 -9 -2.5t-9 -2.5q-8 -3 -15.5 -6t-15.5 -7q-41 -20 -75 -49.5t-60 -67.5q-57 -86 -57 -190v-128h7h181h60z" />
    <glyph glyph-name="afii10070" unicode="&#x435;" horiz-adv-x="532" 
d="M151 441v-78h7h180h108q17 0 34 -3q2 0 8 -1.5t6 -5.5q0 -3 -6 -4.5t-8 -2.5q-8 -2 -17 -2h-17h-55h-181h-59v-70v-180v-75h7h180h108h17t17 -2q2 -1 8 -2.5t6 -4.5q0 -4 -6 -5t-8 -2q-17 -3 -34 -3h-55h-181h-107q-18 0 -34 3q-2 1 -8.5 2t-6.5 5v50v166v180v85
q0 3 6.5 4.5t8.5 1.5q8 2 16.5 2.5t17.5 0.5h55h180h108q8 0 17 -0.5t17 -2.5q2 0 8 -1.5t6 -4.5q0 -4 -6 -5.5t-8 -1.5q-17 -3 -34 -3h-55h-181h-59v-40z" />
    <glyph glyph-name="afii10072" unicode="&#x436;" horiz-adv-x="863" 
d="M806 497q2 0 8 -1.5t6 -4.5v-2v-136q0 -3 -6 -4.5t-8 -2.5q-8 -2 -17 -2h-17h-7h-98h-98q45 -14 85.5 -38.5t72.5 -59.5q45 -48 69 -109t24 -127q0 -4 -6 -5.5t-8 -1.5q-17 -3 -34 -3q-18 0 -34 3q-2 0 -8 1.5t-6 5.5q-2 104 -58 191q-52 77 -135 116q-15 7 -30 12
q-5 2 -8.5 3t-8.5 3q-2 0 -2.5 0.5t-2.5 0.5l-2 1v-63v-180v-84q0 -4 -6 -5.5t-8 -1.5q-17 -3 -34 -3q-18 0 -34 3q-2 0 -8 1.5t-6 5.5v50v166v111q-2 -1 -3 -1t-2 -1q-5 -1 -8.5 -2t-8.5 -3q-17 -6 -32 -13q-82 -39 -134 -116q-58 -87 -58 -191q0 -4 -6 -5.5t-8 -1.5
q-17 -3 -34 -3q-18 0 -34 3q-2 0 -8 1.5t-6 5.5v17.5t2 17.5q6 64 36 122.5t78 101.5q50 44 111 67q6 2 11.5 4t10.5 4h-135h-63h-17t-17 2q-2 1 -8 2.5t-6 4.5v2v136q0 3 6 4.5t8 1.5q8 2 17 2.5t17 0.5t17 -0.5t17 -2.5q2 0 8 -1.5t6 -4.5v-2v-126h57h171h15v43v85
q0 3 6 4.5t8 1.5q8 2 17 2.5t17 0.5q9 0 17.5 -0.5t16.5 -2.5q2 0 8 -1.5t6 -4.5v-50v-78h78h153h16v128q0 3 6 4.5t8 1.5q8 2 16.5 2.5t17.5 0.5q8 0 17 -0.5t17 -2.5z" />
    <glyph glyph-name="afii10073" unicode="&#x437;" horiz-adv-x="496" 
d="M400 418q-29 -17 -61 -29t-65 -21q-5 -2 -11 -2.5t-11 -2.5h62h107q17 0 34 -3q2 0 8.5 -1.5t6.5 -5.5q0 -8 -0.5 -16.5t-1.5 -16.5q-7 -65 -36.5 -123t-77.5 -102q-51 -45 -111 -67q-40 -15 -81.5 -21.5t-83.5 -6.5q-18 0 -34 3q-2 1 -8 2t-6 5t6 5t8 2q16 3 34 3h3h4h4
q3 0 5 1q5 0 8 1h2q5 1 9 1.5t9 2.5q1 0 3.5 0.5t3.5 0.5q1 1 2 1t2 1q8 1 17 5q18 7 31 13q42 20 75.5 49.5t59.5 67.5q27 40 41 86t16 94h-7h-180h-108q-8 0 -17 0.5t-17 2.5q-2 0 -8 1.5t-6 4.5q0 4 6 5.5t8 1.5q16 3 34 3h10q10 0 15 1h8q5 1 8.5 1.5t8.5 0.5q4 1 7.5 1
t7.5 1q1 0 2 1q2 0 4 0.5t4 0.5q8 2 15.5 3t15.5 3q6 2 9 2q0 1 1 1q8 2 14 4q7 2 13.5 4t13.5 4q12 5 24 9.5t23 10.5q14 6 27.5 14t26.5 17q8 6 16.5 13.5t14.5 16.5q2 3 4 9h-5h-180h-108q-18 0 -34 3q-2 0 -8 1.5t-6 5.5q0 3 6 4.5t8 1.5q8 2 17 2.5t17 0.5h55h181h107
q9 0 17.5 -0.5t16.5 -2.5q2 0 8.5 -1.5t6.5 -4.5q-1 -11 -7 -19.5t-13 -15.5q-11 -11 -23.5 -20.5t-26.5 -17.5z" />
    <glyph glyph-name="afii10074" unicode="&#x438;" horiz-adv-x="534" 
d="M487 347v-73v-180v-84q0 -4 -6 -5.5t-8 -1.5q-17 -3 -34 -3q-18 0 -34 3q-2 0 -8 1.5t-6 5.5v50v53q-5 -5 -9.5 -9t-9.5 -9q-49 -44 -111 -67q-40 -15 -81.5 -21.5t-83.5 -6.5q-18 0 -34 3q-2 0 -8 1.5t-6 5.5v50v166v180v85q0 3 6 4.5t8 1.5q8 2 16.5 2.5t17.5 0.5
q8 0 17 -0.5t17 -2.5q2 0 8 -1.5t6 -4.5v-50v-167v-180v-68q1 1 3 1q1 1 4 1q5 2 8.5 3t8.5 3q17 6 32 13q82 39 134 116q29 43 43 91.5t14 99.5v52v85q0 3 6 4.5t8 1.5q8 2 17 2.5t17 0.5t17 -0.5t17 -2.5q2 0 8 -1.5t6 -4.5v-13v-37v-50v-44z" />
    <glyph glyph-name="afii10098" unicode="&#x491;" horiz-adv-x="559" 
d="M493 542q2 0 8 -1.5t6 -5.5v-44q0 -3 -6 -4.5t-8 -1.5q-8 -2 -17 -2.5t-17 -0.5h-55h-181h-60v-41v-167v-180v-84q0 -4 -6 -5.5t-8 -1.5q-17 -3 -34 -3q-18 0 -34 3q-2 0 -8 1.5t-6 5.5v50v167v180v84q0 4 6 5.5t8 1.5q16 3 34 3h55h181h60v34q0 4 6 5.5t8 1.5q16 3 34 3
q17 0 34 -3z" />
    <glyph glyph-name="afii10103" unicode="&#x456;" horiz-adv-x="184" 
d="M128 353q2 0 8 -1.5t6 -4.5v-50v-179v-108q0 -4 -6 -5.5t-8 -1.5q-17 -3 -34 -3q-18 0 -34 3q-2 0 -8 1.5t-6 5.5v49v179v109q0 3 6 4.5t8 1.5q8 2 17 2.5t17 0.5t17 -0.5t17 -2.5zM94 403q-20 0 -34 13.5t-14 33.5t14 34t34 14t34 -14t14 -34t-14 -33.5t-34 -13.5z" />
    <glyph glyph-name="afii10101" unicode="&#x454;" horiz-adv-x="538" 
d="M146 367v-6h7h181h107q17 0 34 -3q2 -1 8.5 -2t6.5 -5t-6.5 -5t-8.5 -2q-17 -3 -34 -3h-55h-180h-59q0 -34 7 -62q7 -32 19.5 -61t29.5 -55q26 -38 60 -67.5t75 -49.5q8 -3 15.5 -6.5t15.5 -5.5q5 -2 8.5 -3t8.5 -3q2 0 3 -0.5t2 -0.5q2 -1 3.5 -1t3.5 -1l18 -3l2 -1
q5 0 7 -1h6h3q1 -1 4 -1h3q9 0 17.5 -0.5t16.5 -2.5q2 0 8.5 -1.5t6.5 -4.5q0 -4 -6.5 -5.5t-8.5 -1.5q-17 -3 -34 -3q-19 0 -38 1t-38 4q-37 6 -72 17t-68 30q-54 30 -96 80q-38 47 -58 103t-21 116v2v137q0 4 6 5.5t8 1.5q16 3 34 3h55h181h107q17 0 34 -3q2 0 8.5 -1.5
t6.5 -5.5q0 -3 -6.5 -4.5t-8.5 -1.5q-8 -2 -16.5 -2.5t-17.5 -0.5h-55h-180h-60v-114z" />
    <glyph glyph-name="afii10104" unicode="&#x457;" horiz-adv-x="440" 
d="M77 498q20 0 34 -14t14 -34t-14 -34t-34 -14t-34 14t-14 34t14 34t34 14zM356 498q20 0 34 -14t14 -34t-14 -34t-34 -14t-34 14t-14 34t14 34t34 14zM251 497q2 0 8 -1.5t6 -5.5v-51v-166v-179v-84q0 -4 -6 -5.5t-8 -1.5q-18 -3 -34 -3q-18 0 -34 3q-2 0 -8 1.5t-6 5.5
v51v166v180v83q0 4 6 5.5t8 1.5q16 3 34 3q16 0 34 -3z" />
    <glyph glyph-name="guillemotleft" unicode="&#xab;" horiz-adv-x="524" 
d="M319 10q3 -2 0.5 -3.5t-4.5 -2.5q-5 -2 -11.5 -2.5t-12.5 -1.5h-15.5t-15.5 1q-4 1 -9 1.5t-9 3.5q-23 17 -46.5 34.5t-47.5 34.5q-27 20 -54.5 40.5t-55.5 40.5q-2 2 0 4q24 17 47.5 34.5t46.5 34.5q28 20 55 40.5t55 40.5q4 3 9 3.5t9 1.5q8 1 15.5 1h15.5
q6 -1 12.5 -1.5t11.5 -2.5q2 -1 4.5 -2.5t-0.5 -3.5q-23 -17 -46.5 -34.5t-47.5 -34.5q-26 -20 -53 -39.5t-54 -39.5q23 -17 45.5 -33.5t45.5 -33.5q28 -20 55.5 -40.5t54.5 -40.5zM482 10q3 -2 0.5 -3.5t-4.5 -2.5q-6 -2 -12 -2.5t-12 -1.5h-15.5t-15.5 1q-4 1 -9 1.5
t-9 3.5q-23 17 -47 34.5t-47 34.5q-28 20 -55 40.5t-55 40.5q-4 2 0 4q24 17 47.5 34.5t46.5 34.5q28 20 55 40.5t55 40.5q4 3 9 3.5t9 1.5q8 1 15.5 1h15.5q6 -1 12 -1.5t12 -2.5q2 -1 4.5 -2.5t-0.5 -3.5q-23 -17 -47 -34.5t-47 -34.5q-26 -20 -53 -39.5t-54 -39.5
q23 -17 45.5 -33.5t45.5 -33.5q28 -20 55 -40.5t55 -40.5z" />
    <glyph glyph-name="guillemotright" unicode="&#xbb;" horiz-adv-x="503" 
d="M477 160q4 -2 0 -4q-23 -17 -46.5 -34.5t-47.5 -34.5q-27 -20 -54.5 -40.5t-54.5 -40.5q-4 -3 -9 -3.5t-10 -1.5q-8 -1 -15.5 -1h-15.5q-6 1 -12 1.5t-12 2.5q-2 1 -4.5 2.5t0.5 3.5q24 17 47.5 34.5t46.5 34.5q27 20 53.5 39.5t53.5 39.5q-23 17 -45.5 33.5t-45.5 33.5
q-27 20 -54.5 40.5t-55.5 40.5q-3 2 -0.5 3.5t4.5 2.5q6 2 12 2.5t12 1.5h15.5t15.5 -1q5 -1 10 -1.5t9 -3.5l93 -69q28 -20 55 -40.5t55 -40.5zM221 87q-28 -20 -55.5 -40.5t-54.5 -40.5q-4 -3 -9 -3.5t-10 -1.5q-8 -1 -15 -1h-15q-6 1 -12.5 1.5t-11.5 2.5l-5 2.5t1 3.5
l93 69q27 20 54 39.5t53 39.5q-23 17 -45.5 33.5t-45.5 33.5q-27 20 -54.5 40.5t-54.5 40.5q-4 2 -1 3.5l5 2.5q5 2 11.5 2.5t12.5 1.5h15t15 -1q5 -1 10 -1.5t9 -3.5l93 -69q28 -20 55.5 -40.5t54.5 -40.5q4 -2 0 -4z" />
    <glyph glyph-name="afii10075" unicode="&#x439;" horiz-adv-x="552" 
d="M498 347v-73v-180v-84q0 -4 -6 -5.5t-8 -1.5q-17 -3 -34 -3q-18 0 -34 3q-2 0 -8 1.5t-6 5.5v50v53q-5 -5 -9.5 -9t-9.5 -9q-50 -44 -111 -67q-40 -15 -81.5 -21.5t-83.5 -6.5q-18 0 -34 3q-2 0 -8.5 1.5t-6.5 5.5v50v166v180v85q0 3 6.5 4.5t8.5 1.5q8 2 16.5 2.5
t17.5 0.5q8 0 16.5 -0.5t17.5 -2.5q2 0 8 -1.5t6 -4.5v-50v-167v-180v-68q1 1 3 1q1 1 4 1q5 2 8.5 3t8.5 3q18 7 31 13q83 39 135 116q29 43 43 91.5t14 99.5v52v85q0 3 6 4.5t8 1.5q8 2 17 2.5t17 0.5t17 -0.5t17 -2.5q2 0 8 -1.5t6 -4.5v-13v-37v-50v-44zM225 484
q-2 0 -8 1.5t-6 5.5q0 3 6 4.5t8 1.5q8 2 16.5 2.5t17.5 0.5h36q8 0 17 -0.5t17 -2.5q2 0 8 -1.5t6 -4.5q0 -4 -6 -5.5t-8 -1.5q-17 -3 -34 -3h-36q-18 0 -34 3z" />
    <glyph glyph-name="afii10076" unicode="&#x43a;" horiz-adv-x="529" 
d="M480 497q2 0 8 -1.5t6 -4.5v-2v-136q0 -3 -6 -4.5t-8 -2.5q-8 -2 -17 -2h-17h-55h-147q45 -14 85 -38.5t72 -59.5q45 -48 69 -109t24 -127q0 -4 -6 -5.5t-8 -1.5q-17 -3 -34 -3q-18 0 -34 3q-2 0 -8 1.5t-6 5.5q0 104 -58 191q-26 37 -59.5 66.5t-75.5 49.5q-7 4 -14.5 7
t-15.5 5q-5 2 -8.5 3t-8.5 3q-2 0 -2.5 0.5t-2.5 0.5l-2 1v-39v-24v-156v-24v-84q0 -4 -6 -5.5t-8 -1.5q-17 -3 -34 -3q-16 0 -34 3q-2 0 -8 1.5t-6 5.5v50v5v161v19v106q0 1 -0.5 1t-0.5 1t0.5 1.5t0.5 1.5v50v85q0 3 6 4.5t8 1.5q9 2 17.5 2.5t16.5 0.5q9 0 17.5 -0.5
t16.5 -2.5q2 0 8 -1.5t6 -4.5v-50v-78h6h181h60v128q0 3 6 4.5t8 1.5q8 2 16.5 2.5t17.5 0.5q8 0 17 -0.5t17 -2.5z" />
    <glyph glyph-name="afii10077" unicode="&#x43b;" horiz-adv-x="553" 
d="M479 497q2 0 8.5 -1.5t6.5 -4.5v-50v-167v-180v-84q0 -4 -6.5 -5.5t-8.5 -1.5q-17 -3 -34 -3q-16 0 -34 3q-2 0 -8 1.5t-6 5.5v50v166v180v68q-1 0 -1.5 -0.5t-1.5 -0.5t-1.5 -0.5t-2.5 -0.5q-4 -2 -8 -3t-9 -3q-8 -2 -15.5 -5.5t-15.5 -6.5q-83 -41 -135 -117
q-29 -42 -43 -90.5t-14 -99.5v-137q0 -4 -6 -5.5t-8 -1.5q-17 -3 -34 -3q-18 0 -34 3q-2 0 -8 1.5t-6 5.5v13v87v36t2 35q6 65 35.5 123t77.5 101q49 43 111 68q40 15 81.5 21t83.5 6q9 0 17.5 -0.5t16.5 -2.5z" />
    <glyph glyph-name="afii10078" unicode="&#x43c;" horiz-adv-x="815" 
d="M747 497q2 0 8 -1.5t6 -4.5v-50v-167v-180v-84q0 -4 -6 -5t-8 -2q-17 -3 -34 -3q-18 0 -34 3q-2 1 -8 2t-6 5v50v166v180v68q-1 0 -1.5 -0.5t-1.5 -0.5q-3 0 -4 -1q-5 -2 -9 -2.5t-8 -2.5q-17 -6 -32 -13q-75 -37 -125 -103q0 -1 -2 -3q-2 -3 -8 -11q-28 -42 -42 -90.5
t-14 -99.5v-137q0 -4 -6 -5t-8 -2q-17 -3 -34 -3q-18 0 -34 3q-2 1 -8 2t-6 5v13v87q0 18 -0.5 36t1.5 36q5 46 21.5 89t43.5 81v2v120q-1 0 -1.5 -0.5t-1.5 -0.5q-2 0 -4 -1q-5 -2 -8.5 -2.5t-8.5 -2.5q-17 -6 -32 -13q-82 -41 -134 -117q-29 -42 -43 -90.5t-14 -99.5v-137
q0 -4 -6 -5t-8 -2q-17 -3 -34 -3q-18 0 -34 3q-2 1 -8 2t-6 5v13v87q0 18 -0.5 36t1.5 36q7 64 36.5 122t77.5 101t111 68q40 15 81.5 21t83.5 6q9 0 17.5 -0.5t16.5 -2.5q2 0 8 -1.5t6 -4.5v-3v-47q16 10 31.5 17.5t32.5 14.5q40 15 81.5 21t83.5 6q8 0 17 -0.5t17 -2.5z
" />
    <glyph glyph-name="afii10079" unicode="&#x43d;" horiz-adv-x="556" 
d="M483 497q2 0 8 -1.5t6 -4.5v-50v-167v-180v-84q0 -4 -6 -5t-8 -2q-17 -3 -34 -3q-18 0 -34 3q-2 1 -8 2t-6 5v50v166v111q-4 -2 -7 -2q-4 -2 -8 -3t-9 -3q-8 -2 -15 -5.5t-15 -6.5q-41 -20 -74.5 -49.5t-59.5 -66.5q-28 -43 -42.5 -91.5t-14.5 -99.5q0 -1 -3 -4
q-3 -1 -6 -1.5t-5 -1.5q-18 -3 -34 -3q-18 0 -34 3h-1h-1q-2 1 -4.5 1.5t-4.5 1.5q-3 1 -3 4v50v166v180v85q0 3 6 4.5t8 1.5q8 2 16.5 2.5t17.5 0.5q8 0 16.5 -0.5t17.5 -2.5q2 0 8 -1.5t6 -4.5v-50v-167v-24l9 9t9 8q48 45 111 68q28 11 57 17.5t59 8.5v45v85q0 3 6 4.5
t8 1.5q8 2 17 2.5t17 0.5t17 -0.5t17 -2.5z" />
    <glyph glyph-name="afii10080" unicode="&#x43e;" horiz-adv-x="532" 
d="M497 391q0 -18 0.5 -36t-1.5 -36q-7 -65 -36.5 -123t-77.5 -101q-51 -45 -111 -67q-40 -15 -81.5 -21.5t-83.5 -6.5q-18 0 -34 3q-2 0 -8 1.5t-6 5.5v50v166v180v84q0 4 6 5.5t8 1.5q16 3 34 3h55h180h108q17 0 34 -3q2 0 8 -1.5t6 -5.5v-13v-86zM344 163q29 43 43 91
t14 99v128h-7h-181h-59v-41v-166v-180v-68q1 1 3 1q1 0 1.5 0.5t2.5 0.5q5 2 8.5 3t8.5 3q17 6 32 13q82 39 134 116z" />
    <glyph glyph-name="afii10081" unicode="&#x43f;" horiz-adv-x="553" 
d="M486 497q2 0 8 -1.5t6 -5.5v-50v-166v-180v-84q0 -4 -6 -5.5t-8 -1.5q-17 -3 -34 -3q-18 0 -34 3q-2 0 -8 1.5t-6 5.5v50v166v180v75h-7h-181h-60v-41v-166v-180v-84q0 -4 -6 -5.5t-8 -1.5q-17 -3 -34 -3q-18 0 -34 3q-2 0 -8 1.5t-6 5.5v50v166v180v84q0 4 6 5.5t8 1.5
q16 3 34 3h55h181h108q17 0 34 -3z" />
    <glyph glyph-name="afii10082" unicode="&#x440;" horiz-adv-x="534" 
d="M495 494q4 -2 4 -4q0 -8 -0.5 -17t-1.5 -18q-7 -64 -36.5 -122t-78.5 -102q-24 -22 -52 -38.5t-59 -28.5q-54 -20 -116 -25v-129q0 -4 -6 -5.5t-8 -1.5q-17 -3 -34 -3q-18 0 -34 3q-2 0 -8 1.5t-6 5.5v2v135v55v181v107q0 4 6 5.5t8 1.5q16 3 34 3h55h181h107q17 0 34 -3
h1h1q4 0 9 -3zM345 299q27 41 41 87t16 95h-7h-180h-60v-46v-180v-92q2 1 4 1q1 1 4 1q4 2 8 3t9 3q8 3 15.5 6t15.5 6q82 41 134 116z" />
    <glyph glyph-name="afii10083" unicode="&#x441;" horiz-adv-x="514" 
d="M195 337q-28 -43 -42.5 -91.5t-14.5 -99.5v-127h7h181h108q16 0 34 -3q2 0 8 -1.5t6 -5.5q0 -3 -6 -4.5t-8 -2.5q-9 -2 -17.5 -2h-16.5h-56h-180h-108h-17t-17 2q-2 1 -8 2.5t-6 4.5v13v87v36t2 36q6 64 35.5 122t77.5 102q51 45 112 67q39 15 81 21t84 7q16 0 34 -3
q2 -1 8 -2t6 -5t-6 -5t-8 -2q-18 -3 -34 -3h-4h-4h-4q-3 0 -4 -1q-6 0 -8 -1h-2q-5 -1 -9 -1.5t-9 -2.5q-2 0 -4 -0.5t-3 -0.5q-2 -1 -2.5 -1t-2.5 -1l-8 -2t-9 -3q-18 -7 -31 -13q-41 -20 -75 -49.5t-60 -66.5z" />
    <glyph glyph-name="afii10084" unicode="&#x442;" horiz-adv-x="637" 
d="M261 352q0 -57 11 -114.5t43 -106.5q36 -54 96 -83q20 -9 40 -15q8 -2 11 -3h1q1 0 1.5 -0.5t1.5 -0.5q6 -2 12 -2.5t11 -2.5q4 0 6 -1q2 0 4.5 -0.5t4.5 -0.5q4 -1 12 -1q2 -1 4 -1q6 0 11.5 -0.5t10.5 -0.5h1h1h12q17 0 34 -3q2 0 8 -1.5t6 -5.5q0 -3 -6 -4.5t-8 -2.5
q-8 -2 -17 -2h-17q-45 0 -89 4.5t-88 15.5q-24 7 -47 17t-44 24t-38 31.5t-31 37.5q-32 49 -43.5 107t-11.5 115v127h-8h-84q-18 0 -34 3q-2 1 -8 2.5t-6 4.5q0 4 6 5t8 2q16 3 34 3h53h168h179h84q17 0 34 -3q2 -1 8 -2t6 -5q0 -3 -6 -4.5t-8 -2.5q-17 -3 -34 -3h-53h-168
h-74v-127z" />
    <glyph glyph-name="afii10085" unicode="&#x443;" horiz-adv-x="498" 
d="M471 390v-36t-2 -36q-9 -91 -63 -168l-2 -2q-11 -15 -22.5 -28t-25.5 -25q-25 -23 -53 -39.5t-59 -28.5q-39 -15 -81 -21t-84 -6h-17t-17 2q-2 1 -8 2.5t-6 4.5q0 4 6 5.5t8 1.5q16 3 34 3h3h5h3q2 0 3 0.5t2 0.5q2 0 4 0.5t4 0.5h2q5 1 9 1.5t9 2.5q5 0 7 2q3 0 4 1
q5 1 9 2t9 3q8 3 15.5 6t15.5 7q73 36 124 102q-51 12 -96.5 36.5t-80.5 62.5q-48 49 -73.5 111.5t-25.5 130.5q0 4 6 5.5t8 1.5q16 3 34 3q17 0 34 -3q2 0 8 -1.5t6 -5.5q0 -51 15 -99.5t43 -91.5q26 -38 60 -67.5t76 -49.5l6 -3q24 40 36 84t12 91v137q0 4 6 5t8 2
q16 3 34 3q17 0 34 -3q2 -1 8 -2t6 -5v-13v-87z" />
    <glyph glyph-name="afii10086" unicode="&#x444;" horiz-adv-x="840" 
d="M716 382q45 -48 69 -109t24 -127q0 -4 -6 -5t-8 -2q-17 -3 -34 -3h-8h-99h-172h-15v-42v-85q0 -3 -6 -4.5t-8 -2.5q-8 -2 -16.5 -2h-17.5h-17t-17 2q-2 1 -8 2.5t-6 4.5v48v79h-78h-153h-63q-18 0 -34 3q-2 1 -8 2t-6 5q0 8 0.5 16t1.5 16q6 65 35.5 123.5t77.5 101.5
t111 68q39 15 80.5 21t83.5 6q11 0 21.5 -0.5t21.5 -1.5q41 -3 79 -12.5t74 -26.5q58 -29 101 -75zM371 156v66v180v70q-1 -1 -2 -1h-1q-2 -1 -4 -1q-5 -2 -9 -3t-8 -3q-8 -3 -15.5 -6t-15.5 -6q-83 -41 -133 -116q-55 -82 -58 -180h60h171h15zM698 156h15q-3 97 -57 180
q-52 77 -134 116q-8 4 -15.5 7t-15.5 6q-5 2 -9 2.5t-8 2.5q-3 0 -7 2v-33v-165v-118h78h153z" />
    <glyph glyph-name="afii10087" unicode="&#x445;" horiz-adv-x="512" 
d="M356 466l-16 -6t-16 -7q-5 -2 -8.5 -4.5t-8.5 -4.5q26 -15 48 -34t42 -42q38 -48 58.5 -104.5t20.5 -117.5v-137q0 -3 -6 -4.5t-8 -2.5q-8 -2 -17 -2h-17h-17t-17 2q-2 1 -8 2.5t-6 4.5v124q0 23 -1.5 44.5t-6.5 43.5q-13 60 -49 116q-14 20 -30.5 38.5t-36.5 34.5
q-38 -32 -67 -73q-28 -43 -42 -91.5t-14 -99.5v-137q0 -3 -6 -4.5t-8 -2.5q-9 -2 -17.5 -2h-16.5h-17.5t-16.5 2q-2 1 -8.5 2.5t-6.5 4.5v13v87v36t2 36q6 64 35.5 122t78.5 102q23 22 53 39q-4 2 -8 4.5t-9 4.5q-8 4 -15.5 7t-15.5 6q-5 2 -9 3l-8 2q-2 1 -3 1t-2 1
q-2 0 -3.5 0.5t-3.5 0.5q-5 2 -9 2.5t-9 1.5h-2q-2 1 -8 1q-1 1 -5 1h-3h-4h-3q-18 0 -34 3q-2 1 -8.5 2t-6.5 5t6.5 5t8.5 2q16 3 34 3q38 0 76 -6q50 -8 95 -25q2 1 3.5 1.5t3.5 1.5q39 15 81 21t84 7q17 0 34 -3q2 -1 8 -2t6 -5t-6 -5t-8 -2q-17 -3 -34 -3h-3h-5h-3
q-3 0 -5 -1q-5 0 -8 -1h-2q-5 -1 -9 -1.5t-9 -2.5q-1 0 -3.5 -0.5t-3.5 -0.5q-1 -1 -2 -1t-2 -1q-8 -1 -17 -5z" />
    <glyph glyph-name="afii10088" unicode="&#x446;" horiz-adv-x="561" 
d="M529 16q2 0 8 -1.5t6 -5.5q0 -3 -6 -4.5t-8 -2.5q-8 -2 -16.5 -2h-17.5h-68q-20 0 -39 1t-38 4q-37 5 -72 16t-67 30q-57 33 -97 81q-38 47 -58.5 103.5t-20.5 117.5v137q0 4 6 5t8 2q16 3 34 3q17 0 34 -3q2 -1 8 -2t6 -5v-124q0 -22 1.5 -44t6.5 -44q13 -60 49 -116
q26 -37 60 -66.5t75 -49.5q8 -4 15.5 -7t15.5 -6q5 -2 9 -3l8 -2q2 -1 3 -1t2 -1h2v33v167v180v84q0 4 6.5 5t8.5 2q16 3 34 3q16 0 34 -3q2 -1 8 -2t6 -5v-50v-166v-180v-75h20q17 0 34 -3z" />
    <glyph glyph-name="afii10089" unicode="&#x447;" horiz-adv-x="509" 
d="M453 497q2 -1 8 -2t6 -5v-51v-166v-180v-84q0 -3 -6 -4.5t-8 -2.5q-8 -2 -16.5 -2h-17.5h-17t-17 2q-2 1 -8 2.5t-6 4.5v51v79q-4 0 -6 1q-69 6 -131.5 34.5t-110.5 79.5q-45 48 -69 109t-24 127q0 4 6 5t8 2q16 3 34 3q17 0 34 -3q2 -1 8 -2t6 -5q0 -104 58 -191
q52 -77 134 -116q13 -6 31 -13q4 -2 8 -2.5t9 -2.5q1 -1 5 -1v-1v63v180v84q0 4 6 5t8 2q16 3 34 3q17 0 34 -3z" />
    <glyph glyph-name="afii10090" unicode="&#x448;" horiz-adv-x="804" 
d="M742 497q2 -1 8 -2t6 -5v-51v-166v-180v-84q0 -3 -6 -4.5t-8 -2.5q-8 -2 -17 -2h-17h-21h-171h-71q-23 0 -45.5 0.5t-44.5 4.5q-38 5 -73 16t-67 30q-56 31 -96 81q-39 47 -59.5 103.5t-20.5 117.5v137q0 4 6 5t8 2q18 3 34 3q17 0 34 -3q2 -1 8.5 -2t6.5 -5v-124
q0 -22 1 -44t6 -44q13 -61 49 -115q53 -77 135 -117q6 -2 11.5 -4.5t11.5 -4.5v23v165v180v85q0 4 6 5t8 2q16 3 34 3q16 0 34 -3q2 -1 8 -2t6 -5v-48v-165v-180v-78h139h75v41v166v180v84q0 4 6 5t8 2q16 3 34 3q17 0 34 -3z" />
    <glyph glyph-name="afii10091" unicode="&#x449;" horiz-adv-x="858" 
d="M817 16q2 0 8 -1.5t6 -5.5q0 -3 -6 -4.5t-8 -2.5q-8 -2 -17 -2h-17h-69h-21h-171h-71q-23 0 -45 0.5t-45 4.5q-37 5 -72 16t-68 30q-27 16 -51.5 36t-44.5 45q-38 47 -58.5 103.5t-20.5 117.5v137q0 4 6 5t8 2q16 3 34 3q17 0 34 -3q2 -1 8 -2t6 -5v-124q0 -22 1.5 -44
t6.5 -44q14 -64 49 -115q53 -77 135 -117q5 -2 11 -4.5t11 -4.5v23v165v180v85q0 4 6 5t8 2q16 3 34 3q17 0 34 -3q2 -1 8 -2t6 -5v-48v-165v-180v-78h139h75v41v166v180v84q0 4 6 5t8 2q16 3 34 3q17 0 34 -3q2 -1 8 -2t6 -5v-51v-166v-180v-74h21q17 0 34 -3z" />
    <glyph glyph-name="afii10092" unicode="&#x44a;" horiz-adv-x="560" 
d="M190 360q69 -6 132 -34.5t111 -79.5q45 -48 68.5 -109t24.5 -127q0 -2 -4 -4q-2 -2 -4.5 -2t-4.5 -1h-1h-1q-17 -3 -34 -3h-55h-180h-108q-18 0 -34 3q-2 0 -8 1.5t-6 5.5v55v180v108v2v126h-17q-8 0 -17 0.5t-17 2.5q-2 0 -8 1.5t-6 4.5q0 4 6 5.5t8 1.5q16 3 34 3h65
q17 0 34 -3q2 0 8 -1.5t6 -5.5v-1v-128q2 0 4 -0.5t4 -0.5zM429 19q-2 49 -16 95t-41 87q-26 37 -60 66.5t-75 49.5q-8 4 -15.5 7t-15.5 6q-5 2 -9 3t-9 2q-1 1 -2.5 1t-3.5 1v-39v-181v-98h7h181h59z" />
    <glyph glyph-name="afii10093" unicode="&#x44b;" horiz-adv-x="681" 
d="M618 497q2 0 8 -1.5t6 -5.5v-50v-166v-180v-84q0 -4 -6 -5.5t-8 -1.5q-17 -3 -34 -3q-18 0 -34 3q-2 0 -8 1.5t-6 5.5v50v166v180v84q0 4 6 5.5t8 1.5q16 3 34 3q17 0 34 -3zM300 321q29 -14 54 -33t47 -42q45 -48 69 -109t24 -127q0 -3 -3 -4q-2 -2 -4.5 -2t-4.5 -1h-1
h-1q-17 -3 -34 -3h-55h-180h-108q-18 0 -34 3q-2 0 -8 1.5t-6 5.5v55v180v108v2v135q0 4 6 5.5t8 1.5q16 3 34 3q17 0 34 -3q2 0 8 -1.5t6 -5.5v-2v-127q39 -4 76.5 -13.5t72.5 -26.5zM398 19q-3 98 -57 181q-26 38 -60 67.5t-75 49.5q-8 4 -15.5 7t-15.5 6q-5 2 -9 2.5
t-9 2.5q-2 0 -6 2v-39v-181v-98h7h180h60z" />
    <glyph glyph-name="afii10094" unicode="&#x44c;" horiz-adv-x="524" 
d="M152 360q69 -6 132 -34.5t111 -79.5q45 -49 68.5 -110t24.5 -127q0 -2 -4 -4q-6 -2 -9 -2h-1v-1q-9 -2 -17.5 -2h-16.5h-56h-180h-108h-17t-17 2q-2 1 -8 2.5t-6 4.5v55v181v108v2v135q0 4 6 5t8 2q16 3 34 3q17 0 34 -3q2 -1 8 -2t6 -5v-2v-128h8zM391 19q-2 48 -16 94
t-41 87q-26 38 -60 67.5t-75 49.5q-8 3 -15.5 6.5t-15.5 5.5l-18 6q-1 0 -2.5 0.5t-3.5 0.5v-38v-181v-98h7h181h59z" />
    <glyph glyph-name="afii10095" unicode="&#x44d;" horiz-adv-x="516" 
d="M474 390v-36t-2 -36q-6 -64 -35.5 -122t-77.5 -101q-25 -23 -53 -39.5t-59 -28.5q-39 -15 -81 -21t-84 -6h-16.5t-17.5 2q-2 1 -8 2.5t-6 4.5q0 4 6 5.5t8 1.5q18 3 34 3h4h4h4q1 0 2 0.5t2 0.5q2 0 4 0.5t4 0.5h2q5 1 9 1.5t9 2.5q5 0 7 2q3 0 5 1l8 2t9 3q18 7 31 13
q41 20 75 49.5t60 67.5q26 40 40.5 85t16.5 93h-7h-181h-108q-8 0 -16.5 0.5t-17.5 2.5q-2 0 -8 1.5t-6 4.5q0 4 6 5.5t8 1.5q18 3 34 3h56h180h60v120h-7h-181h-108q-16 0 -34 3q-2 1 -8 2t-6 5t6 5t8 2q18 3 34 3h56h180h108q17 0 34 -3q2 -1 8 -2t6 -5v-13v-87z" />
    <glyph glyph-name="afii10096" unicode="&#x44e;" horiz-adv-x="716" 
d="M679 390v-36t-2 -36q-6 -64 -35.5 -122t-77.5 -101q-25 -23 -53 -39.5t-59 -28.5q-39 -15 -81 -21t-84 -6h-17t-17 2q-2 1 -8 2.5t-6 4.5v50v167v117h-87v-70v-180v-84q0 -3 -6 -4.5t-8 -2.5q-8 -2 -17 -2h-17h-17t-17 2q-2 1 -8 2.5t-6 4.5v51v166v180v84q0 4 6 5t8 2
q16 3 34 3q17 0 34 -3q2 -1 8 -2t6 -5v-51v-77h87v44v84q0 4 6 5t8 2q16 3 34 3h55h181h108q17 0 34 -3q2 -1 8 -2t6 -5v-13v-87zM526 163q57 86 57 190v127h-7h-181h-60v-40v-166v-180v-68q3 0 3 1q3 0 4 1q5 1 9 2t9 3q8 3 15.5 6t15.5 7q41 20 75 49.5t60 67.5z" />
    <glyph glyph-name="afii10097" unicode="&#x44f;" horiz-adv-x="525" 
d="M478 350v-53v-180v-108q0 -3 -6 -4.5t-8 -2.5q-8 -2 -16.5 -2h-17.5h-16.5t-17.5 2q-2 1 -8 2.5t-6 4.5v53v180v92q-1 -1 -3 -1q-1 0 -1.5 -0.5t-2.5 -0.5q-5 -2 -8.5 -3t-8.5 -3q-8 -2 -16 -5.5t-16 -6.5q-82 -41 -134 -117q-57 -86 -57 -188q0 -3 -6 -4.5t-8 -2.5
q-8 -2 -17 -2h-17h-17t-17 2q-2 1 -8 2.5t-6 4.5v16t1 16q6 59 31 112.5t66 95.5q-47 48 -72.5 110.5t-25.5 130.5q0 4 6 5t8 2q16 3 34 3h55h181h107q17 0 34 -3q2 -1 8 -2t6 -5v-2v-137v-1zM135 480q2 -48 16.5 -94t41.5 -87q0 -1 0.5 -1t0.5 -1q29 19 62 33
q30 13 62 19.5t64 9.5v121h-7h-180h-60z" />
    <glyph glyph-name="afii10071" unicode="&#x451;" horiz-adv-x="547" 
d="M212 344h-60q1 -17 2.5 -32.5t5.5 -30.5q13 -63 49 -117q54 -77 137 -118q8 -3 15.5 -6.5t15.5 -5.5q5 -2 8.5 -3t8.5 -3q2 0 2.5 -0.5t2.5 -0.5q4 -2 7 -2q5 -1 9 -2t9 -2h2q2 0 4 -0.5t4 -0.5h5q1 -1 3 -1h5h3q17 0 34 -3q2 0 8 -1.5t6 -5.5q0 -3 -6 -4.5t-8 -1.5
q-8 -2 -17 -2.5t-17 -0.5q-20 0 -39 1t-38 4q-77 11 -141 47q-57 33 -97 81q-38 47 -58.5 103t-21.5 117v1v2v138q0 4 6 5t8 2q18 3 35 3h55h182h109q17 0 34 -3q2 -1 8 -2t6 -5t-6 -5t-8 -2q-17 -3 -34 -3h-56h-182h-60v-115v-6h7h182h109q17 0 34 -3q2 0 8 -1.5t6 -5.5
q0 -3 -6 -4.5t-8 -1.5q-8 -2 -17 -2.5t-17 -0.5h-56h-182zM212 549q-20 0 -34 14t-14 34t14 34.5t34 14.5t34 -14.5t14 -34.5t-14 -34t-34 -14zM344 549q-20 0 -34 14t-14 34t14 34.5t34 14.5t34 -14.5t14 -34.5t-14 -34t-34 -14z" />
    <glyph glyph-name="A" unicode="A" horiz-adv-x="689" 
d="M625 698q2 -1 8 -2.5t6 -4.5v-51v-168v-182v-85v-51v-144q0 -3 -6 -4.5t-8 -2.5q-17 -3 -34 -3t-35 3q-2 1 -8 2.5t-6 4.5v51v134h-2h-168h-182h-37v-41v-144q0 -3 -6 -4.5t-8 -2.5q-17 -3 -34 -3t-35 3q-2 1 -8 2.5t-6 4.5v51v144q-1 63 15 124.5t48 116.5
q32 57 77.5 103t101.5 78q57 34 123 52q81 21 165 21h5h17t17 -2zM542 214v41v168v182v72h-2q-6 -2 -12.5 -3t-13.5 -3q-2 0 -3 -0.5t-3 -0.5q-1 0 -1 -0.5t-1 -0.5q-3 -1 -11 -3q-11 -3 -25 -8q-24 -8 -44 -18q-1 0 -2 -1q-58 -28 -106 -70t-84 -95q-3 -5 -6 -9.5t-6 -9.5
q-33 -54 -50.5 -115.5t-18.5 -125.5h2h169h182h36z" />
    <glyph glyph-name="B" unicode="B" horiz-adv-x="687" 
d="M503 351q40 -42 68 -90q35 -57 52.5 -121t17.5 -130q0 -2 -4 -4q-2 -2 -5.5 -2t-4.5 -1q-18 -3 -35 -3h-50h-169h-182h-85q-18 0 -34 3q-2 1 -8 2.5t-6 4.5v51v168v182v85v51v144q0 3 6 4.5t8 2.5q8 2 17 2h17h50h168h182h85h17.5t17.5 -2q2 -1 8 -2.5t6 -4.5
q0 -18 -1.5 -35.5t-3.5 -35.5q-11 -76 -44.5 -144.5t-87.5 -124.5zM155 681v-41v-135q11 -1 22.5 -2t23.5 -3q6 -1 12.5 -2t13.5 -2q26 -5 50.5 -11.5t47.5 -16.5q17 -6 32.5 -13.5t31.5 -15.5q15 -9 29.5 -18t28.5 -20q4 5 7.5 9.5t6.5 9.5q39 58 59.5 124.5t22.5 136.5h-2
h-168h-182h-36zM544 20q-1 4 -1 8v8q-8 133 -81 245q-1 1 -1 1.5t-1 1.5q-25 36 -56 66.5t-66 56.5q-1 0 -1 0.5t-1 0.5q-2 1 -2.5 1.5t-2.5 1.5l-3 3q-4 2 -5 3q-2 1 -3.5 2t-3.5 2q-1 1 -1.5 1t-1.5 1q-2 1 -2.5 1.5t-2.5 1.5q-1 1 -1.5 1t-1.5 1l-4 2l-4 2v1q-3 1 -9 5
h-2q-2 2 -3.5 2.5t-3.5 1.5q-1 0 -1 0.5t-1 0.5q-2 1 -3.5 1.5t-3.5 2.5q-7 3 -13 5.5t-13 5.5q-2 1 -3 1t-2 1h-2q-2 2 -4 2q-1 0 -2 1q-2 0 -6 2q-8 2 -12 4q-2 0 -2.5 0.5t-2.5 0.5q0 1 -1 1q-2 0 -6 2q-3 0 -4 1h-3q0 1 -2 1h-1q-1 0 -1.5 0.5t-1.5 0.5q-2 0 -3 1h-3
q-1 1 -4 1q-1 0 -1 0.5t-1 0.5h-4q-1 1 -3 1q-1 0 -1.5 0.5t-1.5 0.5h-3q-2 1 -4 1t-3 1h-1v-37v-168v-183v-75h2h168h182h37z" />
    <glyph glyph-name="C" unicode="C" horiz-adv-x="672" 
d="M142 154v-134h2h168h182h86q17 0 34 -3q2 0 8 -1.5t6 -5.5q0 -3 -6 -4.5t-8 -2.5q-17 -3 -34 -3h-51h-168h-182h-85q-19 0 -35 3q-2 1 -8 2.5t-6 4.5v45v152q0 63 16 124t47 115q32 57 77.5 103t101.5 78q57 34 123 52q42 11 84 16t86 5h17t17 -2q2 -1 8 -2.5t6 -4.5
q0 -4 -6 -5.5t-8 -1.5q-17 -3 -34 -3h-10h-6q-2 -1 -5 -1h-5t-3.5 -0.5t-3.5 -0.5q-5 0 -13 -2h-5q-7 -2 -13 -3t-13 -3q-2 0 -3 -0.5t-3 -0.5q-1 0 -1 -0.5t-1 -0.5q-3 -1 -5.5 -1.5t-5.5 -1.5q-11 -3 -25 -8q-24 -8 -44 -18q-1 0 -2 -1q-58 -28 -106 -69.5t-84 -95.5
q-22 -32 -37.5 -67t-26.5 -73q-17 -63 -17 -126v-54z" />
    <glyph glyph-name="D" unicode="D" horiz-adv-x="672" 
d="M487 555q46 -46 79.5 -102t50.5 -119t17 -126v-54v-144q0 -3 -6.5 -4.5t-8.5 -2.5q-17 -3 -34 -3h-51h-168h-182h-85q-18 0 -34 3q-2 1 -8.5 2.5t-6.5 4.5v5v93v170v192v156v65q0 3 6.5 4.5t8.5 2.5q8 2 16.5 2h17.5q39 0 78 -4t77 -14q66 -17 125 -48t108 -79zM536 20
v59v92q0 15 0.5 30t-0.5 30q-3 66 -23.5 127.5t-57.5 116.5q0 1 -0.5 1t-0.5 1q-36 53 -84.5 94t-106.5 69q-11 5 -22 9.5t-23 9.5l-12 4t-13 4q-2 1 -4.5 1t-5.5 1q-1 1 -2 1q-2 1 -3.5 1t-3.5 1q-6 1 -12.5 2t-13.5 3v-84v-170v-192v-156v-55h1h169h182h36z" />
    <glyph glyph-name="E" unicode="E" horiz-adv-x="682" 
d="M152 593v-87h2h168h182h85q18 0 35 -3q2 0 8 -1.5t6 -5.5q0 -3 -6 -4.5t-8 -2.5q-8 -2 -17 -2h-18h-50h-168h-182h-37v-64v-192v-156v-55h2h168h182h85q18 0 35 -3q2 0 8 -1.5t6 -5.5q0 -3 -6 -4.5t-8 -2.5q-17 -3 -35 -3h-50h-168h-182h-86q-18 0 -34 3q-2 1 -8 2.5
t-6 4.5v5v93v170v192v156v65q0 3 6 4.5t8 2.5q8 2 17 2h17h51h168h182h85h18t17 -2q2 -1 8 -2.5t6 -4.5q0 -4 -6 -5.5t-8 -1.5q-17 -3 -35 -3h-50h-168h-182h-37v-88z" />
    <glyph glyph-name="F" unicode="F" horiz-adv-x="669" 
d="M147 593v-87h3h168h182h85q17 0 34 -3q2 0 8 -1.5t6 -5.5q0 -3 -6 -4.5t-8 -2.5q-8 -2 -17 -2h-17h-51h-169h-181h-37v-64v-192v-156v-65q0 -3 -6 -4.5t-8 -2.5q-17 -3 -34 -3t-35 3q-2 1 -8 2.5t-6 4.5v5v93v170v192v26v1v129v65q0 3 6 4.5t8 2.5q9 2 17.5 2h17.5h50
h169h182h85h17t17 -2q2 -1 8.5 -2.5t6.5 -4.5q0 -4 -6.5 -5.5t-8.5 -1.5q-17 -3 -34 -3h-51h-168h-182h-37v-88z" />
    <glyph glyph-name="G" unicode="G" horiz-adv-x="678" 
d="M146 154v-134h2h168h182h37v41v134h-3h-144q-18 0 -34 3q-2 1 -8 2.5t-6 4.5q0 4 6 5.5t8 1.5q16 3 34 3h52h143q17 0 35 -3q2 0 8 -1.5t6 -5.5v-51v-144q0 -3 -6 -4.5t-8 -2.5q-18 -3 -35 -3h-50h-168h-183h-85q-18 0 -34 3q-2 1 -8 2.5t-6 4.5v45v152q0 63 15.5 124
t47.5 115q32 57 77 103t102 78q29 17 60 30t63 22q42 11 84 16t85 5h17.5t17.5 -2q2 -1 8 -2.5t6 -4.5q0 -4 -6 -5.5t-8 -1.5q-18 -3 -35 -3h-9h-7q-2 -1 -5 -1h-5t-3 -0.5t-3 -0.5q-5 0 -13 -2h-5q-7 -2 -13.5 -3t-12.5 -3q-2 0 -3.5 -0.5t-3.5 -0.5l-1 -1q-8 -2 -11 -3
q-7 -2 -13 -4l-12 -4q-23 -8 -45 -18l-2 -1q-57 -28 -105.5 -69.5t-83.5 -95.5q-44 -64 -64 -140q-9 -31 -13 -62.5t-4 -63.5v-54z" />
    <glyph glyph-name="H" unicode="H" horiz-adv-x="678" 
d="M616 698q2 -1 8 -2.5t6 -4.5v-5v-93v-170v-192v-156v-65q0 -3 -6 -4.5t-8 -2.5q-17 -3 -34 -3t-35 3q-2 1 -8 2.5t-6 4.5v5v93v170v192v12h-1q-7 -1 -13 -2t-12 -3q-2 0 -6 -2h-2q-3 -1 -11 -3q-10 -3 -23 -8q-12 -4 -23 -8.5t-22 -9.5l-2 -1q-57 -28 -105.5 -69.5
t-83.5 -94.5l-6 -10l-6 -10q-35 -57 -52.5 -121t-17.5 -130q0 -3 -3 -4q-3 -2 -6.5 -2t-4.5 -1q-17 -3 -34 -3t-35 3q-1 1 -4.5 1t-6.5 2q-3 1 -3 4v5v93v170v192v156v61q-3 1 -3 4t6 4.5t8 2.5q8 2 17 2h18h1h2h17t17 -2q2 -1 8 -2.5t6 -4.5v-5v-93v-170v-120
q59 79 144 129q59 36 122 52q29 8 59.5 13t60.5 7v122v65q0 3 6 4.5t8 2.5q9 2 17.5 2h17.5h17t17 -2z" />
    <glyph glyph-name="I" unicode="I" horiz-adv-x="222" 
d="M144 528q2 0 8.5 -1.5t6.5 -4.5v-74v-177v-179v-82q0 -4 -6.5 -5.5t-8.5 -1.5q-17 -3 -34 -3q-18 0 -34 3q-2 0 -8.5 1.5t-6.5 5.5v74v176v180v82q0 3 6.5 4.5t8.5 1.5q8 2 17 2.5t17 0.5t17 -0.5t17 -2.5zM110 593q-23 0 -38.5 15.5t-15.5 37.5q0 23 15.5 38.5
t38.5 15.5t38.5 -15.5t15.5 -38.5q0 -22 -15.5 -37.5t-38.5 -15.5z" />
    <glyph glyph-name="J" unicode="J" horiz-adv-x="529" 
d="M459 558q2 0 8.5 -1.5t6.5 -5.5q0 -32 -0.5 -64t-2.5 -64q-5 -65 -20.5 -127.5t-48.5 -119.5q-23 -41 -56 -75t-75 -57q-45 -24 -93.5 -34t-98.5 -10q-17 0 -35 3q-2 0 -8 1.5t-6 5.5q0 3 6 4.5t8 2.5q9 2 17.5 2h17.5h1q1 0 1.5 0.5t1.5 0.5h2h2q2 0 4 0.5t4 0.5l15 3
q2 0 3 0.5t3 0.5q2 1 4 1q4 2 7.5 2.5t8.5 2.5q8 3 14.5 6t14.5 6q38 19 70.5 48t56.5 64q26 38 42 80.5t26 87.5q8 37 11.5 74.5t4.5 75.5q1 20 0.5 39t-0.5 39q0 4 6.5 5.5t8.5 1.5q16 3 34 3q17 0 34 -3zM98 21h-1q5 1 4 1t-3 -1zM422 593q-22 0 -37.5 15.5t-15.5 37.5
q0 23 15.5 38.5t37.5 15.5q23 0 38.5 -15.5t15.5 -38.5q0 -22 -15.5 -37.5t-38.5 -15.5z" />
    <glyph glyph-name="K" unicode="K" horiz-adv-x="700" 
d="M630 698q2 -1 8 -2.5t6 -4.5v-51v-144q0 -3 -6 -4.5t-8 -2.5q-8 -2 -17 -2h-17h-52h-168h-104q32 -9 61.5 -20.5t58.5 -27.5q57 -32 103 -77t80 -101q34 -57 51.5 -121t17.5 -130q0 -3 -6 -4.5t-8 -2.5q-17 -3 -34 -3q-19 0 -35 3q-2 1 -8 2.5t-6 4.5v13.5t-1 12.5
q-3 66 -24 128t-57 117q-1 1 -1 1.5t-1 1.5q-36 52 -84 93.5t-106 69.5q-11 5 -22 9.5t-23 8.5l-12 4l-12 4q-2 0 -3.5 0.5t-3.5 0.5q0 1 -2 1q-6 2 -9 2q-7 2 -13 3t-13 2q0 1 -1 1v-37v-23v-145v-47v-136v-20v-65q0 -3 -6 -4.5t-8 -2.5q-17 -3 -34 -3q-18 0 -34 3
q-2 1 -8.5 2.5t-6.5 4.5v5v46v47v121v49v133v59v24q-1 0 -1 2t1 3v127v65q0 3 6.5 4.5t8.5 2.5q8 2 16.5 2h17.5h17t17 -2q2 -1 8 -2.5t6 -4.5v-5v-93v-87h1h169h181h37v41v144q0 3 6 4.5t8 2.5q8 2 17 2h18h17t17 -2z" />
    <glyph glyph-name="L" unicode="L" horiz-adv-x="542" 
d="M485 17q2 0 8 -1.5t6 -5.5q0 -3 -6 -4.5t-8 -2.5q-17 -3 -34 -3q-33 1 -66 5t-65 14q-42 13 -79.5 36.5t-66.5 56.5q-38 42 -62 93.5t-37 107.5q-17 72 -18 147q-1 17 -1 34.5v35.5v145q0 4 6 5.5t8 1.5q18 3 35 3t34 -3q2 0 8 -1.5t6 -5.5v-98q0 -48 0.5 -96t6.5 -96
q8 -61 25.5 -119.5t52.5 -109.5q24 -36 56.5 -65t71.5 -48l14 -6t15 -6q7 -1 16 -5h2q2 -1 3.5 -1t3.5 -1q4 -1 7 -1.5t7 -1.5h2q5 0 7 -1h1h4h1h2q17 0 34 -3z" />
    <glyph glyph-name="M" unicode="M" horiz-adv-x="1087" 
d="M891 555q46 -46 79 -102t50 -119q9 -31 13 -62.5t4 -63.5v-54v-144q0 -3 -6 -4.5t-8 -2.5q-17 -3 -34 -3t-35 3q-2 1 -8 2.5t-6 4.5v69v92q0 15 0.5 30t-0.5 30q-8 132 -81 244l-2 2q-36 53 -84.5 94t-105.5 69q-11 5 -22.5 9.5t-22.5 9.5q-11 3 -25 8q-2 1 -5 1t-5 1
q-1 1 -3 1q-2 1 -3 1t-3 1q-7 1 -13 2t-13 3h-1v-40v-143q26 -36 46 -76t32 -84q17 -63 17 -126v-54v-144q0 -3 -6.5 -4.5t-8.5 -2.5q-17 -3 -34 -3q-18 0 -34 3q-2 1 -8.5 2.5t-6.5 4.5v69v92q0 15 0.5 30t-0.5 30q-3 66 -23.5 127.5t-57.5 116.5q0 1 -0.5 1t-0.5 1
q-2 4 -5 7t-5 7q-2 0 -2 2q-71 95 -179 147q-11 5 -22.5 9.5t-22.5 9.5l-12 4t-13 4q-2 1 -4.5 1t-5.5 1q-1 1 -2 1q-2 1 -3.5 1t-3.5 1q-7 1 -13 2t-13 3h-1v-84v-170v-192v-156v-65q0 -3 -6 -4.5t-8 -2.5q-17 -3 -34 -3t-35 3q-2 1 -8 2.5t-6 4.5v5v93v170v192v156v65
q0 3 6 4.5t8 2.5q9 2 17.5 2h17.5q39 0 78 -4t77 -14q104 -26 188 -89v98q0 3 6 4.5t8 2.5q9 2 17.5 2h17.5q39 0 78 -4t77 -14q66 -17 125 -48t108 -79z" />
    <glyph glyph-name="N" unicode="N" horiz-adv-x="708" 
d="M634 698q2 -1 8.5 -2.5t6.5 -4.5v-5v-93v-170v-192v-23v-54v-79v-65q0 -3 -6.5 -4.5t-8.5 -2.5q-17 -3 -34 -3q-18 0 -34 3q-2 1 -8.5 2.5t-6.5 4.5v5v64v29v63v41v19q-3 66 -23.5 127.5t-57.5 116.5q0 1 -0.5 1t-0.5 1q-36 53 -84.5 94t-106.5 69q-11 5 -22 9.5t-23 9.5
l-12 4t-13 4q-2 1 -4.5 1t-5.5 1q-1 1 -2 1q-2 1 -3.5 1t-3.5 1q-7 1 -13 2t-13 3h-1v-84v-170v-192v-156v-65q0 -3 -6 -4.5t-8 -2.5q-17 -3 -34 -3t-35 3q-2 1 -8 2.5t-6 4.5v5v93v170v192v156v65q0 3 6 4.5t8 2.5q9 2 17.5 2h17.5q39 0 78 -4t77 -14q66 -17 125 -48
t108 -79q25 -25 49 -57v128v65q0 3 6.5 4.5t8.5 2.5q8 2 17 2h17h17t17 -2z" />
    <glyph glyph-name="O" unicode="O" horiz-adv-x="705" 
d="M639 697q2 0 8 -1.5t6 -5.5v-45v-152q0 -63 -15.5 -123.5t-47.5 -115.5q-32 -56 -77 -102t-102 -78q-59 -36 -123 -52q-81 -22 -169 -22q-17 0 -35 3q-2 1 -8 2t-6 5v4v93v171v191v157v64q0 4 6 5.5t8 1.5q18 3 35 3h50h168h182h86q17 0 34 -3zM556 547v133h-2h-168h-182
h-37v-87v-171v-191v-156v-51h2q7 2 13.5 2.5t12.5 2.5q4 2 7 2h1q8 2 11 4q7 2 13 4l12 4q22 7 45 18l2 1q57 28 105.5 69.5t83.5 94.5q22 32 38 67t26 73q17 63 17 127v54z" />
    <glyph glyph-name="P" unicode="P" horiz-adv-x="695" 
d="M639 694q4 -2 4 -4q0 -63 -16 -125t-48 -117q-32 -57 -77 -103t-101 -78q-57 -32 -118 -49t-126 -22v-42v-144q0 -4 -6 -5t-8 -2q-17 -3 -34 -3t-35 3q-2 1 -8 2t-6 5v50v144v51v168v182v85q0 4 6 5.5t8 1.5q18 3 35 3h50h168h182h86q17 0 34 -3q2 0 4 -1q2 0 6 -2z
M477 439q32 55 49.5 116.5t19.5 124.5h-2h-168h-182h-37v-40v-168v-182v-72h2q7 2 13 2.5t13 2.5q2 1 3 1t3 1q3 0 4 1q3 0 9 2t12.5 4t12.5 4q11 5 22 9t22 9q1 1 2 1q57 29 105.5 70.5t84.5 94.5q3 5 6 9.5t6 9.5z" />
    <glyph glyph-name="Q" unicode="Q" horiz-adv-x="697" 
d="M629 697q2 0 8 -1.5t6 -5.5v-45v-152q0 -63 -15.5 -123.5t-47.5 -115.5q-22 -37 -51 -73q16 -9 29.5 -21.5t24.5 -26.5q43 -54 43 -123q0 -4 -6 -5t-8 -2q-17 -3 -34 -3q-19 0 -35 3q-2 1 -8 2t-6 5q0 59 -32 108q-6 9 -13 16q-37 -34 -83 -60q-59 -36 -123 -52
q-81 -22 -169 -22q-17 0 -35 3q-2 1 -8 2t-6 5v4v93v171v191v157v64q0 4 6 5.5t8 1.5q18 3 35 3h50h168h182h86q17 0 34 -3zM546 547v133h-2h-168h-182h-37v-87v-171v-191v-156v-51h2q7 2 13.5 2.5t12.5 2.5q4 2 7 2h1q8 2 11 4q7 2 13 4l12 4q22 7 45 18l2 1q87 42 153 117
q-11 6 -27 9.5t-31 6t-25.5 5t-10.5 5.5q0 4 6 5.5t8 1.5q8 2 17 2.5t17 0.5q35 0 70 -6q3 5 6 8.5t6 8.5q22 32 38 67t26 73q17 63 17 127v54z" />
    <glyph glyph-name="R" unicode="R" horiz-adv-x="704" 
d="M649 690q0 -18 -1.5 -36.5t-3.5 -36.5q-12 -76 -46 -144.5t-88 -124.5q39 -38 69 -88q70 -116 70 -250q0 -4 -6 -5t-8 -2q-17 -3 -34 -3q-19 0 -35 3q-2 1 -8 2t-6 5v11.5t-1 11.5q-3 66 -23.5 128t-56.5 116l-2 2q-36 53 -84.5 94.5t-105.5 68.5q-11 5 -22.5 9.5
t-22.5 9.5q-11 3 -25 8q-2 1 -5 1t-5 1q-1 1 -3 1q-2 1 -3 1t-3 1q-7 2 -13 2.5t-13 2.5h-1v-34v-167v-183v-85q0 -4 -6 -5t-8 -2q-17 -3 -34 -3t-35 3q-2 1 -8 2t-6 5v48v167v182v86v1v53v143q0 4 6 5.5t8 1.5q18 3 35 3h50h168h182h86q17 0 34 -3q2 0 8 -1.5t6 -5.5z
M163 680v-42v-136q18 -1 36 -3t35 -5q60 -11 116 -35t105 -61q4 5 7.5 10.5t7.5 11.5q39 58 59.5 124.5t22.5 135.5h-2h-168h-182h-37z" />
    <glyph glyph-name="S" unicode="S" horiz-adv-x="653" 
d="M595 357q2 0 8 -1.5t6 -5.5q0 -40 -12 -78.5t-33 -73.5q-28 -45 -66.5 -78.5t-85.5 -56.5q-72 -36 -151 -49.5t-159 -13.5q-18 0 -34 3q-2 1 -8.5 2t-6.5 5t6.5 5t8.5 2q16 3 34 3h16h2h8q5 1 9.5 1h9.5v1h7q5 1 9 1t9 1q2 1 8 1q1 0 2 1q8 1 15 2t14 3q10 2 16 4
q1 0 2.5 0.5t3.5 0.5q1 0 2 1q8 2 14.5 4t14.5 4q23 9 49 20q45 21 82.5 52t65.5 73q1 1 1.5 2t1.5 2q21 33 33.5 70.5t14.5 75.5h-139h-185h-88q-17 0 -35 3q-2 1 -8 2.5t-6 4.5q0 37 11 71.5t30 65.5q28 48 68 84t88 62q72 38 151 52.5t159 14.5q18 0 35 -3q2 0 8 -1.5
t6 -5.5q0 -3 -6 -4.5t-8 -2.5q-8 -2 -17 -2h-18q-8 0 -13 -1h-3h-8q-4 0 -7.5 -0.5t-7.5 -0.5h-1q-2 0 -3.5 -0.5t-3.5 -0.5q-5 0 -8.5 -0.5t-8.5 -1.5q-2 0 -3.5 -0.5t-3.5 -0.5q-8 -2 -15.5 -3t-15.5 -3l-15 -3l-1 -1h-1q-2 0 -6 -2q-8 -2 -14.5 -4t-13.5 -4
q-13 -5 -25 -9.5t-23 -10.5q-48 -23 -89 -56t-70 -77q-21 -32 -34.5 -68t-15.5 -74h140h184h89q17 0 34 -3z" />
    <glyph glyph-name="T" unicode="T" horiz-adv-x="861" 
d="M333 583v-89.5t5 -89.5q6 -59 23 -115.5t49 -106.5q26 -38 61.5 -68t77.5 -50q13 -6 25.5 -11t26.5 -9q10 -4 23 -7h1q2 -1 3 -1t3 -1q8 -2 12 -2q6 -2 12.5 -3t12.5 -2q2 -1 6 -1q3 -1 5.5 -1t5.5 -1l27 -3h1h2q3 0 6.5 -0.5t6.5 -0.5q6 0 12 -0.5t11 -0.5h7h14
q17 0 34 -3q2 -1 8 -2t6 -5t-6 -5t-8 -2q-17 -3 -34 -3h-13.5t-13.5 1q-62 2 -123.5 9.5t-119.5 28.5q-47 17 -89 43.5t-74 64.5q-37 43 -58.5 95t-32.5 107q-7 35 -9.5 71t-2.5 72v52v137h-87h-64q-8 0 -17 0.5t-17 2.5q-2 0 -8.5 1.5t-6.5 5.5q0 3 6.5 4.5t8.5 1.5
q8 2 17 2.5t17 0.5h6h97h172h191h156h65q8 0 17 -0.5t17 -2.5q2 0 8 -1.5t6 -4.5q0 -4 -6 -5.5t-8 -1.5q-8 -2 -17 -2.5t-17 -0.5h-6h-97h-172h-164v-98zM676 26q5 -1 3.5 -0.5t-3.5 0.5z" />
    <glyph glyph-name="U" unicode="U" horiz-adv-x="806" 
d="M744 495q0 -57 -0.5 -112.5t-6.5 -112.5q-5 -47 -17 -92.5t-41 -83.5q-32 -43 -80.5 -62t-99.5 -26q-43 -5 -86 -5.5t-86 3.5q-29 3 -59 9.5t-58 18.5q-20 10 -38.5 23t-33.5 30q-14 17 -24.5 36t-18.5 39q-17 51 -22 103.5t-7 105.5q-1 45 -1 89v89v144q0 3 6.5 4.5
t8.5 1.5q8 2 16.5 2.5t17.5 0.5q8 0 17 -0.5t17 -2.5q2 0 8.5 -1.5t6.5 -4.5v-28v-163v-107t5 -107q4 -46 14 -92.5t36 -86.5q29 -42 76 -65l16 -6l16 -6q2 0 2.5 -0.5t2.5 -0.5q4 -2 8 -2q5 -1 9.5 -2t9.5 -2h1q4 0 7 -1q2 0 5 -0.5t6 -0.5h1q5 0 8 -1h12h10h7h6.5t7.5 1h4
q4 1 7.5 1t7.5 1h4q1 0 1 1l12 2l12 2q1 1 3 1q2 1 3 1t3 1q6 1 11 4q5 2 9.5 3.5t9.5 3.5q47 23 75 65q17 27 26 53q18 51 22.5 103.5t6.5 105.5q2 45 1.5 89t-0.5 89v144q0 3 6 4.5t8 1.5q9 2 17.5 2.5t17.5 0.5q8 0 17 -0.5t17 -2.5q2 0 8 -1.5t6 -4.5v-39v-157z" />
    <glyph glyph-name="V" unicode="V" horiz-adv-x="707" 
d="M636 697q2 0 8 -1.5t6 -5.5v-45v-152q0 -63 -15.5 -123.5t-47.5 -115.5q-32 -56 -77 -102t-102 -78q-59 -36 -123 -52q-81 -22 -169 -22q-17 0 -35 3q-2 1 -8 2t-6 5v4v93v171v191v157v64q0 4 6 5.5t8 1.5q18 3 35 3t34 -3q2 0 8 -1.5t6 -5.5v-4v-93v-171v-191v-156v-51
h2q7 2 13.5 2.5t12.5 2.5q4 2 7 2h1q8 2 11 4q7 2 13 4l12 4q22 7 45 18l2 1q57 28 105.5 69.5t83.5 94.5q22 32 38 67t26 73q17 63 17 127v54v143q0 4 6 5.5t8 1.5q16 3 35 3q17 0 34 -3z" />
    <glyph glyph-name="W" unicode="W" horiz-adv-x="1096" 
d="M1029 697q2 0 8.5 -1.5t6.5 -5.5v-45v-152q0 -63 -16 -123.5t-48 -115.5q-32 -56 -77 -102t-101 -78q-29 -17 -60 -30.5t-63 -21.5q-82 -22 -170 -22q-18 0 -34 3q-2 1 -8 2t-6 5v54v43q-24 -18 -51 -33q-59 -36 -123 -52q-81 -22 -169 -22q-17 0 -35 3q-2 1 -8 2t-6 5v4
v93v171v191v157v64q0 4 6 5.5t8 1.5q18 3 35 3t34 -3q2 0 8 -1.5t6 -5.5v-4v-93v-171v-191v-156v-51h2q7 2 13.5 2.5t12.5 2.5q4 2 7 2h1q8 2 11 4q7 2 13 4l12 4q22 7 45 18l2 1q106 52 176 145q0 1 2 3q6 7 11 16q22 32 38 67t26 73q17 63 17 127v54v143q0 4 6 5.5t8 1.5
q16 3 35 3q17 0 34 -3q2 0 8 -1.5t6 -5.5v-45v-152q0 -63 -15.5 -123.5t-47.5 -115.5q-8 -12 -15.5 -24t-15.5 -23v-54v-129h2q7 2 13 2.5t13 2.5q4 2 6 2h2q2 1 5 1.5t6 2.5q11 3 25 8q24 8 44 18q2 0 2 1q57 28 105.5 69.5t84.5 94.5q21 32 37 67t27 73q17 63 17 127v54
v143q0 4 6 5.5t8 1.5q16 3 34 3q17 0 34 -3z" />
    <glyph glyph-name="X" unicode="X" horiz-adv-x="693" 
d="M423 639q-1 0 -2 -1q-6 -3 -12.5 -6t-12.5 -7q52 -29 94 -71q46 -45 79.5 -101t50.5 -119t17 -127v-54v-143q0 -4 -6.5 -5t-8.5 -2q-17 -3 -34 -3q-18 0 -34 3q-2 1 -8 2t-6 5v69v92v30t-1 30q-3 65 -23.5 127t-56.5 116q-2 2 -2 3q-47 67 -112 115q-66 -48 -113 -118
q-22 -32 -38 -67t-26 -73q-17 -63 -17 -127v-54v-143q0 -4 -6 -5t-8 -2q-18 -3 -35 -3q-18 0 -34 3q-2 1 -8 2t-6 5v45v152q0 63 15.5 123.5t47.5 115.5q32 56 76.5 101.5t100.5 77.5q-7 5 -13.5 8t-13.5 7q-23 10 -45 18q-7 2 -13 4l-12 4q-4 1 -10 3h-3q-2 1 -3.5 1
t-3.5 1q-6 2 -12.5 3t-13.5 2q-1 0 -1.5 0.5t-1.5 0.5h-1q-4 1 -7 1t-7 1h-5t-5 1h-6h-10h-5q-18 0 -34 3q-2 1 -8 2.5t-6 4.5q0 4 6 5.5t8 1.5q16 3 34 3q39 0 78.5 -4t77.5 -14q45 -12 87 -30q18 8 36 14.5t38 11.5q81 22 169 22q17 0 34 -3q2 0 8.5 -1.5t6.5 -5.5
q0 -3 -6.5 -4.5t-8.5 -2.5q-17 -3 -34 -3h-10h-6q-2 0 -5 -0.5t-5 -0.5q-4 0 -6 -1q-4 0 -7 -0.5t-6 -0.5q-2 0 -3 -0.5t-2 -0.5q-7 -2 -13.5 -2.5t-12.5 -2.5q-2 -1 -3.5 -1t-3.5 -1h-1l-12 -3l-12 -4l-12 -4q-11 -5 -22.5 -9.5t-22.5 -9.5z" />
    <glyph glyph-name="Y" unicode="Y" horiz-adv-x="686" 
d="M614 697q2 0 8.5 -1.5t6.5 -5.5v-45v-152q0 -63 -16 -123.5t-48 -115.5q-6 -11 -13 -22t-15 -22q0 -2 -3 -3q-29 -41 -66 -74.5t-81 -58.5q-29 -17 -60 -30.5t-63 -21.5q-82 -22 -170 -22q-18 0 -34 3q-2 1 -8 2t-6 5t6 5t8 2q16 3 34 3h10h6q2 0 5 0.5t5 0.5q5 0 7 1
q3 0 6 0.5t7 0.5q1 1 5 1q6 2 12.5 2.5t13.5 2.5q4 2 6 2h2q2 1 5 1.5t6 2.5q11 3 25 8q24 8 44 18q2 0 2 1q106 52 176 145q-68 15 -126 46q-60 31 -108.5 76.5t-83.5 102.5q-36 58 -54.5 123.5t-18.5 133.5q0 4 6 5.5t8 1.5q16 3 34 3q17 0 35 -3q2 0 8 -1.5t6 -5.5v-18
q3 -68 23.5 -131.5t58.5 -120.5q36 -54 85 -96.5t108 -71.5q10 -5 19.5 -8.5t19.5 -7.5q19 31 33.5 63.5t24.5 67.5q16 60 16 127v54v143q0 4 6.5 5.5t8.5 1.5q16 3 34 3q17 0 34 -3z" />
    <glyph glyph-name="Z" unicode="Z" horiz-adv-x="699" 
d="M629 696q2 0 8.5 -1.5t6.5 -4.5v-50v-144q0 -4 -6.5 -5.5t-8.5 -1.5q-17 -3 -34 -3h-9h-7q-2 -1 -6 -1q-7 0 -10 -1q-3 0 -6 -0.5t-6 -0.5q-2 -1 -6 -1q-6 -2 -12 -3t-13 -2q-2 -1 -3 -1t-3 -1h-1l-12 -3q-5 -2 -11 -4l-12 -4q-24 -8 -44 -18q-1 0 -2 -1
q-58 -28 -106 -70t-84 -95q-3 -5 -6 -9.5t-6 -9.5q-33 -55 -50 -116t-19 -125h166h182h86q17 0 34 -3q2 -1 8.5 -2t6.5 -5t-6.5 -5t-8.5 -2q-17 -3 -34 -3h-48h-167h-182h-86q-18 0 -34 3q-2 1 -8 2t-6 5q0 63 15.5 124t47.5 116q64 115 177 182q58 34 122 52q30 8 60 13
t60 7v41v135h-166h-182h-86q-8 0 -17 0.5t-17 2.5q-2 0 -8 1.5t-6 5.5q0 3 6 4.5t8 1.5q8 2 17 2.5t17 0.5h48h167h182h86q8 0 17 -0.5t17 -2.5z" />
    <glyph glyph-name="at" unicode="@" horiz-adv-x="761" 
d="M684 697q2 0 6.5 -1t4.5 -4v-1v-92v-182v-178v-80q0 -3 -4.5 -4t-6.5 -1q-14 -3 -28 -3h-19h-146q-15 0 -28 3q-1 0 -6 1t-5 4v83h-44h-101v-83q0 -3 -4.5 -4t-6.5 -2q-7 -1 -13.5 -1.5t-14.5 -0.5q-7 0 -13.5 0.5t-13.5 1.5q-2 1 -7 2t-5 4v91q0 51 21 95q28 60 84 96
q35 22 73.5 30.5t79.5 9.5h4q14 0 28 -3q1 0 6 -1t5 -4v-83v-140v-83h87v85v182v178v72h-65h-54h-6q-5 0 -7 -1h-8q-2 -1 -8 -1q0 -1 -1 -1q-4 -1 -7.5 -1t-6.5 -1q-6 -2 -9 -2q-1 -1 -2 -1t-3 -1q-3 -1 -11 -3t-15 -4.5t-14 -5.5l-15 -6q0 -1 -2 -1.5t-3 -1.5
q-2 -1 -2.5 -1t-2.5 -1l-27 -15q-14 -8 -26 -17t-24 -19q-50 -43 -84 -94q-49 -74 -72 -163q-8 -34 -12 -68t-4 -69v-54v-137h94h188h172h76h14t14 -2q2 0 6.5 -1.5t4.5 -3.5q0 -3 -4.5 -4.5t-6.5 -1.5q-7 -2 -14 -2h-14h-12h-121h-188h-173h-76h-13.5t-13.5 2q-2 0 -7 1.5
t-5 4.5v42v155q0 66 15 130.5t46 123.5q29 57 72.5 105t99.5 80q59 34 122 46q27 6 54.5 8t55.5 2h144q14 0 28 -3zM352 258h100v76v123q-3 -2 -6.5 -2.5t-6.5 -2.5l-6 -3q0 -1 -1 -1h-1h-1q-8 -4 -11 -6q-46 -26 -75 -69q-34 -51 -36 -115h44z" />
    <glyph glyph-name="a" unicode="a" horiz-adv-x="540" 
d="M478 497q2 -1 8 -2.5t6 -4.5v-55v-181v-107v-2v-136q0 -3 -6 -4.5t-8 -2.5q-8 -2 -17 -2h-17h-17t-17 2q-2 1 -8 2.5t-6 4.5v2v126h-7h-181h-59v-128q0 -3 -6 -4.5t-8 -2.5q-9 -2 -17.5 -2h-16.5h-17.5t-16.5 2q-2 1 -8 2.5t-6 4.5v2v136q-1 8 -0.5 16.5t1.5 17.5
q6 64 35.5 122t78.5 102q24 22 52 38.5t59 28.5q39 15 81 21t84 6h17t17 -2zM396 156v46v180v91q-3 0 -3 -1q-3 0 -4 -1q-5 -1 -9 -2t-9 -3q-8 -3 -15.5 -6t-15.5 -7q-82 -40 -135 -117q-26 -40 -40.5 -86t-15.5 -94h7h180h60z" />
    <glyph glyph-name="b" unicode="b" horiz-adv-x="527" 
d="M393 250q1 -2 2 -2.5t2 -2.5q45 -48 69 -109t24 -127q0 -3 -3 -4q-6 -2 -10 -2h-1v-1q-8 -2 -17 -2h-17h-55h-181h-107h-17.5t-16.5 2q-2 1 -8 2.5t-6 4.5v55v181v108v1v136q0 3 6 4.5t8 2.5q8 2 16.5 2h17.5h54h180h108h17.5t16.5 -2q2 -1 8 -2.5t6 -4.5
q0 -67 -25 -129.5t-71 -110.5zM147 480v-120q5 0 11 -0.5t12 -1.5h3q2 -1 6 -1q1 0 1 -0.5t1 -0.5q47 -6 93 -25q14 -6 26 -12t24 -14l1 -1q4 -2 5 -3q2 -1 2.5 -1.5t2.5 -1.5l1 1q54 83 57 181h-6h-180h-60zM394 19q-2 48 -16.5 94t-41.5 87q-17 26 -39 48t-48 40q0 1 -1 1
q-1 1 -2 1.5t-2 1.5t-2 1.5t-2 1.5t-1.5 1t-1.5 1q-1 0 -3 2q-1 0 -1.5 0.5t-1.5 0.5q-1 1 -2 1.5t-2 1.5q-1 0 -1 1q-2 1 -3.5 1.5t-3.5 1.5t-3 2t-3 2h-1l-6 3q-2 1 -2.5 1.5t-2.5 1.5q-6 3 -12.5 5.5t-13.5 4.5v1q-2 0 -2.5 0.5t-2.5 0.5q-2 1 -8 3q-1 0 -1.5 0.5
t-1.5 0.5h-2q-1 1 -2 1t-2 1q-1 0 -3 0.5t-3 0.5v-39v-180v-98h7h180h60z" />
    <glyph glyph-name="c" unicode="c" horiz-adv-x="539" 
d="M206 336q-29 -42 -43 -90.5t-14 -99.5v-127h7h180h108q17 0 34 -3q2 0 8 -1.5t6 -5.5q0 -3 -6 -4.5t-8 -2.5q-8 -2 -17 -2h-17h-55h-180h-108h-17.5t-16.5 2q-2 1 -8 2.5t-6 4.5v13v87q0 18 -0.5 36t1.5 36q6 64 36 122t78 102q24 22 52 38.5t59 28.5q40 15 81.5 21
t83.5 6h17t17 -2q2 -1 8 -2.5t6 -4.5q0 -4 -6 -5.5t-8 -1.5q-17 -3 -34 -3h-3h-4h-4q-2 0 -2.5 -0.5t-2.5 -0.5q-5 0 -8 -1h-2q-5 -1 -9 -1.5t-9 -2.5q-1 0 -3.5 -0.5t-3.5 -1.5q-3 0 -4 -1q-8 -1 -17 -5l-16 -6t-16 -7q-83 -40 -134 -117z" />
    <glyph glyph-name="d" unicode="d" horiz-adv-x="525" 
d="M318 448q27 -16 51.5 -36t44.5 -45q38 -47 58.5 -103.5t20.5 -117.5v-137q0 -3 -6 -4.5t-8 -2.5q-8 -2 -17 -2h-17h-55h-180h-108h-17t-17 2q-2 1 -8 2.5t-6 4.5v50v167v180v84q0 3 6 4.5t8 2.5q8 2 17 2h17q19 0 38 -1t38 -4q37 -5 72 -16t68 -30zM397 19v114
q0 23 -1.5 44.5t-6.5 43.5q-14 63 -49 116q-52 77 -135 116q-13 6 -31 13q-9 4 -17 5q-2 1 -2.5 1t-2.5 1h-2v-33v-166v-180v-75h7h180h60z" />
    <glyph glyph-name="e" unicode="e" horiz-adv-x="539" 
d="M148 440v-78h7h181h107q9 0 17.5 -0.5t16.5 -2.5q2 0 8 -1.5t6 -4.5q0 -4 -6 -5.5t-8 -1.5q-17 -3 -34 -3h-55h-180h-60v-69v-180v-75h7h181h107q17 0 34 -3q2 0 8 -1.5t6 -5.5q0 -3 -6 -4.5t-8 -2.5q-8 -2 -16.5 -2h-17.5h-55h-180h-108h-17t-17 2q-2 1 -8 2.5t-6 4.5
v50v167v180v84q0 3 6 4.5t8 2.5q8 2 17 2h17h55h181h107h17.5t16.5 -2q2 -1 8 -2.5t6 -4.5q0 -4 -6 -5.5t-8 -1.5q-17 -3 -34 -3h-55h-180h-60v-40z" />
    <glyph glyph-name="f" unicode="f" horiz-adv-x="519" 
d="M151 440v-78h7h181h107q9 0 17.5 -0.5t16.5 -2.5q2 0 8 -1.5t6 -4.5q0 -4 -6 -5.5t-8 -1.5q-17 -3 -34 -3h-55h-180h-60v-69v-180v-85q0 -3 -6 -4.5t-8 -2.5q-8 -2 -16.5 -2h-17.5h-17t-17 2q-2 1 -8 2.5t-6 4.5v50v167v126v1v53v84q0 3 6 4.5t8 2.5q8 2 17 2h17h55h181
h107h17.5t16.5 -2q2 -1 8.5 -2.5t6.5 -4.5q0 -4 -6.5 -5.5t-8.5 -1.5q-17 -3 -34 -3h-55h-180h-60v-40z" />
    <glyph glyph-name="g" unicode="g" horiz-adv-x="522" 
d="M198 336q-28 -42 -42 -90.5t-14 -99.5v-127h7h180h60v118h-90q-18 0 -34 3q-2 1 -8 2t-6 5t6 5t8 2q16 3 34 3h2h136q17 0 34 -3q2 -1 8 -2t6 -5v-2v-136q0 -3 -6 -4.5t-8 -2.5q-8 -2 -17 -2h-17h-55h-181h-107h-17.5t-16.5 2q-2 1 -8 2.5t-6 4.5v13v87q0 18 -0.5 36
t1.5 36q6 64 36 122t78 102q24 22 52 38.5t59 28.5q39 15 81 21t84 6h17t17 -2q2 -1 8 -2.5t6 -4.5q0 -4 -6 -5.5t-8 -1.5q-17 -3 -34 -3h-3h-4h-4q-2 0 -2.5 -0.5t-2.5 -0.5q-5 0 -8 -1h-2q-5 -1 -9 -1.5t-9 -2.5q-1 0 -3.5 -0.5t-3.5 -1.5q-3 0 -4 -1q-8 -1 -17 -5l-16 -6
t-16 -7q-82 -40 -135 -117z" />
    <glyph glyph-name="h" unicode="h" horiz-adv-x="539" 
d="M476 497q2 -1 8 -2.5t6 -4.5v-50v-166v-180v-85q0 -3 -6 -4.5t-8 -2.5q-8 -2 -17 -2h-17h-17t-17 2q-2 1 -8 2.5t-6 4.5v50v167v110q-2 -1 -3 -1t-3 -1l-18 -6q-16 -5 -29 -12q-41 -20 -75 -49t-59 -67q-29 -42 -43.5 -91t-14.5 -100q0 -2 -5 -4q-6 -2 -7 -2h-1
q-1 0 -1 -1q-8 -2 -17 -2h-17h-17t-17 2v1h-1q-4 0 -10 2q-3 1 -3 4v50v167v180v84q0 3 6 4.5t8 2.5q8 2 17 2h17h17t17 -2q2 -1 8 -2.5t6 -4.5v-50v-166v-25l18 18q51 45 111 67q28 11 57 17.5t59 8.5v46v84q0 3 6 4.5t8 2.5q8 2 17 2h17h17t17 -2z" />
    <glyph glyph-name="i" unicode="i" horiz-adv-x="201" 
d="M133 355q2 -1 8 -2t6 -5v-49v-180v-109q0 -4 -6 -5.5t-8 -1.5q-17 -3 -34 -3q-18 0 -34 3q-2 0 -8 1.5t-6 5.5v49v180v109q0 4 6 5t8 2q16 3 34 3q17 0 34 -3zM99 404q-20 0 -34 14t-14 34t14 34t34 14t34 -14t14 -34t-14 -34t-34 -14z" />
    <glyph glyph-name="j" unicode="j" horiz-adv-x="402" 
d="M351 353q2 0 8 -1.5t6 -5.5q0 -23 -1.5 -47t-5.5 -47q-9 -54 -32 -106t-66 -88q-40 -32 -88.5 -45t-99.5 -13q-18 0 -34 3q-2 0 -8 1.5t-6 5.5q0 3 6 4.5t8 2.5q8 2 16.5 2t16.5 1h1h5q2 1 4.5 1t4.5 1q1 0 2 0.5t2 0.5h1q8 2 11 4q5 2 10.5 4t10.5 4q53 26 87 77
q35 51 46.5 112.5t11.5 121.5q0 4 6 5.5t8 1.5q18 3 34 3q17 0 35 -3zM73 20h1h-1zM75 20h-1h1zM316 404q-20 0 -34 14t-14 34t14 34t34 14t34.5 -14t14.5 -34t-14.5 -34t-34.5 -14z" />
    <glyph glyph-name="k" unicode="k" horiz-adv-x="535" 
d="M477 497q2 -1 8 -2.5t6 -4.5v-2v-135q0 -4 -6 -5.5t-8 -1.5q-8 -2 -17 -2.5t-17 -0.5h-55h-147q45 -14 85 -38.5t72 -59.5q45 -48 69 -109t24 -127q0 -3 -6 -4.5t-8 -2.5q-8 -2 -17 -2h-17h-17.5t-16.5 2q-2 1 -8 2.5t-6 4.5q0 51 -14.5 100t-43.5 91q-52 77 -135 116
q-7 4 -14.5 7t-15.5 6q-5 2 -8.5 3t-8.5 2q-2 1 -2.5 1t-2.5 1h-1v-39v-23v-157v-23v-85q0 -3 -6.5 -4.5t-8.5 -2.5q-8 -2 -16.5 -2h-17.5h-16.5t-16.5 2q-2 1 -8.5 2.5t-6.5 4.5v50v5v162v19v105q0 1 -0.5 1.5t-0.5 1.5l1 2v51v84q0 3 6.5 4.5t8.5 2.5q8 2 16.5 2h16.5
h17.5t16.5 -2q2 -1 8.5 -2.5t6.5 -4.5v-50v-78h5h181h60v128q0 3 6 4.5t8 2.5q8 2 16.5 2h17.5h17t17 -2z" />
    <glyph glyph-name="l" unicode="l" horiz-adv-x="416" 
d="M371 17q2 -1 8.5 -2t6.5 -5t-6.5 -5.5t-8.5 -1.5q-17 -3 -34 -3q-43 0 -78 7q-48 11 -87 34q-40 26 -67 64q-39 55 -53 121t-14 133v131q0 4 6 5.5t8 1.5q16 3 35 3q17 0 35 -3q2 0 8 -1.5t6 -5.5v-130q0 -63 12.5 -127t48.5 -118q36 -53 90 -80q5 -2 10.5 -4t10.5 -4
q4 -2 12 -4q2 0 2.5 -0.5t1.5 -0.5q2 -1 4.5 -1t4.5 -1h4h1q16 0 33 -3zM341 20q2 -1 4.5 -1t-5.5 1h1z" />
    <glyph glyph-name="m" unicode="m" horiz-adv-x="823" 
d="M601 448q28 -16 52 -36t44 -45q39 -47 59.5 -103.5t20.5 -117.5v-137q0 -3 -6 -4.5t-8 -2.5q-9 -2 -17.5 -2h-16.5h-17.5t-16.5 2q-2 1 -8 2.5t-6 4.5v124q0 23 -1.5 44.5t-6.5 43.5q-13 60 -49 116q-52 76 -135 116q-8 4 -15.5 7t-15.5 6q-5 2 -9 3l-8 2q-2 1 -3 1t-2 1
h-3v-122q33 -45 50 -97t17 -108v-137q0 -3 -6 -4.5t-8 -2.5q-8 -2 -17 -2h-17h-17t-17 2q-2 1 -8 2.5t-6 4.5v124q0 23 -1.5 44.5t-6.5 43.5q-13 60 -49 116q-2 3 -8 11q-2 0 -2 2q-50 66 -125 103q-13 6 -31 13q-5 2 -8.5 3t-8.5 2q-2 1 -2.5 1t-2.5 1h-2v-33v-166v-180
v-85q0 -3 -6 -4.5t-8 -2.5q-8 -2 -17 -2h-17h-17.5t-16.5 2q-2 1 -8 2.5t-6 4.5v50v167v180v84q0 3 6 4.5t8 2.5q8 2 16.5 2h17.5q19 0 38 -1t38 -4q37 -5 72 -16t68 -30l6 -4l6 -4v50q0 3 6 4.5t8 2.5q9 2 17.5 2h16.5q20 0 38.5 -1t38.5 -4q37 -5 72 -16t67 -30z" />
    <glyph glyph-name="n" unicode="n" horiz-adv-x="534" 
d="M473 497q2 -1 8 -2.5t6 -4.5v-50v-166v-128v-52v-85q0 -3 -6 -4.5t-8 -2.5q-8 -2 -17 -2h-17h-17t-17 2q-2 1 -8 2.5t-6 4.5v50v74q0 23 -1.5 44.5t-6.5 43.5q-13 60 -49 116q-52 76 -135 116q-13 6 -31 13q-5 2 -8.5 3t-8.5 2q-2 1 -2.5 1t-2.5 1h-2v-33v-166v-180v-85
q0 -3 -6 -4.5t-8 -2.5q-8 -2 -17 -2h-17h-17.5t-16.5 2q-2 1 -8 2.5t-6 4.5v50v167v180v84q0 3 6 4.5t8 2.5q8 2 16.5 2h17.5q19 0 38 -1t38 -4q37 -5 72 -16t68 -30q45 -26 79 -62v20v84q0 3 6 4.5t8 2.5q8 2 17 2h17h17t17 -2z" />
    <glyph glyph-name="o" unicode="o" horiz-adv-x="536" 
d="M495 390v-36t-2 -36q-6 -64 -35.5 -122t-77.5 -102q-48 -42 -112 -67q-39 -15 -81 -21t-84 -6h-16.5t-17.5 2q-2 1 -8 2.5t-6 4.5v50v166v180v85q0 3 6 4.5t8 2.5q9 2 17.5 2h16.5h56h180h108h17t17 -2q2 -1 8 -2.5t6 -4.5v-13v-87zM342 163q57 86 57 190v127h-7h-181
h-59v-40v-167v-179v-68q2 0 2 1q3 0 5 1l8 2t9 3q18 7 31 13q41 20 75 49.5t60 67.5z" />
    <glyph glyph-name="p" unicode="p" horiz-adv-x="534" 
d="M495 494q4 -2 4 -4q0 -9 -0.5 -18t-1.5 -17q-7 -65 -36.5 -123t-78.5 -101q-49 -44 -111 -67q-28 -11 -57 -17t-59 -9v-129q0 -3 -6 -4.5t-8 -2.5q-8 -2 -16.5 -2h-17.5h-16.5t-17.5 2q-2 1 -8 2.5t-6 4.5v2v135v55v181v108q0 3 6 4.5t8 1.5q9 2 17.5 2.5t16.5 0.5h55
h181h108q8 0 16.5 -0.5t17.5 -2.5h1q3 0 9 -2zM345 299q27 41 41 87t16 94h-6h-181h-60v-45v-181v-91q3 0 4 1q3 0 4 1q5 1 8.5 2t8.5 3q18 7 31 13q82 39 134 116z" />
    <glyph glyph-name="q" unicode="q" horiz-adv-x="544" 
d="M495 390q0 -18 0.5 -36t-1.5 -36q-5 -52 -25.5 -100t-53.5 -88q13 -8 25 -19q20 -20 31.5 -46.5t11.5 -55.5q0 -3 -6 -4.5t-8 -2.5q-8 -2 -16.5 -2h-17.5h-16.5t-17.5 2q-2 1 -8 2.5t-6 4.5q0 41 -21 74q-44 -36 -97 -56q-39 -15 -81 -21t-84 -6h-17t-17 2q-2 1 -8 2.5
t-6 4.5v50v167v180v84q0 4 6 5t8 2q16 3 34 3h55h181h107q17 0 34 -3q2 -1 8 -2t6 -5v-13v-87zM298 157q10 0 19.5 -0.5t19.5 -1.5q2 2 6 8q28 42 42 90.5t14 99.5v127h-7h-180h-60v-40v-166v-180v-68q2 0 3 1q3 0 4 1q8 1 17 5l16 6t16 7q63 31 108 83q-2 0 -4 2q-2 1 -5 2
t-5 2t-3 1t-3 1h-1q-2 0 -2.5 0.5t-1.5 0.5q-14 0 -27 3q-2 0 -8 1.5t-6 4.5q0 4 6 5.5t8 1.5q16 3 34 3z" />
    <glyph glyph-name="r" unicode="r" horiz-adv-x="533" 
d="M480 496q2 0 8 -1.5t6 -4.5q0 -68 -25.5 -130.5t-72.5 -111.5q2 -1 2.5 -2t2.5 -2q45 -48 69 -108.5t24 -126.5q0 -3 -6 -4.5t-8 -2.5q-8 -2 -17 -2h-17h-17t-17 2q-2 1 -8 2.5t-6 4.5q0 102 -57 188q-26 38 -60 67.5t-75 49.5q-8 3 -15.5 6t-15.5 6q-5 2 -8.5 3t-8.5 3
q-2 0 -2.5 0.5t-2.5 0.5q-1 0 -2 1v-37v-180v-108q0 -3 -6 -4.5t-8 -2.5q-8 -2 -17 -2h-17h-17.5t-16.5 2q-2 1 -8 2.5t-6 4.5v53v180v108v1v3v136q0 3 6 4.5t8 1.5q8 2 16.5 2.5t17.5 0.5h55h180h108q8 0 17 -0.5t17 -2.5zM151 480v-121q32 -3 64.5 -10t62.5 -20
q32 -14 61 -32l1 2q55 82 58 181h-7h-181h-59z" />
    <glyph glyph-name="s" unicode="s" horiz-adv-x="502" 
d="M450 256q2 0 8 -1.5t6 -4.5q0 -5 -0.5 -10.5t-0.5 -10.5q-5 -45 -29 -84t-59 -67q-30 -24 -64 -39t-70.5 -23.5t-74.5 -12t-74 -3.5h-17.5t-16.5 2q-2 1 -8.5 2.5t-6.5 4.5q0 4 6.5 5.5t8.5 1.5q16 3 34 3h11h5q2 0 5 0.5t5 0.5h4q3 1 6 1t6 1q2 0 4.5 0.5t4.5 0.5
q4 1 8 1.5t8 1.5l12 3h2l2 1q5 2 10 3t10 3q8 3 16.5 6t16.5 7q31 15 57.5 36.5t46.5 50.5q15 23 24 49.5t11 54.5h-166h-111q-18 0 -34 3q-2 0 -8 1.5t-6 5.5v5q1 23 8 45.5t18.5 43t27 38.5t33.5 33q30 25 64 41t70.5 25.5t74.5 13.5t76 4h17t17 -2q2 -1 8 -2.5t6 -4.5
q0 -4 -6 -5.5t-8 -1.5q-17 -3 -34 -3h-9h-5q-5 0 -7 -1h-6q-3 -1 -6 -1t-6 -1h-3q-5 -1 -10.5 -2t-10.5 -2q-6 -2 -10 -2q-2 -1 -2.5 -1t-2.5 -1q-5 -2 -9.5 -3t-9.5 -3q-8 -3 -16.5 -6t-16.5 -7q-33 -16 -61.5 -39.5t-49.5 -54.5q-14 -22 -23.5 -46.5t-11.5 -50.5h166h112
q8 0 16.5 -0.5t17.5 -2.5z" />
    <glyph glyph-name="t" unicode="t" horiz-adv-x="637" 
d="M262 352q0 -57 11 -114.5t43 -106.5q18 -27 42.5 -48t53.5 -35q10 -4 19.5 -8t20.5 -7q8 -2 11 -3h1q1 0 1.5 -0.5t2.5 -0.5q5 -2 11 -2.5t11 -2.5q4 0 6 -1q2 0 4.5 -0.5t4.5 -0.5q4 -1 13 -1q1 -1 3 -1q6 0 11.5 -0.5t10.5 -0.5h2h12q17 0 34 -3q2 0 8 -1.5t6 -5.5
q0 -3 -6 -4.5t-8 -2.5q-8 -2 -17 -2h-17q-44 0 -87.5 4.5t-86.5 15.5q-48 12 -89.5 38t-70.5 68q-34 50 -45.5 108t-11.5 118v127h-9h-84q-18 0 -34 3q-2 1 -8 2t-6 5t6 5t8 2q16 3 34 3h53h168h179h84q17 0 34 -3q2 -1 8 -2t6 -5t-6 -5t-8 -2q-17 -3 -34 -3h-53h-168h-74
v-127z" />
    <glyph glyph-name="u" unicode="u" horiz-adv-x="620" 
d="M565 384v-97t-5 -96q-3 -22 -8 -44.5t-14 -43t-22.5 -38t-33.5 -29.5q-29 -17 -61.5 -24t-65.5 -10q-44 -3 -87 0t-81 13q-22 7 -42.5 18.5t-35.5 28.5q-14 17 -23.5 37.5t-14.5 41.5q-6 26 -8.5 52.5t-3.5 52.5q-1 27 -1 54v54v137q0 4 6 5t8 2q16 3 34 3q17 0 34 -3
q2 -1 8 -2t6 -5v-42q0 -45 -0.5 -88.5t0.5 -88.5q1 -28 2.5 -55.5t6.5 -55.5q5 -21 11.5 -42t18.5 -40q19 -28 52 -45q5 -2 10 -3.5t10 -3.5q2 -1 2.5 -1t2.5 -1h1q3 -1 5.5 -1.5t5.5 -0.5q2 -1 4 -1h2q2 -1 5.5 -1t5.5 -1h7h5h6q2 0 6 0.5t6 0.5q5 0 7 1q3 0 4 1
q3 0 5.5 0.5t5.5 1.5h2q4 2 6 2q5 2 9 3.5t9 3.5q32 17 53 45q9 14 15 30t10 32q6 26 8.5 52.5t3.5 52.5q2 27 2 54v54v137q0 4 6 5t8 2q16 3 34 3q17 0 34 -3q2 -1 8 -2t6 -5v-107z" />
    <glyph glyph-name="v" unicode="v" horiz-adv-x="539" 
d="M493 390v-36t-2 -36q-6 -64 -35.5 -122t-77.5 -102q-25 -22 -53 -38.5t-58 -28.5q-40 -15 -81.5 -21t-83.5 -6h-17.5t-16.5 2q-2 1 -8 2.5t-6 4.5v50v166v180v85q0 3 6 4.5t8 2.5q8 2 16.5 2h17.5h16.5t17.5 -2q2 -1 8 -2.5t6 -4.5v-50v-167v-179v-68q2 0 3 1q2 0 4 1
q5 1 8.5 2t8.5 3q18 7 31 13q42 20 75.5 49.5t59.5 67.5q29 42 43 90.5t14 99.5v137q0 3 6 4.5t8 2.5q8 2 16.5 2h17.5h17t17 -2q2 -1 8 -2.5t6 -4.5v-13v-87z" />
    <glyph glyph-name="w" unicode="w" horiz-adv-x="823" 
d="M781 391q0 -18 0.5 -36t-1.5 -36q-6 -65 -36 -123t-78 -101q-49 -44 -111 -67q-39 -15 -81 -21.5t-84 -6.5q-18 0 -34 3q-2 1 -8 2t-6 5v3v47q-32 -21 -64 -32q-39 -15 -81 -21.5t-84 -6.5q-16 0 -34 3q-2 1 -8 2t-6 5v50v166v180v84q0 4 6 5.5t8 1.5q18 3 34 3
q17 0 34 -3q2 0 8 -1.5t6 -5.5v-49v-167v-180v-67h3q2 1 2.5 1t2.5 1l8 2t9 3q8 3 15.5 6t15.5 7q75 37 125 102q0 1 2 3l4 6t4 5q28 43 42.5 91.5t14.5 99.5v136q0 4 6 5.5t8 1.5q16 3 34 3q16 0 34 -3q2 0 8 -1.5t6 -5.5v-13v-86v-36t-2 -36q-5 -46 -21.5 -89.5
t-43.5 -80.5v-3v-119h3q1 1 2 1t2 1q8 1 17 5l16 6t16 7q41 20 75 49.5t60 66.5q28 43 42 91.5t14 99.5v136q0 4 6 5.5t8 1.5q16 3 34 3q17 0 34 -3q2 0 8 -1.5t6 -5.5v-13v-86z" />
    <glyph glyph-name="x" unicode="x" horiz-adv-x="525" 
d="M363 466q-8 -2 -16 -5.5t-16 -6.5q-4 -2 -8 -4.5t-9 -4.5q53 -31 90 -77q38 -47 58.5 -103.5t20.5 -117.5v-137q0 -4 -6 -5t-8 -2q-17 -3 -34 -3q-18 0 -34 3q-2 1 -8 2t-6 5v124q0 22 -1.5 44t-6.5 44q-14 64 -49 115q-14 21 -30.5 39t-35.5 34q-20 -16 -36.5 -34
t-30.5 -39q-29 -42 -43 -90.5t-14 -99.5v-137q0 -4 -6 -5t-8 -2q-17 -3 -34 -3q-18 0 -34 3q-2 1 -8 2t-6 5v13v87q0 18 -0.5 36t1.5 36q7 64 36.5 122t77.5 101q24 21 54 40l-18 9q-16 8 -31 12q-4 2 -8 3t-9 3q-1 0 -2 0.5t-3 0.5q-4 2 -6 2q-5 1 -9 1.5t-9 2.5h-2
q-2 0 -4 0.5t-4 0.5h-5q-1 0 -1.5 0.5t-1.5 0.5h-5h-3q-8 0 -17 0.5t-17 2.5q-2 0 -8 1.5t-6 4.5q0 4 6 5.5t8 1.5q16 3 34 3q19 0 38 -1t38 -4q52 -8 95 -25q3 1 7 3q40 15 81.5 21t83.5 6q17 0 34 -3q2 0 8 -1.5t6 -5.5q0 -3 -6 -4.5t-8 -1.5q-8 -2 -16.5 -2.5t-17.5 -0.5
h-3h-4q-1 0 -2 -0.5t-2 -0.5h-5q-2 0 -4 -0.5t-4 -0.5h-2q-5 -2 -9 -2.5t-9 -1.5q-1 0 -3.5 -1t-3.5 -1t-2 -0.5t-2 -0.5q-5 -2 -8.5 -3t-8.5 -3z" />
    <glyph glyph-name="y" unicode="y" horiz-adv-x="516" 
d="M480 391q0 -18 0.5 -36t-1.5 -36q-9 -93 -64 -168q0 -2 -2 -3q-22 -30 -48 -53q-49 -44 -111 -67q-39 -15 -81 -21.5t-84 -6.5q-18 0 -34 3q-2 1 -8 2t-6 5t6 5t8 2q16 3 34 3h3h5h3q3 0 5 1q5 0 8 1h2q5 1 9 1.5t9 2.5q1 0 3.5 0.5t3.5 0.5q1 1 2 1t2 1q8 1 17 5l16 6
t16 7q74 35 124 101q-51 12 -96.5 37t-81.5 63q-47 49 -72.5 111.5t-25.5 130.5q0 3 6 4.5t8 2.5q16 3 34 3q17 0 34 -3q2 -1 8 -2.5t6 -4.5q0 -51 15 -100t43 -91q52 -77 136 -118q4 -2 6 -2q47 80 47 175v136q0 4 6 5.5t8 1.5q16 3 34 3q17 0 34 -3q2 0 8 -1.5t6 -5.5v-13
v-86z" />
    <glyph glyph-name="z" unicode="z" horiz-adv-x="516" 
d="M464 497q2 -1 8 -2t6 -5v-2v-135q0 -3 -6 -4.5t-8 -2.5q-9 -2 -17.5 -2h-16.5h-3q-2 -1 -5 -1h-4h-4q-3 -1 -8 -1q0 -1 -2 -1l-18 -3q-1 -1 -4 -1q-4 -2 -7 -2q-5 -2 -8.5 -3t-8.5 -3l-30 -12q-41 -20 -74.5 -49.5t-59.5 -66.5q-54 -83 -57 -181h5h180h108q16 0 34 -3
q2 -1 8 -2t6 -5t-6 -5t-8 -2q-18 -3 -34 -3h-53h-180h-108q-18 0 -34 3q-2 1 -8 2t-6 5v16t1 16q6 65 35.5 123.5t77.5 101.5q24 23 52 39.5t58 28.5q29 11 58 17t59 9v119h-5h-180h-108q-18 0 -34 3q-2 1 -8 2t-6 5t6 5t8 2q16 3 34 3h53h180h108q16 0 34 -3z" />
    <glyph glyph-name="braceleft" unicode="{" horiz-adv-x="379" 
d="M240 640q-16 -26 -19 -54q-1 -7 -1 -13v-13v-79q0 -6 0.5 -12t-0.5 -11q-2 -32 -19 -57q-18 -27 -43 -40q-7 -4 -13.5 -6.5t-13.5 -4.5q7 -2 14 -4.5t14 -5.5q13 -7 24.5 -16.5t19.5 -21.5q19 -27 22 -56q1 -8 1 -14.5v-13.5v-81v-23q3 -32 19 -56q8 -11 17 -19t20 -15
q4 -2 5 -3l2 -1h2q3 -2 6 -2.5t6 -2.5h4q5 0 11 -0.5t11 -1.5q1 -1 5.5 -2t4.5 -4q0 -2 -4.5 -3t-5.5 -2q-7 -1 -13 -1.5t-13 -0.5q-22 0 -44 3.5t-42 14.5q-14 7 -24.5 17t-18.5 22q-17 26 -20 56v22v81v26q-3 28 -20 55q-8 11 -17.5 20t-21.5 16l-6 3h-1q-1 1 -1.5 1
t-1.5 1l-6 2l-6 2q-2 0 -3 1h-2q-6 0 -11.5 0.5t-10.5 1.5q-2 0 -6.5 1.5t-4.5 3.5q0 3 4.5 4t6.5 1q5 2 10.5 2h10.5q1 1 2 1h2l6 2l6 2q1 1 1.5 1t1.5 1h1q2 1 2.5 1.5t2.5 1.5q23 12 37 34q18 27 19 56v23v81v13.5t1 13.5q4 30 22 57q19 25 45 38q20 10 42 13.5t45 3.5
h13t13 -2q1 0 5.5 -1t4.5 -4q0 -2 -4.5 -3.5t-5.5 -1.5q-5 -1 -11 -1.5t-11 -0.5q-1 0 -2 -0.5t-2 -0.5h-2q-3 -2 -6.5 -2.5t-6.5 -2.5q-1 0 -1 -0.5t-1 -0.5t-2 -1q-2 -1 -2.5 -1.5t-2.5 -1.5q-11 -7 -21 -15.5t-18 -19.5zM71 357l2 1zM72 342q-3 1 -2 1t2 -1z" />
    <glyph glyph-name="braceright" unicode="}" horiz-adv-x="388" 
d="M342 355q2 0 6.5 -1t4.5 -4q0 -2 -4.5 -3.5t-6.5 -1.5q-5 -1 -10.5 -1.5t-10.5 -0.5h-2q-1 0 -1 -0.5t-1 -0.5q-8 -2 -12 -4q-1 0 -1.5 -0.5t-1.5 -0.5h-1v-1q-1 0 -5 -2q-24 -14 -37 -35q-18 -25 -19 -55q-1 -6 -0.5 -12t0.5 -12v-80v-14.5t-1 -13.5q-4 -30 -23 -56
q-17 -24 -44 -38q-20 -11 -42 -14.5t-45 -3.5q-7 0 -13.5 0.5t-12.5 1.5q-1 1 -5.5 2t-4.5 3q0 3 4.5 4t5.5 2q5 1 11 1.5t11 0.5h4q0 1 1 1q4 1 7 2t7 3q1 0 2 1h2q1 1 5 3q22 13 39 36q16 26 19 54q1 6 1 12.5v12.5v80q0 5 -0.5 11t0.5 12q2 32 19 57q18 26 43 40
q7 3 13.5 5.5t13.5 4.5q-7 2 -14 4.5t-14 6.5q-13 7 -24.5 16.5t-19.5 21.5q-19 27 -22 56q-1 7 -1 13.5v13.5v81v12t-1 12q-2 31 -18 55q-16 22 -37 34l-6 3q-1 0 -2 1q-1 0 -2 1q-3 2 -11 4q-2 0 -2.5 0.5t-1.5 0.5q-6 0 -11.5 0.5t-10.5 1.5q-1 0 -5.5 1.5t-4.5 3.5
q0 3 4.5 4t5.5 1q6 2 12.5 2h13.5q22 0 44 -3.5t42 -14.5q26 -13 43 -39q17 -25 20 -55v-23v-81v-25q3 -30 20 -55q15 -23 39 -36l6 -3v-1q2 0 2.5 -0.5t1.5 -0.5q4 -2 12 -4q1 -1 3 -1q1 0 2 -1h11.5t10.5 -2zM316 358q1 0 2 -0.5t-2 0.5z" />
    </font>
</defs>
</svg>
